<svg width="11" height="20" viewBox="0 0 11 20" fill="none" xmlns="http://www.w3.org/2000/svg">
<path fill-rule="evenodd" clip-rule="evenodd" d="M3.03533 0C1.35303 0 4.36592e-05 1.64598 4.36592e-05 3.66236C4.36592e-05 4.88823 0.50054 5.97699 1.26985 6.64164C0.873353 6.98806 0.551971 7.43799 0.33146 7.95536C0.110949 8.47274 -0.00255571 9.04316 4.36592e-05 9.62091C4.36592e-05 10.8476 0.50054 11.9355 1.26985 12.6002C0.873353 12.9466 0.551971 13.3965 0.33146 13.9139C0.110949 14.4313 -0.00255571 15.0017 4.36592e-05 15.5795C4.36592e-05 17.5958 1.35303 19.2418 3.03533 19.2418C4.71694 19.2418 6.07062 17.5958 6.07062 15.5795V12.4831C6.60228 13.0001 7.27244 13.2835 7.96466 13.2841C9.64696 13.2833 10.9999 11.6373 10.9999 9.62091C11.0027 9.04313 10.8893 8.47264 10.6688 7.95524C10.4482 7.43783 10.1268 6.98793 9.73015 6.64164C10.1266 6.29522 10.448 5.84528 10.6685 5.32791C10.889 4.81054 11.0025 4.24011 10.9999 3.66236C10.9999 1.64598 9.64696 0 7.96466 0H3.03533ZM1.1406 3.66236C1.1406 2.38679 1.99446 1.36537 3.03533 1.36537H4.92938V5.95935H3.03533C1.99446 5.95935 1.1406 4.93713 1.1406 3.66236ZM7.96466 5.95855H6.07062V1.36457H7.96466C9.00622 1.36457 9.8594 2.38679 9.8594 3.66236C9.8594 4.93713 9.00622 5.95855 7.96466 5.95855ZM1.14128 9.62091C1.14128 8.34614 1.99515 7.32392 3.03602 7.32392H4.93006V11.9179H3.03533C1.99378 11.9179 1.1406 10.8957 1.1406 9.62091H1.14128ZM6.07062 9.62091C6.07062 8.34614 6.92449 7.32392 7.96535 7.32392C9.00691 7.32392 9.86008 8.34534 9.86008 9.62091C9.86008 10.8957 9.00691 11.9179 7.96535 11.9179C6.92449 11.9179 6.07131 10.8965 6.07131 9.62091H6.07062ZM1.14128 15.5795C1.14128 14.3047 1.99515 13.2833 3.03602 13.2833H4.93006V15.5795C4.93006 16.855 4.07757 17.8765 3.03602 17.8765C1.99515 17.8765 1.14128 16.855 1.14128 15.5795Z" fill="url(#paint0_linear_2034_1831)"/>
<defs>
<linearGradient id="paint0_linear_2034_1831" x1="5.5" y1="0" x2="5.5" y2="19.2418" gradientUnits="userSpaceOnUse">
<stop stop-color="#693B93" stop-opacity="0.53"/>
<stop offset="1" stop-color="#693B93"/>
</linearGradient>
</defs>
</svg>
