<svg width="14" height="18" viewBox="0 0 14 18" fill="none" xmlns="http://www.w3.org/2000/svg">
<path fill-rule="evenodd" clip-rule="evenodd" d="M7 0C3.13367 0 0 3.91618 0 8.74636C0 13.5765 3.13367 17.4927 7 17.4927C10.8657 17.4927 14 13.5765 14 8.74636C14 3.91618 10.8657 0 7 0ZM7.08167 13.8615C4.82533 13.8615 2.99833 11.5729 2.99833 8.74636C2.99833 5.91983 4.82533 3.6312 7.08167 3.6312C8.18417 3.6312 9.10583 4.13921 9.81283 4.96429L8.66133 6.40598V6.40306C8.23258 5.8914 7.68892 5.62901 7.08167 5.62901C5.73417 5.62901 4.63925 7.05467 4.63925 8.74344C4.63925 10.4308 5.73417 11.8608 7.08167 11.8608C8.30433 11.8608 9.13617 10.9847 9.30767 9.78207H7.08167V7.78717H10.9229C10.9742 8.12974 11.0017 8.48688 11.0017 8.86152C11.0017 11.7843 9.44008 13.8615 7.08167 13.8615Z" fill="url(#paint0_linear_2034_1842)"/>
<defs>
<linearGradient id="paint0_linear_2034_1842" x1="7" y1="0" x2="7" y2="17.4927" gradientUnits="userSpaceOnUse">
<stop stop-color="#693B93" stop-opacity="0.53"/>
<stop offset="1" stop-color="#693B93"/>
</linearGradient>
</defs>
</svg>
