<svg width="13" height="16" viewBox="0 0 13 16" fill="none" xmlns="http://www.w3.org/2000/svg">
<path d="M11.6071 0H1.39286C0.623884 0 0 0.727561 0 1.62432V13.536C0 14.4328 0.623884 15.1604 1.39286 15.1604H11.6071C12.3761 15.1604 13 14.4328 13 13.536V1.62432C13 0.727561 12.3761 0 11.6071 0ZM7.07455 11.8237C7.07455 13.2991 6.3317 13.9726 5.24933 13.9726C4.27143 13.9726 3.70558 13.3837 3.4154 12.6697L4.41071 11.9692C4.60223 12.3652 4.77634 12.7002 5.1971 12.7002C5.59754 12.7002 5.8529 12.5174 5.8529 11.8034V6.9609H7.07455V11.8237ZM9.96473 13.9726C8.83013 13.9726 8.09598 13.3431 7.73906 12.5174L8.73438 11.8474C8.99554 12.3449 9.33795 12.7137 9.93862 12.7137C10.4435 12.7137 10.7685 12.4193 10.7685 12.0098C10.7685 11.5225 10.4377 11.35 9.87768 11.0623L9.57299 10.91C8.69085 10.4735 8.10759 9.92191 8.10759 8.76119C8.10759 7.69185 8.80692 6.87969 9.89509 6.87969C10.6728 6.87969 11.2299 7.1944 11.6304 8.0201L10.6786 8.73074C10.4696 8.2942 10.2433 8.12162 9.89219 8.12162C9.53527 8.12162 9.30893 8.38557 9.30893 8.73074C9.30893 9.15712 9.53527 9.32971 10.0605 9.59704L10.3652 9.74932C11.404 10.2671 11.9873 10.7984 11.9873 11.9895C11.9873 13.2687 11.1225 13.9726 9.96473 13.9726Z" fill="url(#paint0_linear_2034_1829)"/>
<defs>
<linearGradient id="paint0_linear_2034_1829" x1="6.5" y1="0" x2="6.5" y2="15.1603" gradientUnits="userSpaceOnUse">
<stop stop-color="#693B93" stop-opacity="0.53"/>
<stop offset="1" stop-color="#693B93"/>
</linearGradient>
</defs>
</svg>
