<svg width="13" height="15" viewBox="0 0 13 15" fill="none" xmlns="http://www.w3.org/2000/svg">
<path fill-rule="evenodd" clip-rule="evenodd" d="M1.55495e-07 1.24864C1.55495e-07 0.917477 0.110678 0.599882 0.307685 0.365718C0.504692 0.131554 0.771891 1.6646e-06 1.0505 1.6646e-06H11.5224C11.6604 -0.000266372 11.7972 0.0318377 11.9248 0.0944757C12.0524 0.157114 12.1684 0.249056 12.2661 0.365038C12.3638 0.48102 12.4413 0.618764 12.4941 0.770384C12.5469 0.922004 12.5741 1.08452 12.574 1.24864V13.6956C12.5742 13.8597 12.5471 14.0223 12.4943 14.174C12.4416 14.3257 12.3642 14.4635 12.2665 14.5796C12.1689 14.6957 12.053 14.7878 11.9254 14.8506C11.7978 14.9134 11.661 14.9457 11.5229 14.9456H1.0505C0.9125 14.9456 0.77585 14.9132 0.64836 14.8505C0.52087 14.7877 0.405038 14.6956 0.307483 14.5796C0.209927 14.4636 0.13256 14.3259 0.0798007 14.1743C0.0270417 14.0227 -7.49272e-05 13.8603 1.55495e-07 13.6962V1.24864ZM4.97702 5.69834H6.67966V6.71463C6.92542 6.1304 7.55412 5.60459 8.49889 5.60459C10.3101 5.60459 10.7393 6.7683 10.7393 8.90348V12.8586H8.9064V9.38989C8.9064 8.17387 8.66064 7.48773 8.03651 7.48773C7.17062 7.48773 6.81054 8.22753 6.81054 9.38989V12.8586H4.97702V5.69834ZM1.83352 12.7655H3.66704V5.60459H1.83352V12.7649V12.7655ZM3.92938 3.269C3.93284 3.4556 3.9049 3.64114 3.84721 3.81473C3.78953 3.98832 3.70325 4.14647 3.59344 4.27989C3.48364 4.41331 3.35252 4.51932 3.20778 4.59169C3.06304 4.66406 2.90759 4.70134 2.75057 4.70134C2.59354 4.70134 2.43809 4.66406 2.29335 4.59169C2.14861 4.51932 2.01749 4.41331 1.90769 4.27989C1.79788 4.14647 1.7116 3.98832 1.65392 3.81473C1.59623 3.64114 1.56829 3.4556 1.57175 3.269C1.57854 2.90274 1.70571 2.55419 1.92604 2.29801C2.14638 2.04182 2.44234 1.89837 2.75057 1.89837C3.05879 1.89837 3.35475 2.04182 3.57509 2.29801C3.79542 2.55419 3.92259 2.90274 3.92938 3.269Z" fill="url(#paint0_linear_2034_1848)"/>
<defs>
<linearGradient id="paint0_linear_2034_1848" x1="6.28701" y1="0" x2="6.28701" y2="14.9456" gradientUnits="userSpaceOnUse">
<stop stop-color="#693B93" stop-opacity="0.53"/>
<stop offset="1" stop-color="#693B93"/>
</linearGradient>
</defs>
</svg>
