<svg width="16" height="23" viewBox="0 0 16 23" fill="none" xmlns="http://www.w3.org/2000/svg">
<path d="M7.99642 22.1574C7.75649 22.1574 7.51298 22.0783 7.3017 21.9288L5.09221 20.324C4.76276 20.0954 4.9239 20.0162 5.03133 19.9722C5.4718 19.7832 5.56133 19.7436 6.03044 19.4139C6.08057 19.3787 6.14503 19.3919 6.19517 19.4314L7.89257 20.6669C7.95345 20.7109 8.03939 20.7109 8.09669 20.6669L14.7108 15.98C14.7717 15.936 14.8111 15.8481 14.8111 15.7602V6.38628C14.8111 6.29395 14.7717 6.21041 14.7073 6.16205L8.09669 1.47951C8.03581 1.43554 7.95345 1.43554 7.89257 1.47951L1.28559 6.16644C1.22113 6.21041 1.18174 6.29835 1.18174 6.39068V15.7602C1.18174 15.8481 1.22113 15.936 1.28559 15.9756L3.09758 17.2595C4.08236 17.8618 4.68398 17.1539 4.68398 16.4373V7.18649C4.68398 7.05459 4.76992 6.95346 4.87735 6.95346H5.71531C5.81916 6.95346 5.90868 7.05459 5.90868 7.18649V16.4417C5.90868 18.0509 5.19248 18.9742 3.94987 18.9742C3.5667 18.9742 3.26589 18.9742 2.42793 18.4642L0.694718 17.2375C0.264996 16.9341 0 16.3669 0 15.7558V6.38628C0 5.77953 0.264996 5.20795 0.694718 4.90458L7.3017 0.217639C7.72068 -0.0725464 8.27574 -0.0725464 8.69114 0.217639L15.3053 4.90897C15.735 5.21235 16 5.77953 16 6.39068V15.7602C16 16.3669 15.735 16.9341 15.3053 17.2419L8.69114 21.9288C8.47986 22.0783 8.23993 22.1574 7.99642 22.1574ZM13.3357 12.9199C13.3357 11.1656 12.3688 10.6995 10.3384 10.3697C8.2829 10.0356 8.0752 9.86411 8.0752 9.27495C8.0752 8.78691 8.25067 8.13619 9.7726 8.13619C11.1298 8.13619 11.6312 8.49672 11.8389 9.62229C11.8568 9.72781 11.9355 9.80696 12.0251 9.80696H12.8845C12.9382 9.80696 12.9884 9.78057 13.0242 9.73221C13.06 9.68385 13.0779 9.6179 13.0743 9.55194C12.9418 7.61298 11.8926 6.71164 9.7726 6.71164C7.88541 6.71164 6.76097 7.68772 6.76097 9.32771C6.76097 11.104 7.88183 11.5964 9.69024 11.8163C11.8568 12.0757 12.0251 12.467 12.0251 12.9902C12.0251 13.8959 11.4306 14.2828 10.0376 14.2828C8.28648 14.2828 7.90331 13.742 7.7744 12.6736C7.76007 12.5593 7.68129 12.4758 7.5846 12.4758H6.72874C6.62131 12.4758 6.53894 12.5813 6.53894 12.7088C6.53894 14.0762 7.14414 15.7074 10.0412 15.7074C12.1325 15.703 13.3357 14.6874 13.3357 12.9199Z" fill="url(#paint0_linear_2034_1830)"/>
<defs>
<linearGradient id="paint0_linear_2034_1830" x1="8" y1="0" x2="8" y2="22.1574" gradientUnits="userSpaceOnUse">
<stop stop-color="#693B93" stop-opacity="0.53"/>
<stop offset="1" stop-color="#693B93"/>
</linearGradient>
</defs>
</svg>
