<svg width="21" height="21" viewBox="0 0 21 21" fill="none" xmlns="http://www.w3.org/2000/svg">
<path d="M20.0931 10.4361C20.0931 8.88375 18.4263 7.4124 15.8702 6.50049C16.4605 3.46309 16.1984 1.04566 15.0431 0.271423C14.7631 0.0885743 14.4463 -0.00346396 14.1255 0.00488171V1.0691C14.3139 1.0691 14.4654 1.11303 14.5926 1.19407C15.1494 1.56703 15.3914 2.98468 15.203 4.80947C15.1578 5.25859 15.0841 5.73114 14.9937 6.21345C14.1377 5.97291 13.269 5.79907 12.3933 5.69306C11.8716 4.85369 11.3024 4.05587 10.6896 3.30492C12.0249 1.85798 13.2782 1.06519 14.1305 1.06519V0C13.0036 0 11.5293 0.936313 10.0382 2.55997C8.54796 0.947053 7.07279 0.0195269 5.94673 0.0195269V1.08374C6.79483 1.08374 8.05233 1.87263 9.38769 3.3098C8.81419 4.01277 8.2407 4.80947 7.69568 5.69306C6.81814 5.79789 5.94787 5.9734 5.0911 6.21833C5.00055 5.7612 4.92931 5.29916 4.87761 4.83388C4.68505 3.00811 4.92282 1.59046 5.47622 1.21359C5.59845 1.12768 5.75836 1.08862 5.94673 1.08862V0.0244086C5.60348 0.0244086 5.2912 0.110327 5.02161 0.29095C3.87044 1.06519 3.61258 3.47676 4.20617 6.50538C1.65852 7.42314 0 8.88863 0 10.4361C0 11.9885 1.66689 13.4599 4.22291 14.3708C3.63267 17.4092 3.89472 19.8266 5.05008 20.5999C5.31631 20.7815 5.62776 20.8674 5.97101 20.8674C7.0979 20.8674 8.57224 19.9311 10.0633 18.3074C11.5536 19.9213 13.0279 20.8479 14.1548 20.8479C14.478 20.8558 14.7973 20.7635 15.0799 20.5803C16.2311 19.8071 16.4889 17.3955 15.8954 14.3669C18.4346 13.455 20.0931 11.9836 20.0931 10.4361ZM14.7601 7.25033C14.601 7.88871 14.4166 8.51816 14.2075 9.13662C13.8652 8.36019 13.4894 7.60451 13.0815 6.87248C13.6633 6.97304 14.2243 7.09704 14.7609 7.25033H14.7601ZM12.8847 12.3371C12.5781 12.9614 12.2488 13.5702 11.8977 14.1619C10.6688 14.2882 9.43293 14.2898 8.20386 14.1667C7.49889 12.9924 6.88235 11.7491 6.36116 10.4508C6.88155 9.14942 7.49547 7.90175 8.19633 6.72115C9.42485 6.59458 10.6605 6.59262 11.8893 6.71529C12.2292 7.28352 12.5616 7.89081 12.8805 8.53129C13.192 9.15615 13.475 9.79077 13.7328 10.4313C13.4721 11.0795 13.1892 11.7153 12.8847 12.3371ZM14.2075 11.7161C14.4286 12.3556 14.6178 12.9961 14.7726 13.6171C14.2368 13.7703 13.6709 13.8992 13.0857 13.9988C13.4919 13.2601 13.8663 12.4983 14.2075 11.7161ZM10.0549 16.8126C9.67401 16.3538 9.29308 15.8431 8.91633 15.2837C9.28471 15.3032 9.66146 15.3179 10.0424 15.3179C10.4275 15.3179 10.8084 15.3081 11.181 15.2837C10.8126 15.8431 10.4317 16.3538 10.0549 16.8126ZM7.00748 13.9988C6.44299 13.9034 5.88257 13.7777 5.32803 13.6219C5.47957 13.0059 5.66794 12.3703 5.88059 11.7356C6.04887 12.1164 6.22553 12.4991 6.41809 12.8819C6.61065 13.2636 6.80655 13.6366 7.00748 13.9988ZM10.034 4.05964C10.4149 4.51852 10.7959 5.02915 11.1726 5.58859C10.8043 5.56906 10.4275 5.55442 10.0466 5.55442C9.66146 5.55442 9.28052 5.56418 8.90796 5.58859C9.27634 5.02915 9.65727 4.51852 10.034 4.05964ZM7.0033 6.87346C6.59714 7.61053 6.22272 8.37074 5.88143 9.15127C5.66645 8.52881 5.47785 7.89439 5.31631 7.25033C5.85213 7.10192 6.41809 6.97304 7.0033 6.87346ZM3.29695 12.8526C1.8469 12.132 0.909215 11.186 0.909215 10.4361C0.909215 9.6863 1.8469 8.73534 3.29695 8.01968C3.64858 7.84297 4.0337 7.6848 4.43138 7.53737C4.66496 8.47271 4.97222 9.4471 5.35231 10.4459C4.99345 11.3853 4.68996 12.3522 4.44393 13.3398C4.05501 13.1993 3.67222 13.0368 3.29695 12.8526ZM5.5005 19.6772C4.94375 19.3062 4.7018 17.8866 4.89017 16.0628C4.93538 15.6137 5.00905 15.1402 5.09947 14.6578C5.90153 14.8873 6.77809 15.064 7.69986 15.1792C8.22159 16.0186 8.79077 16.8164 9.40359 17.5673C8.06824 19.0143 6.81493 19.8071 5.96264 19.8071C5.80185 19.8091 5.64311 19.7649 5.5005 19.6782V19.6772ZM15.2155 16.0384C15.4081 17.8632 15.1703 19.2818 14.6169 19.6587C14.4947 19.7446 14.3348 19.7827 14.1464 19.7827C13.2983 19.7827 12.0408 18.9948 10.7055 17.5566C11.3157 16.8088 11.8811 16.0128 12.3975 15.1743C13.275 15.0695 14.1453 14.894 15.002 14.6491C15.0967 15.1314 15.1695 15.5942 15.2155 16.0384ZM16.792 12.8526C16.4404 13.0293 16.0553 13.1875 15.6576 13.3349C15.4072 12.3423 15.0996 11.3705 14.7366 10.4264C15.1134 9.43343 15.4156 8.46392 15.645 7.53249C16.0352 7.67339 16.4194 7.83598 16.7962 8.01968C18.2463 8.74023 19.1839 9.6863 19.1839 10.4361C19.1797 11.186 18.2421 12.1369 16.792 12.8526Z" fill="url(#paint0_linear_2034_1825)"/>
<path d="M10.0424 12.6186C10.5389 12.6186 11.0151 12.3886 11.3661 11.9792C11.7172 11.5698 11.9144 11.0145 11.9144 10.4355C11.9144 9.85655 11.7172 9.30127 11.3661 8.89186C11.0151 8.48245 10.5389 8.25244 10.0424 8.25244C9.54593 8.25244 9.06978 8.48245 8.71871 8.89186C8.36764 9.30127 8.17041 9.85655 8.17041 10.4355C8.17041 11.0145 8.36764 11.5698 8.71871 11.9792C9.06978 12.3886 9.54593 12.6186 10.0424 12.6186Z" fill="url(#paint1_linear_2034_1825)"/>
<defs>
<linearGradient id="paint0_linear_2034_1825" x1="10.0466" y1="0" x2="10.0466" y2="20.8674" gradientUnits="userSpaceOnUse">
<stop stop-color="#693B93" stop-opacity="0.53"/>
<stop offset="1" stop-color="#693B93"/>
</linearGradient>
<linearGradient id="paint1_linear_2034_1825" x1="10.0424" y1="8.25244" x2="10.0424" y2="12.6186" gradientUnits="userSpaceOnUse">
<stop stop-color="#693B93" stop-opacity="0.53"/>
<stop offset="1" stop-color="#693B93"/>
</linearGradient>
</defs>
</svg>
