<svg width="14" height="16" viewBox="0 0 14 16" fill="none" xmlns="http://www.w3.org/2000/svg">
<path d="M11.3343 0H2.25625C1.01016 0 0 1.17802 0 2.63119V12.8216C0 14.2748 1.01016 15.4528 2.25625 15.4528H11.3343C12.5804 15.4528 13.5906 14.2748 13.5906 12.8216V2.63119C13.5906 1.17802 12.5804 0 11.3343 0Z" fill="url(#paint0_linear_2034_1834)"/>
<path d="M7.14449 4.06475L5.4487 7.32886L7.26299 10.7949C7.27467 10.8192 7.2779 10.8477 7.27212 10.8746C7.2693 10.8862 7.26325 10.889 7.25396 10.8894L7.24366 10.8893L7.23113 10.8889C7.22434 10.8889 7.21675 10.8893 7.20831 10.8909H5.90021L5.87452 10.8904C5.80402 10.8882 5.75321 10.8764 5.72226 10.8161C5.60123 10.5412 5.47965 10.2665 5.35755 9.99218C5.24832 9.7475 5.13612 9.50464 5.02097 9.26368L4.97011 9.15757C4.83238 8.87211 4.69714 8.58504 4.56441 8.29639H4.55528C4.4327 8.58202 4.30657 8.86556 4.17692 9.14692C4.04616 9.43047 3.917 9.71228 3.78943 9.99218C3.66178 10.2723 3.53111 10.5505 3.39743 10.8268C3.37592 10.8831 3.3402 10.8949 3.29045 10.8968L3.26975 10.8972H2.02074L2.01533 10.8974L1.99749 10.8992C1.98756 10.8999 1.98162 10.8974 1.97971 10.88C1.97628 10.854 1.98116 10.8276 1.9934 10.8056L3.75296 7.43516L2.03895 4.05423C2.02074 4.026 2.01772 4.00297 2.02982 3.98514C2.03655 3.97605 2.045 3.96892 2.0545 3.9643C2.064 3.95968 2.07429 3.9577 2.08456 3.95852H3.37003C3.39807 3.95673 3.42609 3.96218 3.45211 3.97449C3.47387 3.98891 3.49261 4.00891 3.50679 4.03299C3.6162 4.31654 3.73777 4.60009 3.8715 4.88352C4.00419 5.16516 4.13944 5.44515 4.2772 5.72346C4.41286 5.99745 4.53908 6.27765 4.65556 6.5634H4.66469C4.78407 6.27772 4.90716 5.99418 5.03392 5.71287C5.15841 5.43644 5.28609 5.15815 5.41679 4.8782C5.54584 4.60183 5.67197 4.32362 5.79515 4.04364C5.80216 4.01739 5.81469 3.99362 5.83162 3.97449C5.85414 3.96119 5.87945 3.95565 5.90457 3.95852H7.09889C7.10987 3.95532 7.12144 3.95638 7.13187 3.96151C7.14229 3.96665 7.151 3.9756 7.15669 3.98701C7.16238 3.99842 7.16473 4.01167 7.1634 4.02478C7.16208 4.03788 7.15714 4.05013 7.14933 4.05968L7.14455 4.06488L7.14449 4.06475ZM9.82385 11.028L9.761 11.0288C9.34135 11.0363 8.92556 10.9346 8.54384 10.7311C8.18825 10.5392 7.891 10.2259 7.69141 9.8327C7.49015 9.44291 7.38684 8.95716 7.38164 8.37564L7.38143 8.32828C7.37801 7.8403 7.48495 7.3599 7.69146 6.93548C7.89814 6.5154 8.19945 6.16929 8.56274 5.93463L8.59401 5.91482C8.98899 5.65963 9.46614 5.53203 10.0254 5.53203L10.0498 5.53234L10.0777 5.53339L10.109 5.535L10.1439 5.53736L10.2024 5.54218L10.2686 5.54837L10.3171 5.55333V3.45878C10.3171 3.40925 10.3354 3.38436 10.3718 3.38436H11.5205C11.528 3.38312 11.5356 3.38391 11.5427 3.38667C11.5498 3.38944 11.5563 3.3941 11.5616 3.40029C11.5669 3.40648 11.5709 3.41402 11.5732 3.42233C11.5756 3.43063 11.5763 3.43946 11.5752 3.44813V9.73172C11.5752 9.83722 11.5787 9.95088 11.5857 10.0725L11.6027 10.3483L11.6118 10.5078C11.6129 10.5299 11.6083 10.5519 11.5985 10.5709C11.5887 10.5899 11.5743 10.605 11.557 10.6142C11.2607 10.7583 10.952 10.8652 10.6362 10.9331C10.3681 10.9908 10.0964 11.0225 9.82385 11.028ZM10.3171 9.71042V6.80788C10.2678 6.79232 10.2175 6.78166 10.1667 6.776C10.1046 6.76871 10.0422 6.76515 9.97977 6.76535C9.75854 6.76279 9.53991 6.82108 9.3416 6.93548C9.14844 7.04745 8.98352 7.21597 8.86296 7.42457C8.74261 7.62986 8.68033 7.89794 8.67625 8.22879L8.67603 8.26451C8.6716 8.49626 8.70405 8.72695 8.77175 8.9449C8.82686 9.12055 8.91398 9.28017 9.02711 9.41276C9.13536 9.53473 9.26643 9.62571 9.40998 9.67854C9.56161 9.7358 9.7201 9.76454 9.87949 9.76367C9.96454 9.76367 10.0435 9.76008 10.1165 9.75296C10.1747 9.74785 10.2325 9.73666 10.289 9.71953L10.3171 9.71042Z" fill="black"/>
<defs>
<linearGradient id="paint0_linear_2034_1834" x1="6.79528" y1="0" x2="6.79528" y2="15.4528" gradientUnits="userSpaceOnUse">
<stop stop-color="#693B93" stop-opacity="0.53"/>
<stop offset="1" stop-color="#693B93"/>
</linearGradient>
</defs>
</svg>
