<svg width="114" height="59" viewBox="0 0 114 59" fill="none" xmlns="http://www.w3.org/2000/svg">
<path d="M40.6121 49.4C40.5481 49.4 40.4201 49.336 40.2281 49.208C40.0361 49.144 39.7161 48.856 39.2681 48.344V48.056C39.1401 47.864 39.0441 47.672 38.9801 47.48C38.9161 47.352 38.8841 47.288 38.8841 47.288C38.9481 47.16 39.0121 46.872 39.0761 46.424C39.2681 46.232 39.3961 45.752 39.4601 44.984L39.9401 44.504L40.4201 42.488C40.6121 42.296 40.7401 42.008 40.8041 41.624V41.144C41.3801 39.8 41.6361 38.616 41.5721 37.592C41.8281 37.336 41.9561 36.984 41.9561 36.536C41.9561 36.216 41.8921 35.992 41.7641 35.864C41.7001 35.736 41.6361 35.608 41.5721 35.48C41.5081 35.16 41.5081 34.872 41.5721 34.616C41.5721 34.552 41.6041 34.488 41.6681 34.424C41.6681 34.424 41.6361 34.296 41.5721 34.04C41.5721 33.784 41.5401 33.4 41.4761 32.888C41.4121 32.76 41.3481 32.6 41.2841 32.408C41.2201 32.216 41.1561 31.928 41.0921 31.544C41.0281 31.416 40.9641 31.288 40.9001 31.16C40.8361 31.032 40.7721 30.872 40.7081 30.68C40.2601 30.616 40.0361 30.552 40.0361 30.488L39.7481 30.584C39.6841 30.392 39.6201 30.232 39.5561 30.104C39.5561 29.912 39.5561 29.752 39.5561 29.624C39.5561 29.624 39.7481 29.56 40.1321 29.432C40.5161 29.24 40.8041 29.144 40.9961 29.144C41.0601 29.144 41.1561 29.208 41.2841 29.336C41.4761 29.4 41.6041 29.432 41.6681 29.432H41.8601C41.8601 29.368 41.9241 29.336 42.0521 29.336C41.8601 29.336 42.1801 29.624 43.0121 30.2C43.1401 30.584 43.3321 30.808 43.5881 30.872C43.5881 30.936 43.5241 31.032 43.3961 31.16C43.3961 31.16 43.6521 31.864 44.1641 33.272C44.2281 33.528 44.2601 33.88 44.2601 34.328C44.3241 34.712 44.3561 35.256 44.3561 35.96V38.552C44.6761 38.872 44.8681 39.032 44.9321 39.032C45.1881 39.032 45.3481 38.808 45.4121 38.36C45.5401 38.296 45.7001 38.2 45.8921 38.072C46.1481 37.944 46.4041 37.816 46.6601 37.688C46.7241 37.496 46.9801 37.176 47.4281 36.728C47.4921 36.536 47.4601 36.376 47.3321 36.248L48.0041 35.576C48.0041 35.256 48.1001 34.968 48.2921 34.712C48.4841 34.584 48.7401 34.328 49.0601 33.944C49.3801 33.56 49.5721 33.368 49.6361 33.368C49.7001 33.432 49.7641 33.464 49.8281 33.464C49.8921 33.4 49.9241 33.24 49.9241 32.984C50.0521 32.984 50.1481 33.016 50.2121 33.08L50.6921 32.504V31.928C51.3321 31.48 51.6521 31.16 51.6521 30.968L52.8041 30.392C52.8681 30.328 53.0601 30.136 53.3801 29.816C53.7641 29.496 54.2761 28.984 54.9161 28.28L55.4921 27.992L58.1801 25.976C58.5001 25.976 58.7881 25.848 59.0441 25.592C59.3641 25.336 59.5881 25.208 59.7161 25.208L60.1001 25.4V25.208H60.4841C60.4201 25.4 60.5481 25.624 60.8681 25.88C61.1881 26.136 61.5401 26.648 61.9241 27.416C62.1161 27.736 62.0841 28.024 61.8281 28.28C61.7641 28.344 61.7641 28.568 61.8281 28.952C62.0201 29.4 62.1161 29.688 62.1161 29.816L61.8281 30.872L61.9241 31.352C61.9241 31.352 61.8601 31.512 61.7321 31.832C61.6041 32.152 61.4121 32.664 61.1561 33.368L60.6761 34.328V34.712L60.8681 34.904L62.4041 33.368C62.6601 33.368 63.0121 33.24 63.4601 32.984C63.5241 32.856 63.5881 32.728 63.6521 32.6C63.7161 32.408 63.7481 32.28 63.7481 32.216C64.2601 32.472 64.6121 32.6 64.8041 32.6H65.0921C65.1561 32.536 65.2521 32.504 65.3801 32.504C65.7641 32.504 66.1481 32.824 66.5321 33.464C66.6601 33.72 66.9481 34.104 67.3961 34.616L67.1081 35.192C67.1081 35.448 67.3001 35.672 67.6841 35.864V36.44C67.6841 36.632 67.6841 36.824 67.6841 37.016C67.6841 37.208 67.6521 37.4 67.5881 37.592L68.2601 38.744C68.2601 38.872 68.2281 39 68.1641 39.128C68.1641 39.576 68.4521 40.248 69.0281 41.144V41.336C69.0281 41.976 69.4761 42.488 70.3721 42.872L71.0441 43.736C71.1081 43.736 71.3641 43.608 71.8121 43.352C72.2601 43.032 72.5161 42.872 72.5801 42.872C72.5801 42.872 72.6761 42.936 72.8681 43.064C72.9321 42.936 73.4761 42.552 74.5001 41.912C74.5641 41.848 74.6601 41.816 74.7881 41.816C74.9161 41.816 75.0441 41.784 75.1721 41.72C75.1081 41.784 75.0441 41.88 74.9801 42.008C74.9801 42.072 74.9161 42.2 74.7881 42.392C74.5321 42.52 74.1801 42.712 73.7321 42.968C73.3481 43.16 72.9001 43.384 72.3881 43.64C72.0041 44.024 71.4281 44.536 70.6601 45.176C69.8921 45.816 69.0281 46.072 68.0681 45.944C67.9401 45.816 67.7801 45.72 67.5881 45.656C67.4601 45.528 67.2681 45.432 67.0121 45.368L66.7241 44.984C66.2121 44.792 65.7641 44.344 65.3801 43.64C65.0601 42.872 64.7401 42.136 64.4201 41.432L63.9401 39.416V38.936C63.9401 38.872 63.8761 38.744 63.7481 38.552C63.6841 38.36 63.5561 37.72 63.3641 36.632C63.1081 35.992 62.8201 35.672 62.5001 35.672C62.4361 35.608 62.3401 35.64 62.2121 35.768C62.0841 35.896 61.9881 35.96 61.9241 35.96C61.7961 35.832 61.7321 35.768 61.7321 35.768C61.7321 35.192 60.6441 36.152 58.4681 38.648C58.3401 38.776 58.1161 38.936 57.7961 39.128C57.4761 39.32 57.0921 39.576 56.6441 39.896V40.184C56.6441 40.888 56.2281 41.464 55.3961 41.912L54.9161 41.528C54.9161 41.336 54.9481 41.048 55.0121 40.664C55.0761 40.216 55.1081 39.896 55.1081 39.704H55.3001C55.3001 39.768 55.3321 39.8 55.3961 39.8L55.6841 38.168C56.1961 37.848 56.3881 37.336 56.2601 36.632C56.5161 36.376 56.6761 36.12 56.7401 35.864C56.8681 35.544 57.0281 35.096 57.2201 34.52C57.2201 34.456 57.1881 34.392 57.1241 34.328C57.1241 34.264 57.1241 34.2 57.1241 34.136C57.1241 33.752 57.1881 33.336 57.3161 32.888C57.4441 32.376 57.6041 31.864 57.7961 31.352V30.008L57.4121 29.72V29.048L57.1241 28.856C56.8681 29.048 56.5481 29.272 56.1641 29.528C55.7801 29.72 55.3001 29.944 54.7241 30.2C54.4681 30.392 54.3721 30.488 54.4361 30.488H54.3401C54.3401 30.424 54.3081 30.392 54.2441 30.392C54.1161 30.392 53.7001 30.872 52.9961 31.832C52.7401 32.088 52.3881 32.44 51.9401 32.888C51.5561 33.272 51.1081 33.784 50.5961 34.424L50.1161 34.712L47.6201 37.592C47.4921 37.848 47.4281 38.04 47.4281 38.168C47.2361 38.36 47.0761 38.456 46.9481 38.456L46.2761 39.512C46.1481 39.64 46.0521 39.736 45.9881 39.8C45.9241 39.864 45.8921 40.056 45.8921 40.376C45.3801 40.696 44.9001 41.304 44.4521 42.2C44.4521 42.584 44.4201 42.904 44.3561 43.16C44.1001 43.608 43.9081 44.152 43.7801 44.792C43.6521 45.432 43.5241 46.168 43.3961 47C43.0121 47.32 42.5641 47.832 42.0521 48.536C41.7321 48.664 41.4121 48.92 41.0921 49.304C40.9641 49.368 40.8361 49.4 40.7081 49.4C40.6441 49.4 40.6121 49.4 40.6121 49.4Z" fill="white"/>
<path fill-rule="evenodd" clip-rule="evenodd" d="M82.9757 45.4824C82.6439 44.9813 81.9446 44.8983 81.4953 44.5472C81.2586 44.3546 81.0082 44.2271 80.8243 43.9678C81.1171 43.6026 80.7549 42.7465 80.6804 42.2521C80.3851 40.9578 80.112 39.6428 79.7607 38.35C80.3694 38.5511 80.2108 37.3468 80.1239 37.0684C80.1179 37.0301 80.0732 37.0225 80.0458 37.0104C80.0535 36.9557 80.0746 36.9437 80.0106 36.9286C79.9893 36.601 80.0766 36.2341 79.9187 35.9446C79.7408 35.6287 79.3155 35.3643 78.9642 35.36C78.7173 34.3195 78.6721 33.8288 77.5026 34.2698C77.5285 34.1685 77.5366 34.0755 77.4915 33.9731C77.3156 33.4091 77.0946 32.7921 76.9025 32.2205C76.681 31.5627 76.4519 30.8826 76.1557 30.2506C75.9494 29.8493 75.304 29.742 74.8665 29.8084C74.7621 29.613 74.499 29.0724 74.1663 29.1974C74.1638 29.0343 74.1614 28.8713 74.1594 28.7082C74.1577 28.5665 74.1717 28.4212 74.1204 28.2866C74.066 28.1441 73.9552 28.0688 73.8252 28.0143C73.4315 27.8762 72.9792 27.6545 72.5637 27.7917C72.2007 27.9675 72.243 28.6287 72.0673 28.9881C71.8212 28.6007 71.4014 28.8605 71.3126 29.276C70.3013 29.7038 69.4321 29.2178 69.3674 30.8973C69.4232 31.2035 69.4706 31.4906 69.4441 31.7998L69.4135 31.8031C69.1547 33.2913 69.0552 34.8865 69.1178 36.5448C69.1052 37.1978 68.881 37.8072 68.6643 38.3965C68.5048 38.8297 68.3401 39.2777 68.2621 39.7374C68.1755 40.1202 67.8574 41.9613 68.5648 41.3501C68.592 43.4445 70.3504 43.7127 71.9338 43.25C73.6148 42.8791 75.5072 42.9858 76.5563 41.1913C76.9123 41.8378 77.035 42.2369 77.1244 42.9129C77.2224 43.4081 77.3648 43.9705 77.6265 44.2981C77.4012 44.7286 77.2908 45.253 77.3017 45.5949C77.3059 45.7291 77.2481 45.7913 77.3312 45.8748C77.7301 46.2751 78.62 46.2796 79.2967 46.4579C79.7607 46.5205 81.4385 46.7603 81.6949 46.604C81.8737 46.6571 81.6658 46.1632 81.8446 46.1526C81.9057 46.1531 81.9139 46.0704 81.9767 46.0734C82.3778 46.0928 83.2425 46.218 83.0334 45.8748L82.9757 45.4824Z" fill="white"/>
<path fill-rule="evenodd" clip-rule="evenodd" d="M82.8761 45.9675C82.5804 46.0353 82.2763 46.0164 81.9767 46.0429C81.9864 46.0163 81.9945 45.989 82.0009 45.9613C82.3105 45.9215 82.6351 45.9026 82.9302 45.794C82.9372 45.8294 82.9424 45.8651 82.9445 45.9011C82.9448 45.906 82.9442 45.9599 82.9514 45.95C82.9424 45.9623 82.8895 45.9648 82.8761 45.9675ZM81.3823 45.1529C80.8441 44.965 80.2735 44.8036 79.8587 44.3676C79.8595 44.3652 79.8603 44.3628 79.8611 44.3603C79.9464 44.3347 80.0403 44.2799 80.1225 44.3395C80.3856 44.3298 80.6604 44.2319 80.8447 44.025C80.8573 44.0278 80.8695 44.0318 80.8813 44.0368C81.2359 44.6772 81.9913 44.7992 82.5445 45.1702C82.7688 45.3088 83.1865 45.6821 82.6521 45.6904C82.4412 45.7244 82.229 45.7495 82.0163 45.7669C81.9999 45.4063 81.6635 45.2483 81.3823 45.1529ZM81.7584 46.0765C81.6514 46.2315 81.4582 46.2927 81.2835 46.2775C81.1549 46.259 81.0415 46.211 80.9078 46.2213C79.8942 46.1804 78.8975 45.9575 77.9091 45.7299C77.0238 45.5536 77.7002 44.8596 77.6265 44.2982C77.7514 44.3791 77.8931 44.4382 78.0389 44.4815C78.2268 45.0367 78.7403 44.8917 79.1039 44.6257C79.2442 44.6209 79.415 44.6438 79.5297 44.5448C79.5364 44.5507 79.5435 44.5556 79.5508 44.5598C79.6418 44.5029 79.7251 44.4433 79.8206 44.3994C80.1433 44.9786 80.8288 45.1109 81.3788 45.3345C81.7153 45.4308 81.9908 45.7069 81.7584 46.0765ZM81.7401 46.5728C81.4556 46.6631 81.1546 46.6474 80.8611 46.622C79.897 46.5333 78.9392 46.3588 78.0039 46.0948C77.782 46.0322 77.3517 45.9594 77.3312 45.6638C77.5287 45.9388 77.8812 45.9712 78.1774 46.0421C79.1495 46.2444 80.1452 46.5057 81.1393 46.4553C81.3493 46.5188 81.5782 46.4687 81.7558 46.3452C81.7502 46.421 81.745 46.4969 81.7401 46.5728ZM76.4834 36.9156C76.6274 36.51 76.7836 36.1099 76.9346 35.7068C77.2148 35.8736 77.5312 35.9345 77.8542 35.9734C77.8618 35.9775 77.8699 35.981 77.8786 35.9839C77.8939 35.9872 77.9068 35.9857 77.9171 35.9807C78.3479 36.0291 78.7873 36.0481 79.1662 36.2351C79.3129 36.3075 79.4505 36.405 79.575 36.5393C79.7113 36.6778 79.821 36.8451 79.8947 37.0297C79.9177 37.0866 79.9299 37.1458 79.9663 37.1927C79.9772 37.2557 79.9896 37.3182 79.998 37.3818C80.0192 37.6303 80.0482 37.8921 79.9579 38.1305C79.9019 38.2765 79.7871 38.1591 79.7109 38.1019C79.5871 38.0101 79.4731 37.9048 79.3594 37.7994C79.0102 37.4508 78.6021 37.1544 78.1122 37.1054C77.5834 37.0273 77.0104 36.9298 76.4834 36.9156ZM76.2715 36.9164C76.2424 36.9952 76.2139 37.0742 76.1859 37.1533C76.0469 37.128 75.7511 37.0685 75.6301 37.0006C75.6732 37.0022 75.7159 36.9783 75.7269 36.9236C75.7317 36.8994 75.7393 36.8768 75.7452 36.8532C75.8182 36.6006 75.8805 36.343 75.9835 36.1008C76.0844 35.8452 76.2043 35.5968 76.296 35.3374C76.4513 35.3269 76.6968 35.5317 76.8078 35.6152C76.6098 36.039 76.434 36.4738 76.2721 36.9145C76.2691 36.9145 76.266 36.9145 76.263 36.9146C76.2658 36.9152 76.2687 36.9158 76.2715 36.9164ZM75.3561 36.8865C74.5591 36.8336 73.7513 36.8893 72.9635 36.7393C72.8141 36.7124 72.675 36.6637 72.5457 36.5974C72.1697 36.4045 71.8775 36.0621 71.6623 35.67C70.885 34.4274 70.0296 33.1931 69.647 31.7372C69.4203 31.0326 69.3761 29.9793 70.1686 29.6761C70.52 29.5368 70.9445 29.5454 71.2469 29.2927C71.2127 29.4263 71.1935 29.566 71.1759 29.6898C71.1461 29.8915 71.1168 30.1003 71.141 30.3044C71.1412 30.3061 71.1414 30.3079 71.1417 30.3096C71.1021 30.4244 71.2269 30.5328 71.3494 30.5216C71.6079 30.5153 71.7346 30.1855 71.9936 30.1754C72.0882 30.1717 72.1447 30.2316 72.2026 30.3029C72.3427 30.4758 72.48 30.6519 72.6494 30.7936C72.6615 30.8036 72.6775 30.7914 72.6707 30.776C72.5852 30.5821 72.4653 30.4103 72.3463 30.2379C72.0997 29.8198 71.7679 30.0122 71.4873 30.2664C71.4326 30.3085 71.3771 30.3427 71.3208 30.3277C71.3245 30.3134 71.3255 30.2968 71.3232 30.2783C71.3023 30.1146 71.3227 29.942 71.344 29.7796C71.3925 29.4765 71.3781 29.0812 71.6534 28.8977C71.7735 28.8256 71.9189 28.8164 72.0358 28.8983C72.0143 28.9542 71.9887 29.017 71.985 29.0761C71.9616 29.0586 71.9457 29.064 71.9414 29.1021C72.0325 29.3873 72.1817 29.6493 72.3082 29.9182C72.407 30.12 72.5064 30.3216 72.6078 30.5219C72.6377 30.584 72.663 30.6497 72.7214 30.6841C72.7215 30.6847 72.7216 30.6853 72.7217 30.6859C72.7612 30.824 72.7612 30.9726 72.7916 31.1131C72.8102 31.199 72.8317 31.2854 72.8546 31.3713C72.8763 31.4518 72.8992 31.532 72.9225 31.6109C73.1992 32.6288 73.4614 33.6515 73.7312 34.6717C73.4117 34.4963 73.2498 34.1686 73.1035 33.8336C72.7179 32.9703 72.3139 32.0281 71.8823 31.2316C72.2837 32.1371 72.8344 34.2582 73.5201 34.7855C73.6247 34.8591 73.7387 34.9145 73.8578 34.9584C73.9075 35.0062 73.9596 35.0165 73.9946 35.0038C74.2101 35.068 74.4358 35.1049 74.6476 35.152C75.0149 35.2338 75.3824 35.3151 75.7499 35.396C75.8742 35.4233 75.9991 35.4598 76.1261 35.4662C76.1324 35.4666 76.1386 35.4663 76.1443 35.4655C75.8645 35.8069 75.6761 36.273 75.5685 36.7099C75.4808 36.6831 75.3815 36.7823 75.3561 36.8865ZM72.2015 36.9241C71.5798 37.9143 70.6056 38.5285 69.8034 39.3278C69.3227 39.8653 68.9394 40.4894 68.501 41.0645C68.4875 41.0823 68.4738 41.1001 68.4602 41.1177C68.4264 41.1619 68.3795 41.2104 68.3523 41.2532C68.3515 41.2545 68.3508 41.2557 68.3501 41.2566C68.2866 41.1158 68.3213 40.9358 68.319 40.7753C68.3287 40.5003 68.3626 40.2277 68.4135 39.9582C68.5796 38.8761 69.1515 37.913 69.2759 36.8247C69.2717 35.6673 69.2175 34.5065 69.3094 33.3495C69.3429 32.8213 69.3781 32.293 69.428 31.7662C69.7723 33.1238 70.7777 34.5884 71.3484 35.526C71.5787 35.8844 71.7848 36.2753 72.1091 36.5495C72.1875 36.6152 72.2702 36.6717 72.3563 36.7203C72.298 36.7816 72.2482 36.8515 72.2015 36.9241ZM74.2376 31.6293C74.3232 31.6054 74.5122 31.5816 74.6105 31.513C74.6613 31.698 74.7163 31.8816 74.7743 32.0641C74.6335 32.0199 74.4811 32.0406 74.3361 32.0574C74.1471 32.0793 73.9584 32.1032 73.7697 32.1281C73.597 32.1509 73.4243 32.1747 73.2516 32.199C73.1901 31.9647 73.1281 31.7305 73.0651 31.4965C73.4251 31.6736 73.8522 31.6983 74.2376 31.6293ZM74.4335 29.8663C74.4332 29.8507 74.4298 29.8345 74.4221 29.8178C74.421 29.8154 74.42 29.813 74.4189 29.8106C74.3895 29.6992 74.3597 29.588 74.3293 29.4768C74.3247 29.4581 74.2967 29.4618 74.2973 29.4815C74.2971 29.4952 74.297 29.5089 74.2968 29.5226C74.2948 29.5169 74.2929 29.5112 74.291 29.5054C74.2534 29.3895 74.2257 29.2702 74.2075 29.1489C74.5301 29.2195 74.7958 29.9669 74.946 30.5012C74.8226 30.4603 74.6607 30.4511 74.6127 30.5596C74.5533 30.3284 74.4942 30.0971 74.4335 29.8663ZM73.933 34.2916C74.0134 34.286 74.0939 34.2807 74.1742 34.2748C74.3387 34.2627 74.5032 34.25 74.6676 34.2377C74.7071 34.2347 74.7465 34.2317 74.786 34.2286C74.8977 34.222 75.0094 34.2155 75.1211 34.2092C75.2446 34.2022 75.3695 34.1903 75.4939 34.1854C75.5174 34.1849 75.5408 34.1845 75.5642 34.1842C75.5688 34.1942 75.5736 34.204 75.5788 34.2133C75.4148 34.2614 75.265 34.3172 75.1449 34.3734C74.8722 34.5002 74.6099 34.6671 74.3859 34.877C74.3445 34.8679 74.303 34.8586 74.2615 34.8492C74.1477 34.8231 74.0325 34.7953 73.9215 34.7555C73.8931 34.6816 73.8838 34.5948 73.8597 34.5219C73.8405 34.449 73.8214 34.3759 73.8022 34.3029C73.846 34.3022 73.8907 34.2945 73.933 34.2916ZM73.6616 33.6946C73.6631 33.6945 73.6645 33.6943 73.666 33.6941C73.6662 33.6941 73.6664 33.6941 73.6666 33.6941C73.6845 33.6935 73.7025 33.6927 73.7204 33.6919C73.7563 33.6901 73.7921 33.6878 73.828 33.6851C73.8997 33.6797 73.9713 33.6724 74.0428 33.6642C74.186 33.6476 74.3288 33.6268 74.4717 33.6075C74.5559 33.5961 74.6398 33.5863 74.7237 33.578C74.9197 33.5642 75.1164 33.5536 75.3122 33.5506C75.3749 33.709 75.4385 33.8669 75.5026 34.0244C75.5087 34.0391 75.5146 34.0551 75.5205 34.0717C75.2327 34.0659 74.9435 34.0949 74.6567 34.1131C74.4959 34.1233 74.335 34.1332 74.1742 34.1437C74.0938 34.149 74.0134 34.1548 73.933 34.1604C73.8793 34.1641 73.8217 34.1616 73.768 34.1724C73.7566 34.1291 73.7453 34.0858 73.7339 34.0425C73.7041 33.9302 73.6747 33.8179 73.6452 33.7056C73.651 33.7027 73.6565 33.699 73.6616 33.6946ZM73.4166 32.8305C73.3705 32.6533 73.3243 32.4762 73.2779 32.2991C73.2866 32.2978 73.2953 32.2965 73.304 32.2952C73.3366 32.2905 73.3692 32.2857 73.4018 32.281C73.4737 32.2706 73.5455 32.2604 73.6174 32.2503C73.6731 32.2425 73.7288 32.2348 73.7845 32.2271C73.846 32.2216 73.9076 32.2163 73.9692 32.2115C74.2476 32.1897 74.5282 32.1695 74.8075 32.1678C74.8662 32.3482 74.9279 32.5274 74.992 32.7058C74.7544 32.7211 74.5171 32.7415 74.2798 32.7617C74.1433 32.7733 74.0069 32.7854 73.8705 32.7979C73.8041 32.804 73.7378 32.8102 73.6714 32.8165C73.6346 32.82 73.5977 32.8235 73.5609 32.8271C73.5396 32.8291 73.5118 32.8368 73.4879 32.8369C73.4848 32.8343 73.4815 32.8318 73.4781 32.8293C73.4606 32.8165 73.4349 32.8188 73.4166 32.8305ZM73.4722 32.98C73.6289 32.9598 73.7852 32.9379 73.9418 32.9177C74.0286 32.9088 74.1155 32.8999 74.2024 32.8913C74.4784 32.864 74.7548 32.8403 75.0309 32.8133C75.1058 33.0187 75.1836 33.2229 75.2632 33.4263C74.9251 33.4026 74.5809 33.4629 74.2466 33.5046C74.0682 33.5269 73.8893 33.5469 73.7096 33.554C73.6812 33.5552 73.6414 33.5536 73.6073 33.5616C73.5609 33.3844 73.5147 33.2071 73.4685 33.0297C73.4692 33.0132 73.4704 32.9967 73.4722 32.98ZM76.2477 35.3495C76.2358 35.3615 76.2242 35.3738 76.2127 35.3865C76.2129 35.3825 76.213 35.3785 76.2129 35.3745C76.2131 35.3744 76.2134 35.3743 76.2135 35.3741C76.2237 35.3635 76.2352 35.3553 76.2477 35.3495ZM76.0385 30.2748C76.3861 31.1695 76.6862 32.0894 77.0117 32.995C77.1161 33.3025 77.219 33.6106 77.3162 33.9208C77.3531 34.0232 77.3666 34.1383 77.4424 34.2189C77.4455 34.2222 77.449 34.2253 77.4527 34.2279C77.3509 34.2732 77.2589 34.3237 77.1848 34.3747C77.2189 34.4973 77.26 34.6176 77.3092 34.7338C77.3267 34.7752 77.2689 34.8114 77.2512 34.7697C77.1888 34.6221 77.1384 34.4685 77.0989 34.3119C77.0497 34.2416 76.9928 34.1784 76.9191 34.139C76.7768 34.0841 76.5973 34.0651 76.4039 34.0713C76.4008 34.0654 76.3967 34.0597 76.3917 34.0543C76.3276 33.9888 76.3022 33.8847 76.2704 33.798C76.1777 33.545 76.0989 33.286 76.0342 33.0232C75.9705 32.7631 75.931 32.4968 75.8648 32.2372C75.8514 32.1918 75.8097 31.9723 75.7708 31.9844C75.7716 31.9894 75.7723 31.9943 75.7729 31.9993C75.7709 31.9978 75.7687 31.9973 75.7665 31.9974C75.7508 32.5343 75.883 33.0751 76.0345 33.5853C76.0764 33.7553 76.1717 33.9143 76.2022 34.0859C76.0695 34.1005 75.9342 34.1244 75.8031 34.1547C75.8012 34.1434 75.7985 34.1323 75.7954 34.121C75.7936 34.1053 75.7891 34.093 75.7827 34.0836C75.7661 34.0407 75.7442 33.9988 75.728 33.9601C75.6947 33.8802 75.6616 33.8002 75.6288 33.7199C75.4505 33.2808 75.2818 32.8369 75.1329 32.3854C74.9492 31.8379 74.7991 31.2799 74.6542 30.7204C74.7512 30.7755 74.9378 30.6653 75.0522 30.9172C75.0769 30.9806 75.1317 31.0259 75.1998 31.0061C75.2595 30.9887 75.3047 30.9148 75.2837 30.8494C75.2806 30.8388 75.2774 30.8282 75.2737 30.8179C75.1623 30.4671 75.0721 30.1071 74.9113 29.7769C75.3239 29.8212 75.8119 29.8526 76.0385 30.2748ZM79.8816 36.1383C79.9173 36.3173 79.8944 36.5056 79.8848 36.6878C79.7217 36.4578 79.515 36.2615 79.2732 36.1307C79.2571 36.0157 79.1888 35.9154 79.1573 35.8037C79.099 35.646 79.0519 35.4849 79.0094 35.3223C79.4037 35.4095 79.7874 35.7134 79.8816 36.1383ZM78.4522 37.5095C78.5861 38.2761 78.7987 39.0235 78.9544 39.7849C78.9636 39.8296 78.8989 39.8485 78.8897 39.8038C78.734 39.0424 78.5214 38.2951 78.3875 37.5285C78.3797 37.4836 78.4443 37.4646 78.4522 37.5095ZM78.3835 44.5574C78.4903 44.5733 78.5969 44.5872 78.7044 44.5993C78.4905 44.6943 78.2909 44.671 78.1169 44.5032C78.206 44.5262 78.2958 44.5438 78.3835 44.5574ZM83.0978 45.687C83.0918 45.6566 83.0759 45.6369 83.056 45.6262C83.059 44.9882 81.7954 44.7808 81.4125 44.3746C81.2373 44.2432 81.1098 44.0261 80.9064 43.9447C81.0215 43.7557 80.9906 43.5124 80.965 43.3C80.9092 42.9124 80.7688 42.4793 80.7321 42.2397C80.4551 41.0082 80.1865 39.7738 79.873 38.5521C79.8667 38.5287 79.8548 38.4825 79.8399 38.4314C79.8737 38.44 79.906 38.4429 79.9363 38.4387C80.3759 38.3353 80.2772 37.3915 80.174 37.0495C80.1629 37.0092 80.1371 36.9837 80.1068 36.9717C80.1107 36.9508 80.1071 36.9286 80.0931 36.9074C80.0856 36.896 80.0741 36.8878 80.0616 36.8837C80.0483 36.5591 80.1246 36.2102 79.9637 35.9137C79.7828 35.5893 79.3513 35.321 79.0041 35.3021C78.9544 35.1109 78.9108 34.9178 78.8627 34.7262C78.81 34.5256 78.7348 34.3101 78.5769 34.1756C78.3726 33.9827 77.9364 34.0415 77.5745 34.1778C77.5943 34.0773 77.5493 33.9865 77.5217 33.8923C77.4317 33.6104 77.339 33.3295 77.2444 33.0495C76.905 32.1052 76.6262 31.1264 76.2015 30.2211C76.0257 29.9142 75.6875 29.7759 75.3629 29.7474C75.2107 29.7312 75.0487 29.7249 74.895 29.744C74.8901 29.734 74.885 29.7242 74.8799 29.7143C74.7539 29.4826 74.4983 29.0513 74.2041 29.1253C74.173 28.9051 74.1725 28.6793 74.1981 28.4589C74.1999 28.4432 74.1758 28.4365 74.1697 28.4507C73.9748 28.9148 74.011 29.4858 74.2489 29.9252C74.2663 29.9557 74.29 29.9715 74.3146 29.976C74.3525 30.4373 74.4472 30.8926 74.564 31.3395C74.5465 31.3402 74.5296 31.3441 74.5155 31.3507C74.1428 31.4956 73.733 31.5192 73.3451 31.4346C73.2359 31.4102 73.1301 31.3773 73.0238 31.3439C73.0037 31.2698 72.9836 31.1961 72.9634 31.1222C72.9126 30.8887 72.8997 30.6644 72.7709 30.4764C72.7633 30.4625 72.7555 30.4487 72.748 30.435C72.6446 30.2359 72.5395 30.0379 72.4336 29.8404C72.4079 29.808 72.236 29.4485 72.1022 29.231C72.119 29.2306 72.1363 29.2261 72.1532 29.217C72.2475 29.1671 72.2465 29.0223 72.2637 28.9251C72.3165 28.6232 72.3775 28.3208 72.3943 28.0137C72.3952 27.998 72.3726 27.9914 72.366 28.0056C72.2373 28.2763 72.1481 28.566 72.0529 28.8513C72.051 28.857 72.049 28.8628 72.0469 28.8688C71.9586 28.7506 71.8035 28.7225 71.6685 28.7543C71.4428 28.8168 71.329 29.0115 71.2634 29.2328C70.6145 29.5615 69.8423 29.2258 69.4485 30.0955C69.2711 30.5499 69.2744 31.0652 69.3893 31.6015C69.0901 33.2273 68.9964 34.8904 69.0587 36.5446C69.0365 37.6636 68.3898 38.6344 68.2044 39.7234C68.112 40.1526 68.054 40.5926 68.0611 41.0335C68.0469 41.2665 68.1437 41.6105 68.425 41.5199C68.4571 41.5077 68.4861 41.4889 68.5129 41.4663C68.6304 43.3529 70.0005 43.7178 71.5795 43.3928C71.6434 43.394 71.7063 43.3784 71.7734 43.3583C71.8061 43.348 71.8385 43.3372 71.8709 43.3258C71.8953 43.3197 71.9198 43.3134 71.9442 43.3068C71.9624 43.3029 71.9806 43.2992 71.9987 43.2954C72.449 42.9795 72.9166 42.6917 73.3614 42.3669C73.3928 42.344 73.4312 42.3972 73.4021 42.4228C73.1049 42.6836 72.814 42.9558 72.5049 43.2009C73.3857 43.0523 74.2821 43.0776 75.1046 42.6925C75.6817 42.4245 76.2249 41.8875 76.552 41.3081C76.5569 41.3173 76.5617 41.3266 76.5666 41.3358C76.5507 41.2879 76.5348 41.2399 76.5191 41.1919C76.2403 40.3398 75.988 39.4777 75.6833 38.6354C75.6677 38.5925 75.7326 38.5741 75.7479 38.6165C75.8334 38.8526 75.9148 39.0904 75.9938 39.3291C76.2763 40.1834 76.5288 41.0488 76.8296 41.8962C76.8314 41.9011 76.8319 41.9056 76.8318 41.9098C76.8946 42.0742 76.946 42.2418 76.9816 42.4135C77.0186 42.5932 77.0726 42.977 77.126 43.3C77.1728 43.5663 77.2068 43.8753 77.3812 44.0798C77.3809 44.0802 77.3808 44.0806 77.3805 44.0811H77.3806C77.3744 44.0938 77.3685 44.1064 77.3628 44.1189C77.3751 44.132 77.3908 44.1405 77.4053 44.1503C77.4076 44.1391 77.4098 44.128 77.4122 44.1166C77.4546 44.1643 77.5017 44.2072 77.5522 44.246C77.4952 44.6933 77.0706 45.1267 77.2905 45.595C77.1857 45.851 77.4429 46.0593 77.6546 46.1121C77.9791 46.2222 78.314 46.305 78.6464 46.3837C79.3043 46.5138 81.3637 46.9951 81.8566 46.6205C81.8496 46.5405 81.9422 46.2807 81.8329 46.2769C81.8814 46.2261 81.9215 46.1668 81.952 46.1023C82.2537 46.2065 82.589 46.1692 82.8961 46.1307C83.1446 46.1364 83.1354 45.8796 83.0978 45.687Z" fill="black"/>
<path fill-rule="evenodd" clip-rule="evenodd" d="M72.4042 23.8288C74.0607 23.7424 75.1847 25.1289 75.233 25.6819C75.2666 26.0657 75.2438 26.5775 75.2438 26.9205C75.2438 27.0956 75.327 27.6277 75.233 27.8829C75.0238 28.4508 74.7873 28.8956 74.1323 28.8956C73.4772 28.8956 72.4786 28.5353 72.1357 28.0705C72.0731 27.9857 71.2952 27.3645 71.2952 26.8762C71.2952 25.8345 71.2222 23.8905 72.4042 23.8288Z" fill="white"/>
<path fill-rule="evenodd" clip-rule="evenodd" d="M71.2741 22.7037C71.3686 22.6724 71.4288 22.7175 71.4718 22.7874C71.4813 22.7854 71.4904 22.7855 71.5006 22.7881C71.5032 22.7888 71.5093 22.7912 71.5139 22.7932C71.5175 22.7947 71.5207 22.7967 71.5238 22.7987L71.5256 22.7977C71.5327 22.7895 71.5402 22.782 71.5482 22.776C71.5663 22.7624 71.5849 22.7585 71.6025 22.7613L71.6107 22.7581C71.6806 22.7322 71.7563 22.7442 71.8037 22.8081C71.8129 22.8204 71.8203 22.8342 71.8266 22.8487C71.8408 22.8536 71.8541 22.8608 71.8656 22.8696C71.8737 22.8656 71.8822 22.8622 71.8914 22.8597C71.9429 22.8456 71.9971 22.8589 72.0391 22.8924C72.0595 22.9087 72.0746 22.9292 72.086 22.9525C72.099 22.9558 72.1118 22.9616 72.1239 22.9694C72.1342 22.9639 72.1447 22.9588 72.1555 22.9553C72.1948 22.9425 72.237 22.9377 72.278 22.941C72.3663 22.9479 72.4516 23.0549 72.3926 23.1468L72.3908 23.1496C72.3833 23.1607 72.3768 23.1721 72.3708 23.1838C72.3919 23.1935 72.4123 23.2066 72.4311 23.2229C72.523 23.3029 72.5313 23.4262 72.5141 23.5425L72.5134 23.5474H72.5136C72.5624 23.5523 72.6046 23.6065 72.5757 23.6574L72.5743 23.6598C72.5353 23.7239 72.5018 23.7946 72.4645 23.862C72.3612 23.9016 72.2616 23.9502 72.1678 24.0092C72.1094 24.0635 72.0538 24.1209 72.0048 24.1848C71.9804 24.2167 71.958 24.2505 71.9373 24.2855C71.9538 24.2939 71.9742 24.2935 71.9914 24.2766C72.1447 24.1259 72.3298 24.0201 72.5269 23.9492C72.5411 23.9441 72.5504 23.9345 72.5556 23.9231C72.6431 23.8966 72.7321 23.8761 72.8221 23.8616C72.8468 23.8365 72.8728 23.8126 72.8975 23.7876C72.929 23.7557 72.9685 23.7562 72.9979 23.7762C73.0126 23.7691 73.0276 23.7629 73.0428 23.7572L73.0522 23.7538C73.0561 23.7525 73.0599 23.7509 73.0638 23.7496C73.1693 23.7154 73.2658 23.7281 73.3696 23.7562L73.3829 23.7599C73.4312 23.7735 73.4617 23.7713 73.5085 23.7588L73.5138 23.7574C73.5636 23.7436 73.6168 23.7334 73.6677 23.7479C73.721 23.7631 73.7563 23.7969 73.7926 23.8377L73.7962 23.8418C73.8131 23.861 73.8229 23.8631 73.845 23.8626L73.8688 23.8619C73.9583 23.8593 74.046 23.8633 74.1131 23.9368C74.1379 23.964 74.1645 24.0025 74.1805 24.0376L74.1828 24.0428C74.1835 24.0445 74.1842 24.0459 74.1848 24.0472C74.1944 24.0456 74.2094 24.0391 74.2165 24.0376C74.3141 24.0175 74.3955 24.0485 74.4582 24.1301C74.4719 24.148 74.4926 24.1831 74.507 24.2024C74.512 24.2069 74.5168 24.2117 74.5212 24.2168C74.5448 24.2328 74.5781 24.2318 74.6045 24.2374C74.6764 24.2526 74.7533 24.2816 74.7898 24.3542C74.8051 24.3845 74.8107 24.4177 74.8172 24.4508C74.8414 24.4677 74.8603 24.492 74.875 24.5182C74.8929 24.5502 74.9005 24.5893 74.9211 24.6194C74.936 24.6413 74.9589 24.653 74.9806 24.6664L74.9889 24.6716C75.0534 24.7123 75.1038 24.7575 75.125 24.8372L75.1268 24.8443C75.1303 24.8566 75.1424 24.8914 75.1318 24.8862C75.1409 24.8915 75.1563 24.8934 75.1645 24.8963C75.2092 24.912 75.2481 24.9373 75.2719 24.9819C75.29 25.0157 75.2933 25.0511 75.2985 25.0884L75.3007 25.1035C75.3012 25.1072 75.3019 25.1114 75.3026 25.1155L75.3033 25.1196L75.3034 25.1197C75.3115 25.1234 75.3195 25.1274 75.3273 25.1317C75.3643 25.1549 75.3897 25.1951 75.3897 25.2416C75.3897 25.2641 75.383 25.2817 75.3734 25.2974C75.3812 25.31 75.3872 25.3234 75.3918 25.3383C75.4008 25.3675 75.4014 25.3993 75.3984 25.4295C75.3948 25.4657 75.386 25.4986 75.3757 25.5332C75.3717 25.5466 75.3701 25.5652 75.3642 25.5779C75.3752 25.5929 75.3818 25.6111 75.3797 25.6291C75.3768 25.6549 75.3657 25.685 75.3438 25.6994C75.333 25.7557 75.3099 25.8132 75.2871 25.8592C75.2845 25.8645 75.2813 25.8692 75.2778 25.8732C75.281 26.0568 75.2683 26.2417 75.2674 26.4251C75.2665 26.6248 75.2704 26.8245 75.277 27.0239C75.288 27.3544 75.3274 27.6961 75.2355 28.0184C75.1603 28.2822 75.0097 28.5086 74.8078 28.6803C74.601 28.8559 74.3517 28.9575 74.087 28.9734C73.9524 28.9814 73.8154 28.9652 73.6852 28.9282L73.6712 28.9242C73.5452 28.8874 73.3992 28.8313 73.3065 28.7329C73.2575 28.681 73.307 28.5709 73.3788 28.6012C73.45 28.6312 73.5138 28.6756 73.5844 28.707C73.6474 28.7349 73.7133 28.7564 73.7799 28.7721C73.9136 28.804 74.0553 28.811 74.1912 28.7912C74.6817 28.7199 75.0638 28.2876 75.1393 27.775C75.1601 27.633 75.1597 27.4888 75.1583 27.3453L75.1568 27.1881C75.1556 27.0567 75.1551 26.9251 75.1597 26.7937C75.1655 26.6245 75.1767 26.4555 75.1918 26.2871L75.1997 26.1994C75.209 26.0969 75.2195 25.9936 75.2376 25.8924C75.2228 25.8933 75.1058 25.6808 75.0408 25.5621C75.0171 25.5421 74.9971 25.5173 74.9894 25.4853C74.9878 25.4786 74.9869 25.4718 74.9864 25.4651C74.9723 25.4415 74.9575 25.4186 74.9418 25.3964L74.9384 25.3948C74.9357 25.3935 74.9337 25.3924 74.9325 25.3917C74.8982 25.3711 74.8696 25.3399 74.85 25.3037C74.8434 25.2915 74.838 25.2787 74.8336 25.2657C74.8057 25.2366 74.7765 25.2089 74.7458 25.1829C74.7428 25.1803 74.7397 25.1779 74.7366 25.1754C74.6976 25.1599 74.6633 25.1366 74.6383 25.103C74.6278 25.0962 74.6173 25.0894 74.6067 25.0829C74.5748 25.0825 74.5427 25.0747 74.5114 25.061C74.4541 25.036 74.4084 24.9867 74.3508 24.9639C74.29 24.9397 74.2259 24.9946 74.1612 24.9847C74.1447 24.9822 74.1284 24.9768 74.1132 24.9691C74.0768 25.01 74.0381 25.0486 73.9955 25.0824C73.9337 25.1314 73.8705 25.1538 73.7988 25.176C73.7633 25.2117 73.7236 25.2464 73.6756 25.2515C73.5647 25.3456 73.446 25.425 73.3211 25.4988C73.301 25.5106 73.2811 25.516 73.2621 25.5161C73.2229 25.5422 73.1802 25.5623 73.135 25.5762C73.1209 25.5805 73.1063 25.5815 73.0919 25.5796L73.0527 25.6135C73.0254 25.637 72.9964 25.6483 72.9685 25.649C72.9516 25.6628 72.934 25.6758 72.916 25.6884C72.8966 25.7018 72.8715 25.7074 72.8463 25.7058C72.8078 25.7457 72.7578 25.7499 72.716 25.7315C72.7102 25.7351 72.7043 25.7385 72.6977 25.7418C72.6886 25.7464 72.6792 25.7502 72.6696 25.7533C72.626 25.8032 72.5621 25.8294 72.4981 25.8225C72.4503 25.8536 72.3947 25.8697 72.3404 25.8661C72.3321 25.9103 72.3252 25.9547 72.3194 25.9992L72.3188 26.0319C72.3187 26.0371 72.3187 26.0413 72.3188 26.044L72.3188 26.0451C72.3241 26.1881 72.3271 26.3312 72.3323 26.4742L72.3328 26.4855C72.3388 26.6104 72.3677 26.8383 72.1947 26.8333C72.1302 26.8315 72.0662 26.7811 72.016 26.7396L72.0089 26.7338C72.0051 26.7306 72.0011 26.7273 71.9972 26.724C71.9596 26.7189 71.9226 26.7092 71.8847 26.7077C71.8379 26.706 71.7888 26.7111 71.7432 26.7223C71.6628 26.7421 71.5849 26.781 71.5325 26.8514C71.5279 26.8576 71.5236 26.8641 71.5196 26.8706C71.5159 26.8839 71.5095 26.8962 71.5011 26.9069C71.4515 27.0253 71.4801 27.1818 71.535 27.2901C71.6003 27.4192 71.7038 27.5084 71.8338 27.5533L71.8403 27.5555C71.9292 27.585 71.9632 27.6421 72.0115 27.7214C72.0567 27.7959 72.1087 27.8653 72.1644 27.9311C72.2723 28.0586 72.4236 28.1639 72.4864 28.3252C72.499 28.3577 72.4628 28.3883 72.4347 28.38C72.3246 28.3471 72.2474 28.264 72.1674 28.1813C72.1121 28.124 72.0588 28.0644 72.0089 28.0018C71.9984 28.0069 71.9869 28.0104 71.9749 28.012C71.9219 28.0188 71.8672 28.016 71.8208 27.9857C71.7994 27.9877 71.7771 27.9798 71.7606 27.9638C71.7454 27.9489 71.7323 27.9329 71.7212 27.9159C71.7044 27.9175 71.6879 27.9179 71.6722 27.9152C71.6646 27.9144 71.6572 27.9123 71.6505 27.9088C71.638 27.9036 71.6261 27.8955 71.6152 27.883C71.5931 27.8579 71.5846 27.8223 71.5887 27.7885C71.5843 27.7875 71.58 27.7863 71.5757 27.7848C71.5463 27.7742 71.5236 27.7532 71.5091 27.7247C71.4833 27.7093 71.4599 27.6884 71.4423 27.6662C71.4208 27.6391 71.4046 27.6087 71.395 27.5751C71.3852 27.5702 71.3756 27.5646 71.3665 27.558C71.3008 27.5109 71.2633 27.4224 71.289 27.3406L71.2899 27.338C71.2912 27.3343 71.2936 27.328 71.2965 27.3209C71.2961 27.3152 71.2956 27.3094 71.2954 27.3036L71.2944 27.2862L71.2813 27.2803C71.2157 27.2526 71.1714 27.2152 71.1635 27.1369C71.1619 27.1207 71.1678 27.1042 71.1771 27.0904L71.1771 27.0861C71.1728 27.0837 71.1688 27.0813 71.1652 27.0789C71.1295 27.0547 71.1075 27.0113 71.11 26.9663C71.1122 26.9254 71.1336 26.8928 71.1576 26.8626L71.1645 26.8541C71.165 26.8534 71.1657 26.8527 71.1664 26.8518L71.1505 26.8465C71.1402 26.843 71.1307 26.8396 71.1239 26.8355C71.0977 26.8199 71.0754 26.7988 71.0617 26.772C71.0597 26.7686 71.0576 26.7654 71.0558 26.7618C71.0381 26.7275 71.0357 26.6834 71.0472 26.6466C71.0485 26.6422 71.0503 26.6381 71.0521 26.6341C71.0038 26.616 70.9666 26.5786 70.9621 26.5098C70.9603 26.4827 70.9659 26.4558 70.9781 26.4327C70.9754 26.4171 70.9748 26.401 70.9766 26.385C70.9596 26.368 70.9464 26.3475 70.9405 26.3224C70.9293 26.2751 70.9497 26.2301 70.9801 26.1888C70.9688 26.1561 70.9683 26.1193 70.9811 26.0865C70.9762 26.0701 70.9734 26.0527 70.9732 26.0349C70.9729 25.9955 70.9843 25.9625 71.0028 25.9345C70.9768 25.9008 70.9645 25.856 70.9798 25.814C70.9907 25.7842 71.0032 25.7569 71.0176 25.7316C71.01 25.7124 71.0056 25.6908 71.0056 25.6667C71.0056 25.6233 71.021 25.589 71.0444 25.5608C71.0342 25.5095 71.0549 25.4469 71.1 25.4243C71.117 25.4157 71.1398 25.4068 71.1648 25.3999C71.1742 25.3687 71.1841 25.3376 71.1944 25.3068C71.2108 25.2582 71.2284 25.2103 71.247 25.163C71.2363 25.1729 71.225 25.1822 71.2134 25.1906C71.1766 25.2403 71.1279 25.2832 71.0869 25.309C71.0057 25.36 70.9128 25.3297 70.8727 25.2444C70.835 25.2742 70.7898 25.2919 70.7415 25.2859C70.6868 25.279 70.6368 25.2414 70.6231 25.1828C70.6211 25.1743 70.6199 25.1651 70.6198 25.1559C70.5884 25.1796 70.5556 25.2014 70.5196 25.2139C70.4737 25.2298 70.4269 25.1916 70.4209 25.1441C70.4185 25.1252 70.4218 25.1085 70.4289 25.0945L70.4244 25.0926C70.4236 25.0923 70.4229 25.0919 70.4222 25.0916C70.3981 25.0796 70.3794 25.0577 70.3706 25.0324C70.3185 25.0538 70.2588 25.0287 70.2423 24.9679C70.2226 24.8957 70.2214 24.8225 70.2368 24.7521C70.1817 24.7095 70.1457 24.6379 70.1396 24.5631C70.1351 24.5094 70.1472 24.4598 70.1685 24.414C70.1163 24.3932 70.0983 24.3206 70.1231 24.2683C70.0902 24.2483 70.0687 24.2058 70.0682 24.1645C70.0535 24.1409 70.0488 24.1104 70.061 24.0762C70.0771 24.0312 70.1099 23.9936 70.1474 23.9641C70.131 23.9338 70.1189 23.9008 70.1113 23.8667C70.0802 23.8571 70.0551 23.8304 70.05 23.7903C70.0436 23.74 70.0748 23.6974 70.1168 23.6861C70.1214 23.6708 70.1271 23.6558 70.1341 23.6415C70.1134 23.5893 70.1164 23.5233 70.1432 23.4662C70.1669 23.4157 70.2055 23.3849 70.2519 23.3635C70.2401 23.3206 70.2558 23.2778 70.2951 23.2459C70.3431 23.2069 70.3958 23.1771 70.4512 23.1561C70.4462 23.0862 70.4738 23.0146 70.5388 22.9903C70.5562 22.9838 70.5743 22.9814 70.5927 22.9815C70.606 22.9506 70.6283 22.9256 70.6574 22.9034C70.7014 22.8699 70.7837 22.8903 70.8081 22.943L70.8093 22.9457C70.8105 22.9486 70.8118 22.9514 70.8131 22.9543C70.818 22.9287 70.8295 22.9046 70.848 22.8848C70.8942 22.8354 70.943 22.8344 70.9899 22.8556C70.9985 22.8329 71.009 22.8114 71.0216 22.7916C71.0677 22.7201 71.1437 22.711 71.1994 22.7498C71.2217 22.7289 71.2466 22.7129 71.2741 22.7037ZM71.6032 27.0035C71.6959 26.965 71.8083 26.9764 71.8999 27.0134L71.9066 27.0161C71.9875 27.0501 72.1189 27.1256 72.1348 27.2222C72.143 27.2722 72.0982 27.3154 72.0527 27.2891C72.0131 27.2662 71.9909 27.2202 71.9595 27.1868C71.9283 27.1537 71.8935 27.1272 71.8554 27.1038C71.7761 27.0552 71.6927 27.0363 71.6032 27.0223C71.5931 27.0208 71.5959 27.0065 71.6032 27.0035Z" fill="black"/>
<path fill-rule="evenodd" clip-rule="evenodd" d="M74.1103 28.0404C74.0368 28.0086 73.9712 27.9555 73.9233 27.8878C73.9066 27.8642 73.9023 27.8393 73.9058 27.8166C73.9098 27.791 73.924 27.7678 73.9435 27.7522C73.963 27.7366 73.9874 27.7289 74.011 27.7328C74.0315 27.7362 74.0519 27.7482 74.0681 27.7729L74.0714 27.7778C74.0999 27.8187 74.1371 27.8523 74.1794 27.8739C74.2201 27.8948 74.2657 27.9045 74.3129 27.8989C74.4028 27.8881 74.4648 27.8365 74.5306 27.7664C74.5388 27.7576 74.5469 27.7485 74.5551 27.7392C74.5603 27.7308 74.5675 27.7254 74.5755 27.7226C74.5844 27.7194 74.5944 27.7196 74.6036 27.723C74.6124 27.7263 74.6204 27.7325 74.6257 27.7408C74.6307 27.7486 74.6336 27.7584 74.6327 27.7695C74.6266 27.8421 74.5909 27.9069 74.5401 27.9578C74.4836 28.0143 74.4089 28.0534 74.3384 28.0671C74.2609 28.0822 74.1818 28.0714 74.1103 28.0404ZM74.375 26.9203C74.4576 26.9736 74.5833 27.0977 74.4945 27.2297C74.39 27.3461 74.2396 27.2127 74.1654 27.1523C74.0967 27.1055 74.0194 27.2258 74.0832 27.2805C74.619 27.7015 74.8364 26.9343 74.4168 26.8577C74.3706 26.8493 74.3534 26.9039 74.375 26.9203ZM73.4149 26.4306C73.424 26.3104 73.5964 26.2832 73.6136 26.402C73.6289 26.5085 73.6108 26.6063 73.5656 26.7022C73.5225 26.7938 73.4139 26.7511 73.4057 26.6677C73.3947 26.5559 73.4092 26.5053 73.4149 26.4306ZM74.7271 26.3774C74.7511 26.344 74.7858 26.3212 74.8274 26.3341C74.9573 26.3743 74.919 26.5701 74.8734 26.6653C74.8486 26.7171 74.7685 26.7302 74.7323 26.6846C74.6733 26.6104 74.645 26.462 74.72 26.3888C74.722 26.3851 74.7243 26.3812 74.7271 26.3774ZM73.5638 25.9049L73.5843 25.9011C73.6478 25.8894 73.7267 25.8782 73.7716 25.9324C73.7954 25.9611 73.8036 26.0145 73.7716 26.042C73.7153 26.0904 73.6531 26.0716 73.5856 26.0757C73.53 26.0791 73.4766 26.0889 73.423 26.1051C73.3055 26.1408 73.2097 26.2059 73.1094 26.2773C73.0962 26.2867 73.0828 26.2688 73.089 26.2557C73.147 26.1353 73.2592 26.0364 73.3717 25.9761C73.4317 25.9439 73.4974 25.9172 73.5638 25.9049ZM74.6087 25.851L74.6244 25.8544C74.7953 25.8923 75.0173 25.968 75.0983 26.1462C75.1013 26.1714 75.0981 26.1768 75.0954 26.1803L75.0945 26.1815C75.0924 26.1845 75.0906 26.1887 75.0803 26.1921C75.0775 26.1914 75.0746 26.1906 75.0717 26.1898C75.0346 26.1795 75.0052 26.1652 74.9768 26.1505L74.946 26.1344C74.9103 26.1158 74.8742 26.0979 74.836 26.0846C74.7544 26.0564 74.6706 26.0365 74.5854 26.0259C74.5669 26.0236 74.5491 26.017 74.5351 26.0056C74.5218 25.9949 74.5116 25.98 74.507 25.9602C74.501 25.9346 74.5027 25.9152 74.5156 25.892C74.5254 25.8747 74.5393 25.8626 74.5553 25.8557C74.5716 25.8487 74.5902 25.847 74.6087 25.851Z" fill="black"/>
</svg>
