<svg width="126" height="120" viewBox="0 0 126 120" fill="none" xmlns="http://www.w3.org/2000/svg">
<path fill-rule="evenodd" clip-rule="evenodd" d="M122.735 97.2288C120.833 120.163 87.6254 123.456 80.9963 101.358L80.9922 101.36C80.9689 101.274 80.9189 101.102 80.8922 101.017L80.8965 101.016C80.3082 98.8512 80.089 96.5082 80.256 94.2397L80.2564 94.2398C80.5742 89.5587 82.6948 84.8797 86.0981 81.4603L86.0984 81.4607C87.0469 80.4945 88.0894 79.6242 89.2021 78.854C91.3048 84.8197 94.354 90.1544 98.2184 94.5915L98.0688 94.765C98.2552 94.862 98.4402 94.9589 98.6252 95.0563C98.6891 95.1293 98.7588 95.2109 98.8219 95.2861C98.5639 95.9057 99.1116 96.507 99.7592 96.6256C99.562 97.0615 100.045 97.2338 100.335 97.3124C101.29 97.518 102.413 97.5627 103.136 97.0592C104.07 96.2554 103.742 94.6692 102.733 94.0665C102.737 94.0564 102.74 94.046 102.744 94.0357C102.609 94.0222 102.486 93.9751 102.386 93.898C101.881 93.7144 101.292 93.7163 100.797 93.9217C97.439 88.7892 94.0713 83.2111 92.2077 77.1303C92.9949 76.7604 93.8133 76.4329 94.6443 76.1586L94.6438 76.1576C94.6661 76.1504 94.7333 76.1291 94.7544 76.1217L94.7545 76.1222C95.5258 75.8726 96.3197 75.6635 97.1187 75.5017L97.1185 75.501C97.189 75.4874 97.3359 75.4584 97.4069 75.4442L97.407 75.4451C98.831 75.1753 100.315 75.0481 101.792 75.0678L101.792 75.0676C101.848 75.0685 102.058 75.0725 102.126 75.0738L102.126 75.075C102.628 75.0881 103.144 75.1229 103.649 75.1685C103.644 75.186 103.636 75.2088 103.626 75.2352C103.667 75.2373 103.707 75.2431 103.747 75.2521C103.753 75.2284 103.758 75.2047 103.764 75.181C104.162 75.2234 104.564 75.2744 104.959 75.3375L104.959 75.3373L105.242 75.3834L105.242 75.3844C110.315 76.2266 115.096 79.0578 118.209 82.9366L118.209 82.9367C119.523 84.5472 120.58 86.3416 121.351 88.2746L121.352 88.2745L121.476 88.5908L121.475 88.591C122.512 91.3087 122.946 94.2926 122.73 97.2291L122.735 97.2288ZM86.4606 67.1218C78.8332 73.9524 70.3725 80.3069 63.9147 88.2005L62.7071 87.5146L62.8291 87.4927C62.4255 87.455 62.0523 87.1 61.7534 86.8691C62.3972 86.9116 62.6022 87.024 62.9857 86.3328C64.3296 84.0613 65.4886 81.7438 66.9378 79.5018C68.1233 77.5252 69.3099 75.5672 70.4948 73.5703C71.1208 72.7101 72.1671 70.42 70.4428 69.2685C74.9603 67.33 80.1652 65.0014 84.99 62.1768C85.3803 63.8373 85.9893 65.4434 86.5491 67.0442L86.4606 67.1218ZM60.541 55.1087C59.8945 54.5497 59.1828 54.0101 58.8582 53.1996C59.857 53.3541 60.845 53.4433 61.9479 53.4603C62.0109 53.4603 62.069 53.4047 62.0697 53.3428C62.0922 52.1472 62.0904 50.8313 61.9753 49.5536C62.5175 49.8063 62.953 49.5178 63.444 49.2702C63.9583 49.6315 64.4894 49.5244 65.1179 49.2703C65.1238 49.2686 67.6574 48.386 67.6631 48.3852C68.2281 48.219 68.4706 48.0606 68.6127 47.7229C68.6858 47.7412 68.8332 47.7775 68.9063 47.7951C69.513 48.6413 78.3174 51.2687 79.1 50.2943C79.9188 50.6211 80.8977 50.3567 81.7644 50.2983C82.4419 50.3519 83.1306 50.4951 83.807 50.4145C83.9407 51.0739 84.0759 51.7334 84.2114 52.3924C82.3935 54.8836 82.123 56.012 82.641 59.0051C82.7529 59.6244 82.9701 59.8324 83.7808 59.9225C78.9634 62.4027 74.119 64.7795 69.362 67.4315C70.035 65.9324 70.704 64.4045 71.3373 62.9062C71.5621 62.4462 71.8629 61.7701 71.8869 61.1405C72.073 58.8025 64.3134 56.6585 61.2735 55.8845C61.1875 55.5518 60.7973 55.3557 60.541 55.1087V55.1087ZM85.2878 59.3943C85.3227 59.3375 85.46 59.0661 85.4933 59.0033C85.571 59.1414 85.7233 59.3972 85.8206 59.5218C85.6308 59.5858 85.1663 59.8247 84.9822 59.916L85.2878 59.3943ZM58.2646 71.2983C58.1828 71.6099 58.1085 71.9057 58.0367 72.1902C56.2395 73.0711 54.4521 73.8764 52.6489 74.7396L52.7059 74.8386C51.6855 75.4 50.5753 75.7398 49.5729 76.3229C48.7894 73.1448 48.1921 69.9255 47.7481 66.6808C48.1618 66.6664 48.5731 66.6299 48.9911 66.5498C49.4084 66.5595 49.7993 66.5162 50.1315 66.413C52.4505 68.0225 54.9046 69.5122 57.4266 70.8441C57.7069 71.0197 57.999 71.0767 58.3157 71.1039L58.2646 71.2983ZM57.9733 95.3952C57.692 95.3691 57.4372 95.6463 57.1663 95.7374C56.3255 96.1464 55.5042 96.5627 54.6958 96.9866C54.4158 95.456 53.7155 94.0397 53.6676 92.4572L53.6406 92.505C53.5389 92.3192 53.332 91.988 53.213 91.8097C53.4122 91.8533 53.7887 91.9346 53.985 91.9765L53.963 92.0052C54.2174 91.964 54.5645 92.1158 54.8052 92.1451C55.6781 92.3003 56.5697 92.4596 57.4549 92.5805C57.2273 92.9144 57.2395 92.9323 57.6611 92.9331C57.42 93.3877 57.364 93.9382 57.3871 94.4172C57.394 94.5042 57.4314 94.4868 57.4785 94.5209C57.5719 94.7708 57.7549 94.943 58.0661 95.0524L57.9733 95.3952ZM50.2835 77.9988L50.2045 77.7666L50.3026 77.7355C50.287 77.6992 50.2256 77.6785 50.1776 77.6877L50.1687 77.6613C52.5878 76.6901 54.9554 75.5981 57.3415 74.5636C55.9404 78.3671 53.1559 81.6552 52.4567 85.6892L52.088 85.7118C51.2666 83.1037 50.5949 80.4324 49.9453 77.849L50.0609 77.8123C50.0449 77.926 50.165 78.0254 50.2835 77.9988V77.9988ZM52.0249 96.8352C51.7622 96.9192 51.4446 96.9492 51.1521 96.9209C49.8801 96.6904 48.5842 96.5022 47.32 96.3159C48.039 89.8297 45.7391 83.2214 41.0503 78.4629C42.7939 76.9713 44.6437 75.4005 46.62 73.7321C48.4668 82.1596 50.5661 90.4789 52.1892 96.7832L52.0249 96.8352ZM44.1992 94.28C44.1877 94.7968 44.1531 95.3196 44.103 95.8342C38.8641 95.0648 33.2341 94.2646 27.5768 93.6276L27.8289 93.3719C28.146 93.0054 27.6126 92.4034 27.297 92.2353C26.7047 91.9035 26.0409 92.0288 25.3855 92.3223L25.1683 92.0363C26.3784 91.0061 27.5906 89.9846 28.7954 88.9489C30.1953 89.51 31.6124 89.9948 33.0246 90.5089L32.9694 90.8284C33.2849 90.8298 33.6028 90.7909 33.9048 90.8198C37.3937 92.0435 41.0755 93.2211 44.2023 94.1465L44.1992 94.28ZM43.8549 97.5245C43.6418 98.6454 43.3253 99.7512 42.9215 100.819L42.9186 100.817C38.5122 113.934 19.4017 118.394 9.48351 107.965C-1.65655 97.7068 3.77907 77.3391 19.3861 74.2547C20.2795 75.7658 21.03 77.2897 21.8314 78.8199C22.2168 79.7046 22.9124 80.4903 23.0701 81.4596C23.1742 81.8155 23.2715 82.1714 23.3652 82.5273C23.3805 82.534 23.3958 82.5406 23.4113 82.5469C23.4102 82.5422 23.409 82.5377 23.4079 82.533L23.7529 82.3986C24.4426 83.5139 25.3246 85.4691 26.1099 86.6584C27.1272 88.0987 27.078 87.994 27.8354 88.0763C26.9352 88.9167 26.0211 89.7706 25.1208 90.6098C24.3224 91.3394 23.5681 92.2669 22.3666 92.4748C21.9758 92.5087 21.6443 92.6264 21.4121 92.8741C21.3579 93.0282 21.2767 93.1728 21.1846 93.3108C20.7724 94.769 22.8953 95.9026 24.0031 94.6677C30.672 95.6292 37.2171 96.3547 43.8891 97.3456L43.8549 97.5245ZM29.5683 71.6262C32.239 71.5911 35.4694 71.8967 39.0032 71.7111C39.2137 71.6581 39.4552 71.6189 39.6165 71.5087C40.5584 71.9592 41.5156 72.4238 42.4841 72.8443C42.4095 73.2392 42.8639 73.4744 43.0085 73.8199C41.8269 74.8656 40.6109 75.8884 39.4895 77.0074C36.6586 74.5919 33.2062 72.8479 29.5184 71.9767L29.5683 71.6262ZM125.51 92.5048C124.162 82.1297 114.435 72.9066 103.253 72.3652L103.196 72.0218C103.73 71.8267 104.198 71.4247 104.588 70.8267C101.053 70.4937 97.4033 70.886 94.1516 72.0119C93.548 72.2319 92.8928 72.4505 92.2234 72.3682C92.1263 72.1875 92.0086 71.9988 91.8791 71.809C91.8737 71.8082 91.8683 71.8069 91.8628 71.8051C91.6651 71.7394 91.4756 71.6491 91.3794 71.4646C91.2905 71.2941 91.2935 71.0889 91.2565 70.9055C91.2498 70.8722 91.2583 70.8437 91.275 70.8217C90.9652 70.3203 90.6772 69.8131 90.0124 69.7569L90.2311 69.5374C90.3228 69.4374 90.2681 69.26 90.1107 69.2296C89.2221 66.2092 88.1356 63.3155 87.2913 60.276L87.0205 60.3493C86.9858 60.2665 86.7717 59.7648 86.7322 59.672L87.2112 59.9849L87.1541 59.7766C91.3536 61.3105 95.4313 61.9864 99.3483 61.3438L99.3503 61.333C99.813 61.2011 100.247 61.0133 100.607 60.7739C100.834 60.7897 100.895 60.6624 101.005 60.3134C101.236 59.5975 101.495 58.8761 101.741 58.1775C103.153 53.8411 105.096 49.6762 106.376 45.3625C106.409 45.3365 106.526 45.2316 106.503 45.2259C101.463 42.461 89.334 43.3005 82.7573 44.2277C82.8715 45.8965 83.2113 47.5304 83.5397 49.1185C81.1513 47.5247 78.8697 45.6492 76.0021 44.8492L76.6771 44.7199C76.7875 44.7028 76.8577 44.5019 76.7419 44.4597L76.6091 44.4149C76.8561 42.613 74.6976 42.4012 73.4893 43.2881C73.225 43.4936 72.9302 44.2016 73.4196 44.3571L73.3978 44.7023C72.9955 44.7592 72.4795 44.9727 72.0491 45.1798C72.1458 44.6293 71.9297 43.8754 71.2467 44.3944C61.456 40.1824 65.7034 35.856 64.9082 29.0269C64.8575 26.9765 64.595 26.8476 62.5208 25.9288C61.3241 25.2419 60.0375 24.7609 58.7982 24.1569L58.8863 24.0742C58.7719 23.8593 58.5243 23.3944 58.3879 23.1382L58.3372 23.1523C58.1485 22.7239 58.0031 22.2897 57.9175 21.8387C57.8677 21.3148 57.6071 20.9973 56.9862 20.8971C55.4247 20.5881 53.8629 20.8247 53.2371 22.3753L53.2293 22.3766C53.0774 22.7862 52.7845 23.2046 52.4195 23.4043L52.6454 23.594C52.636 23.6104 52.6266 23.6267 52.617 23.6429L52.2625 23.5435C52.2634 23.5255 52.2655 23.5004 52.2671 23.4822C52.068 23.5673 51.832 23.6313 51.5906 23.6311C44.0294 22.4243 41.7653 27.9851 42.8892 34.1178C42.4439 35.7004 42.0504 37.2857 41.6441 38.8608C40.4588 44.1187 36.8995 47.3866 35.6872 52.4692C35.3675 53.7044 34.0403 55.9759 35.2055 56.7681C35.0058 58.2198 35.654 59.7793 36.8101 60.8709C35.0634 60.9169 32.6294 63.5948 34.6894 64.9123C35.439 65.2211 36.3393 65.1855 37.1569 65.3187L37.0939 65.5161C37.1274 65.6913 37.4409 65.68 37.5921 65.6627C37.5917 66.083 37.5349 66.5416 37.7175 66.9138C37.7376 67.1261 37.8302 67.1954 37.8763 67.1808C38.178 67.19 38.484 67.1549 38.7888 67.1715C39.2502 67.8703 39.9406 68.3115 40.6546 67.9547C41.089 67.742 41.0815 67.174 41.4926 66.8861C42.5687 66.251 43.7913 66.3554 44.9287 66.3724C45.4 67.8593 45.6124 69.3685 45.9831 70.8695C45.4971 71.4433 44.9409 72.0255 44.3027 72.6351L44.2194 72.6168L44.135 72.6413C43.65 72.2335 43.1115 71.5375 42.4232 71.791C36.677 66.9011 27.431 67.653 20.3265 67.7009C17.1131 67.7366 13.7951 67.7696 10.5364 67.909C9.60674 67.9292 9.00702 67.9939 8.97501 68.6511C8.36049 68.6762 7.90416 68.8182 7.32612 68.8604C6.96507 68.8783 6.77694 68.9055 6.7646 69.0022C6.83445 69.9403 6.87373 70.9218 7.22164 71.798C7.58584 72.665 8.69677 72.6643 9.54495 72.3442C9.86316 72.2159 9.58882 71.8453 9.5795 71.6186C9.38603 70.8759 9.26523 70.116 9.22879 69.3352C9.62977 69.3647 9.98059 69.3823 10.4426 69.3881L10.4504 69.5894C11.2629 69.6192 14.716 69.6764 15.5581 69.5659C15.2127 69.9585 15.0789 70.3616 15.4106 70.8038C16.2866 71.7213 17.9019 71.3037 19.0523 71.442L19.0701 71.7931C0.949355 74.9642 -5.94984 98.0786 7.19361 109.978C20.0465 123.107 44.6206 115.29 47.1047 97.8174C48.1741 97.9862 49.2489 98.1197 50.3155 98.3327C49.6856 98.8717 48.7812 99.1445 48.163 99.6604C47.0907 100.642 46.7729 101.287 47.2644 101.793L47.2736 101.786C47.6673 101.992 48.1477 101.975 48.5869 101.834C48.8651 101.87 49.1539 101.911 49.4305 101.911C49.8803 101.902 50.3055 101.796 50.4243 101.462C50.4374 101.335 50.1787 101.119 50.0527 101.013C50.7462 100.558 51.4434 100.035 52.2392 99.5416C52.4341 99.4502 52.5259 99.3596 52.5941 99.1987C56.0161 100.35 59.5988 97.889 61.7804 96.0621C61.7778 96.0726 61.7754 96.0835 61.7728 96.094C62.0378 95.8488 62.3163 95.6101 62.6184 95.5679C62.7063 95.4844 62.8045 95.4055 62.915 95.3323L64.5278 95.3861C64.9625 95.4006 65.5417 95.49 65.9365 95.3522C66.8508 94.9387 66.4598 93.671 65.9949 93.0869C66.7275 93.0458 67.4712 93.0574 68.199 92.9651C70.064 92.7598 69.5339 91.0048 68.0386 90.6077C67.6241 90.1054 65.783 89.573 65.7325 88.9419C72.6755 82.0073 80.1775 75.3987 87.1306 68.846C87.3594 69.5521 87.4073 70.3058 87.4145 71.0192C87.4156 72.735 87.9001 74.4339 88.3401 76.0727C72.2712 85.6156 74.3965 110.563 92.0701 117.345C109.386 124.803 128.196 109.533 125.51 92.5048V92.5048Z" fill="white"/>
<path d="M52.9275 22.0822C52.9492 22.0365 53.0249 22.0706 53.0125 22.1154C52.9069 22.5763 52.7446 23.101 52.3006 23.3732C52.08 25.8067 56.2723 26.6191 58.0418 25.4122C58.5825 25.0957 58.7236 24.8151 58.7361 24.2394C58.3641 23.8105 58.463 23.2273 58.3094 22.7267L58.9637 23.9552C60.1269 24.5102 61.3364 24.9721 62.449 25.6144C64.5541 26.5503 64.8897 26.7136 64.9441 28.8575C65.659 36.4052 61.6961 39.8433 71.076 44.0353C71.7036 43.6226 72.1373 44.1479 72.1033 44.7335C72.4582 44.571 72.8148 44.4404 73.2117 44.3732C72.5678 44.1882 72.8186 43.3112 73.2176 42.9952C74.5218 42.0632 76.7627 42.234 76.6531 44.1378C76.9529 44.2388 76.8611 44.6829 76.5623 44.7404C79.0221 45.5462 81.0278 47.1588 83.1102 48.5597C82.798 47.0463 82.5048 45.5224 82.409 43.9884C82.3846 43.9802 82.3804 43.9452 82.4061 43.9347C82.3629 43.6809 82.4712 43.6411 82.5418 43.9034C87.4621 43.069 92.5138 43.038 97.5027 43.1007C100.192 43.1325 102.899 43.4693 105.399 44.423C105.714 44.5762 106.952 44.8454 106.399 45.2999C106.295 45.9172 106.056 46.5146 105.844 47.1085C104.483 50.6689 103.117 54.2274 101.86 57.8204C101.591 58.5818 101.318 59.3424 101.065 60.1085C100.973 60.3866 100.898 60.7941 100.513 60.797C100.162 61.0228 99.77 61.1927 99.3641 61.3156C98.5883 65.5022 94.9651 68.6006 91.7518 71.3673C91.9097 71.5854 92.0594 71.8119 92.1902 72.046C93.0987 72.1216 93.9216 71.6301 94.7674 71.4259C97.8627 70.481 101.219 70.1943 104.456 70.4962C104.583 70.5084 104.689 70.6302 104.61 70.7452C104.256 71.2935 103.774 71.7911 103.112 72.0333C112.27 72.592 120.461 78.5409 123.798 86.4113C132.156 104.943 112.65 125.745 91.8426 117.356C73.9197 110.133 71.8575 85.8862 87.9705 75.84C87.6165 74.5319 87.2584 73.201 87.119 71.8566C87.03 70.916 87.1323 69.959 86.8768 69.0353C79.9548 75.4442 73.0329 81.8552 66.1941 88.34L65.9617 88.5626C65.8976 88.6238 65.7738 88.7081 65.7693 88.796C65.9046 89.2867 67.6545 89.8862 67.9998 90.3019C69.648 90.819 70.1532 92.7067 68.0731 92.9874C67.4443 93.0694 66.8058 93.0674 66.1727 93.0958C66.6084 93.7567 66.774 94.9934 65.8533 95.3634C65.4003 95.5192 64.8381 95.426 64.368 95.4103C63.853 95.3931 63.338 95.3757 62.8231 95.3585C61.6603 96.183 62.0071 97.7387 61.6893 98.921C61.3112 101.578 59.3518 103.334 56.4119 103.335C53.1752 103.548 49.8278 103.385 46.6902 102.584C46.6795 102.6 46.6575 102.614 46.6365 102.607C46.2362 102.377 46.6691 101.89 46.9051 101.684C46.2512 100.933 47.2994 99.8996 47.8797 99.3781C48.3972 98.9181 49.1485 98.6904 49.7186 98.2765C48.8545 98.114 47.9778 98.0047 47.1082 97.8683C44.0629 115.504 20.4578 123.164 6.90704 109.95C-6.24071 97.6484 0.27844 75.0673 18.8787 71.465C17.6675 71.3415 15.9772 71.7291 15.1082 70.7599C14.8587 70.4401 14.7792 69.9596 15.0193 69.6281C14.5663 69.6717 7.01248 69.6827 10.2869 69.4122C9.9498 69.4077 9.61336 69.3963 9.27813 69.3732C9.29859 69.6877 9.33077 70.0025 9.37774 70.3146C9.45843 70.8539 9.60548 71.3747 9.72442 71.9064C9.76887 72.1055 9.66193 72.3023 9.44512 72.3615C8.49186 72.6972 7.35268 72.7118 6.89336 71.7101C6.53239 70.8044 6.49312 69.8046 6.42168 68.8488C6.43854 68.4296 7.26887 68.5887 7.59161 68.4767C7.94633 68.4064 8.29905 68.362 8.65704 68.3322C8.79968 67.4394 10.1345 67.6257 10.865 67.5558C14.7804 67.4055 18.7016 67.3911 22.6199 67.3409C29.35 67.247 36.9649 67.0417 42.3172 71.4396C43.031 71.2479 43.5745 71.8869 44.0311 72.2872C44.0504 72.2816 44.0699 72.2812 44.0887 72.2853C44.6256 71.7692 45.1426 71.2351 45.6248 70.671C45.278 69.249 45.0653 67.7943 44.6326 66.3927C43.5945 66.365 42.3559 66.3251 41.4588 66.8712C41.0637 67.1705 41.0767 67.7433 40.5828 67.962C39.7577 68.3761 38.9658 67.8288 38.5301 67.1925C38.2564 67.1842 37.9875 67.2153 37.7156 67.2052C37.4828 67.1929 37.4109 67.0065 37.3807 66.8087C37.2177 66.4562 37.2404 66.0695 37.2469 65.6984C37.0288 65.7107 36.686 65.5411 36.7596 65.3107C35.9863 65.2044 35.1711 65.2193 34.4481 64.9161C32.3591 63.7124 34.3919 60.8839 36.284 60.5939C35.2689 59.5389 34.7007 58.1066 34.8543 56.6925C33.6933 55.8124 35.0583 53.4105 35.3504 52.2736C35.8263 50.2163 36.8232 48.3173 37.8035 46.4327C39.4636 43.4172 40.5292 41.9657 41.3065 38.6681C41.7121 37.0949 42.104 35.5174 42.5438 33.9523C42.3404 32.5171 42.2426 32.1227 42.3143 30.6759C42.48 25.5488 45.1419 22.4705 51.4637 23.3009C52.2645 23.2504 52.6921 22.7477 52.9275 22.0822ZM122.356 104.242C130.327 86.5704 111.394 66.8091 91.7664 75.4503C91.863 75.7637 91.959 76.0776 92.0594 76.3898C103.113 71.107 117.172 76.7285 121.483 87.3458C128.983 103.971 111.505 122.658 92.825 115.131C77.0736 108.857 74.8987 87.4883 88.7117 78.2823C88.6045 77.9615 88.5008 77.6391 88.4012 77.3165C76.704 84.865 75.2202 101.966 85.2205 111.295C96.4367 122.538 116.56 118.334 122.356 104.242ZM85.9354 81.5802C82.5793 85.0403 80.5719 89.6054 80.2811 94.2657C86.241 94.9756 92.3778 94.3361 98.243 95.7091C98.4088 95.761 98.3383 95.9708 98.1717 95.9474C98.0086 95.9243 97.8464 95.8961 97.6844 95.8663C97.1794 96.0649 96.6475 96.2074 96.1277 96.3693C91.6455 97.7601 87.1676 99.1645 82.6697 100.512C82.1114 100.68 81.5483 100.87 80.9764 100.994C87.6817 123.104 120.11 119.922 122.373 97.2628C116.636 97.539 110.874 97.3939 105.162 96.8009C109.492 99.9178 113.994 102.828 118.42 105.819C118.499 105.887 118.397 105.992 118.309 105.951C113.674 103.132 109.24 99.9936 104.917 96.7736C104.438 96.7182 103.959 96.656 103.482 96.587C103.405 96.7243 103.309 96.8523 103.193 96.963C105.098 102.856 106.45 108.931 107.115 115.052C107.122 115.146 106.955 115.167 106.937 115.074C106.007 109.007 104.779 102.979 103.095 97.049C102.269 97.6142 101.095 97.5316 100.141 97.3322C100.721 103.469 101.226 109.621 101.616 115.769C101.606 115.904 101.38 115.948 101.347 115.802C100.798 109.649 100.416 103.474 100.055 97.3077C99.6922 97.2019 99.2902 96.9691 99.3826 96.5929C99.0491 96.4959 98.7575 96.2852 98.5867 96.0197C98.042 96.7765 97.4912 97.5289 96.9529 98.2892C97.6673 97.7558 98.3804 97.2188 99.116 96.713C99.1933 96.6598 99.2844 96.7241 99.3016 96.797C98.5432 97.6032 97.3842 98.1811 96.5115 98.9191C93.7163 102.926 91.2948 107.156 89.3104 111.557C89.2278 111.741 88.8997 111.663 88.9813 111.474C90.7881 107.256 93.0785 103.222 95.7752 99.4327C92.1231 102.05 88.4138 104.815 84.7606 107.324C87.6697 105.138 90.5983 102.974 93.5291 100.813C94.4162 100.16 95.3035 99.5067 96.1902 98.8546C96.852 97.9475 97.5446 97.0586 98.2791 96.2032C93.6463 98.9518 89.0419 101.803 84.3016 104.369C84.2115 104.388 84.1651 104.298 84.2176 104.235C88.8555 101.315 93.8156 98.7256 98.5281 95.9171C98.4141 95.6926 98.3795 95.4348 98.4598 95.171C98.4225 95.127 98.3854 95.0835 98.3484 95.0411C93.1755 92.317 87.5972 89.8604 82.1834 87.8458C87.2278 89.5024 92.1065 91.5755 96.7879 93.9738C93.1682 89.846 89.4816 85.7579 85.9354 81.5802ZM18.6727 73.0177C1.63032 76.7457 -4.06519 97.5949 8.05352 108.931C18.93 119.73 38.4759 115.751 44.1434 102.142C44.7839 100.685 45.2486 99.1778 45.5369 97.6339C45.1129 97.5713 44.6889 97.509 44.2645 97.4474C41.4793 113.098 21.0043 120.105 8.91583 108.168C-2.38432 97.4367 2.74851 77.3227 18.8455 73.6515C18.769 73.4445 18.709 73.2338 18.6727 73.0177ZM17.8641 74.6417C3.12575 78.9249 -1.08708 97.6521 9.46758 107.689C19.7205 118 37.697 113.764 42.5213 100.781C38.8182 100.468 35.0993 100.124 31.3738 100.012C30.9732 99.9954 30.5571 99.9997 30.1609 99.9396C29.6994 99.6837 30.5487 99.302 30.7967 99.548C30.808 99.5557 30.8117 99.5669 30.8094 99.5763C33.9664 99.5725 37.1184 99.766 40.2576 100.067C40.669 100.106 41.0798 100.153 41.49 100.201C41.877 100.273 42.3096 100.235 42.6619 100.41C43.0316 99.4082 43.3162 98.3827 43.5154 97.339C36.9964 96.3745 30.4408 95.6424 23.9178 94.7032C22.5775 96.0008 20.2877 94.6479 20.8943 92.9855C20.1501 92.3271 20.759 91.2453 21.5467 90.8751C21.9335 90.6695 22.3604 90.5661 22.7938 90.4894C21.1311 85.2145 19.4012 79.9498 17.8641 74.6417ZM61.3143 96.3917C58.9416 98.2883 55.8024 100.219 52.5379 99.2599C52.4382 99.4443 52.1785 99.526 52.0027 99.6456C51.4023 100.057 50.8002 100.467 50.1981 100.876C50.4137 101.065 50.5838 101.326 50.3445 101.564C49.8616 102.056 49.1031 101.946 48.451 101.862C48.0364 101.986 47.5545 102.02 47.1492 101.841C46.9335 102.01 46.704 102.225 46.6981 102.496C46.7302 102.469 46.7378 102.492 46.7264 102.521C50.1025 102.752 53.5084 102.987 56.8875 102.686C59.8253 102.553 60.8454 100.4 61.0857 97.9884C61.1536 97.489 61.1847 96.9199 61.3143 96.3917ZM52.0379 99.0831C51.5596 98.9382 50.5201 98.3089 50.0887 98.4464C49.488 98.7919 48.9185 99.1855 48.2606 99.4386C47.7493 99.8937 47.2344 100.455 47.0936 101.114C47.0522 101.443 47.3645 101.527 47.6502 101.503C47.6986 101.44 47.8326 101.417 47.9119 101.456C48.0852 101.408 48.2514 101.333 48.4109 101.258C49.7071 100.665 50.9334 99.9462 52.0379 99.0831ZM80.2791 94.2941C80.1338 96.5381 80.367 98.8245 80.9695 100.972C86.3567 99.1354 91.8306 97.5105 97.2606 95.7843C91.6782 94.6758 85.898 95.1728 80.2791 94.2941ZM24.5359 92.8761C24.4253 93.4844 24.5078 94.1864 23.9764 94.6486C32.7885 95.3877 41.5627 96.591 50.2772 97.9884C50.8892 98.1362 51.4439 98.4004 52.0154 98.6427C55.5235 100.134 59.0063 97.7531 61.5672 95.7003C61.6372 95.567 61.721 95.4411 61.8201 95.3253C60.5119 95.2316 59.2229 95.3584 57.9246 95.0909C58.3732 95.5348 57.4072 95.6747 57.1102 95.8077C56.3102 96.1041 55.5051 96.389 54.6961 96.6632C54.9836 99.1323 52.4582 98.7139 51.8787 96.8087C51.7007 96.8499 51.5197 96.8632 51.3357 96.8556C51.301 96.8965 51.2454 96.9245 51.1766 96.9152C50.2088 96.7849 49.2458 96.6143 48.2811 96.464C46.7696 96.2475 45.2655 95.9558 43.7459 95.8019C43.747 95.7922 43.7481 95.7822 43.7488 95.7726C37.4807 94.8972 31.2202 93.8786 24.9168 93.2755C24.6929 93.2551 24.5037 93.0982 24.5379 92.8741L24.5359 92.8761ZM45.2674 66.2296C46.357 71.575 47.8805 76.8313 48.9461 82.1818C49.9765 87.0049 50.9949 91.8416 52.5154 96.5577C52.6639 97.0026 52.7683 97.4842 53.1434 97.8243C53.5294 98.099 54.0073 98.1428 54.2371 97.712C54.3278 97.4147 54.2404 97.1182 54.1795 96.8146C53.8173 95.1743 53.6118 93.479 53.1805 91.8654C51.5428 91.5718 51.2718 91.3306 51.3719 89.7667C51.4117 89.1368 51.451 88.5009 51.5809 87.881C51.6638 87.5115 51.8058 87.1483 51.9842 86.8009C51.9918 86.5853 52.0068 86.3702 52.0291 86.1564C51.5169 86.1621 51.5356 85.4612 51.3777 85.1281C51.2675 84.7796 51.1569 84.4315 51.0486 84.0831C49.2332 78.3143 47.8657 72.4121 47.2156 66.4386C46.566 66.3735 45.9163 66.3021 45.2674 66.2296ZM104.969 75.3907C104.183 80.9608 103.391 86.5321 102.952 92.1368C105.551 87.3543 108.418 82.4826 111.856 78.254C108.834 82.9292 105.817 87.6131 103.234 92.5128C103.109 92.7468 102.99 92.9916 102.862 93.2316C102.839 93.4323 102.85 93.6472 102.796 93.8419C103.437 94.2905 103.78 95.0633 103.72 95.797C104.106 96.0649 104.493 96.334 104.879 96.6036C105.574 96.6657 106.269 96.7274 106.965 96.7823C112.092 97.1947 117.25 97.2628 122.389 97.0402C122.603 94.0848 122.16 91.0888 121.083 88.339C115.239 89.9869 109.458 91.8344 103.76 93.8693C103.609 93.9141 103.508 93.6932 103.652 93.632C109.336 91.5417 115.164 89.7767 121.073 88.3146C120.294 86.324 119.193 84.4456 117.821 82.7872C113.292 86.546 108.587 90.1833 103.612 93.42C103.089 93.4211 104.125 92.7938 104.243 92.6974C108.874 89.5183 113.357 86.1605 117.794 82.754C114.659 78.9452 110.039 76.2292 104.969 75.3907ZM100.78 96.4083C100.628 96.5319 100.443 96.6103 100.245 96.6486C100.295 96.6633 100.347 96.6766 100.397 96.6896C100.453 96.5776 100.633 96.5271 100.764 96.4894C100.765 96.4622 100.77 96.4341 100.78 96.4083ZM46.3484 73.9181C44.6161 75.3812 42.8877 76.8483 41.1648 78.3214C43.0448 80.2711 44.5404 82.4947 45.617 84.9435C47.15 88.4107 47.749 92.2501 47.3729 96.0118C48.5959 96.1919 49.8209 96.3719 51.035 96.5919C51.2965 96.6111 51.5619 96.5917 51.8113 96.5128C49.8813 89.0119 48.0115 81.4806 46.3484 73.9181ZM103.715 95.8458C103.691 96.0656 103.633 96.2813 103.535 96.4845C103.913 96.5167 104.292 96.5505 104.67 96.5841C104.35 96.3397 104.031 96.0938 103.715 95.8458ZM54.657 92.1691C54.421 92.1745 53.6565 91.809 53.7029 92.214C53.7197 93.713 54.3811 95.1052 54.6795 96.5577C55.4252 96.1686 56.1766 95.7907 56.9344 95.422C57.2385 95.3093 57.5018 95.0198 57.8465 95.0646C57.5496 94.9595 57.3015 94.7851 57.1746 94.4904C57.1007 94.4501 57.047 94.3757 57.0447 94.2667C57.0364 93.8249 57.0507 93.3605 57.2293 92.9493C57.0313 92.9435 56.8953 92.72 56.9949 92.5626C56.2124 92.4491 55.4324 92.3176 54.657 92.1691ZM102.812 96.4249C102.82 96.4256 102.828 96.4272 102.836 96.4279C102.86 96.3988 102.883 96.3676 102.903 96.3361C102.901 96.3291 102.899 96.3225 102.897 96.3156C102.871 96.3526 102.842 96.3893 102.812 96.4249ZM102.946 96.2443C102.948 96.2485 102.948 96.2528 102.95 96.257C102.965 96.2293 102.978 96.2014 102.991 96.173C102.977 96.197 102.962 96.2209 102.946 96.2443ZM100.03 96.2316C101.086 96.1025 100.907 94.4784 99.1736 94.6876C99.1623 94.6967 99.1514 94.7071 99.1404 94.7169C99.2438 94.9201 99.3884 95.0943 99.5115 95.2823C99.7436 95.6543 99.1498 95.9791 98.8816 95.6251C98.8972 95.6714 98.9168 95.716 98.9402 95.757C98.9584 95.743 98.9737 95.7694 98.9529 95.7775C99.1578 96.109 99.5973 96.24 100.002 96.2335C99.98 95.9711 100.012 95.9674 100.03 96.2316ZM101.659 95.9796C101.665 95.9796 101.676 95.9419 101.668 95.9406C101.669 95.9406 101.664 95.9394 101.655 95.9366C101.653 95.9679 101.656 95.9791 101.659 95.9796ZM44.6092 94.3419C44.5952 94.759 44.5681 95.1742 44.5291 95.587C44.9522 95.6497 45.3755 95.7133 45.7986 95.7775C45.8324 95.4164 45.8571 95.0532 45.8719 94.6886C45.4492 94.579 45.0284 94.4624 44.6092 94.3419ZM102.529 95.2472C102.581 94.5678 101.699 94.0876 101.052 94.3009C101.045 94.3083 101.024 94.344 101.03 94.3566C101.153 94.6689 101.572 94.9326 101.67 95.3185C101.705 95.458 101.693 95.5874 101.678 95.7238C101.938 95.5311 102.124 95.0835 102.529 95.2472ZM32.6522 90.8575C30.4279 90.8995 28.2179 91.1752 25.9998 91.2921C25.7214 91.5278 25.4193 91.7572 25.1492 92.0089C25.7955 91.7097 26.5915 91.5531 27.2352 91.9249C27.6735 92.1492 28.2368 92.9113 27.8152 93.339C33.1523 93.9461 38.4688 94.6958 43.7791 95.4747C43.8204 95.0266 43.8466 94.576 43.8572 94.1222C41.0238 93.2829 38.2119 92.3768 35.4168 91.4327C34.8388 91.2356 34.2614 91.0345 33.6854 90.8322C33.3411 90.8377 32.9964 90.8467 32.6522 90.8575ZM45.7498 71.2355C45.5215 71.4835 45.2387 71.6986 44.9842 71.923C39.712 76.7357 34.5713 81.6718 29.3445 86.5275C27.2473 88.3694 25.4105 90.5158 23.1199 92.1486C22.915 92.2568 22.694 92.3445 22.4656 92.3995C22.0648 92.4811 21.5793 92.4861 21.3416 92.8488C20.557 94.0933 22.1916 95.5038 23.4744 94.6378C23.4555 94.6392 23.4097 94.6242 23.4451 94.6105C23.789 94.5258 24.0141 94.0854 24.0779 93.7755C23.4649 94.0814 23.1592 93.2869 22.868 92.922C22.7088 92.9122 22.5462 92.9536 22.3748 92.9786C21.7459 92.9581 22.2071 92.4361 22.8162 92.6075C23.1161 92.5696 23.4197 92.7698 23.6609 92.9308C23.816 93.0264 24.0118 93.0629 24.1375 93.1915C24.1451 93.1013 24.1548 93.0105 24.1707 92.921C23.9044 92.8502 23.7474 92.5503 23.8455 92.3116C23.882 92.148 24.0553 92.0128 24.241 92.007C24.2296 92.0085 24.2207 92.0115 24.2166 92.0118C24.2268 92.0101 24.2372 92.0087 24.2479 92.007C24.2456 92.007 24.2432 92.0069 24.241 92.007C24.2774 92.002 24.3359 91.9943 24.3191 91.9943C24.4141 92.0021 24.541 92.0281 24.5887 92.1085C31.7243 85.8358 39.0837 79.7689 46.2625 73.5333C46.0907 72.7676 45.9195 72.0012 45.7498 71.2355ZM59.4246 93.5304C58.9104 92.7916 58.0392 93.103 57.744 93.838C57.4201 95.1253 60.1143 94.9052 59.4246 93.5304ZM90.1014 69.5773C89.8507 69.6365 89.5831 69.6042 89.326 69.6134C88.78 69.6213 88.2396 69.7279 87.701 69.7863C87.8046 70.7394 87.7544 71.7037 87.9461 72.6505C89.5165 80.6674 93.4161 88.227 98.9148 94.5743C98.9159 94.574 98.9173 94.5743 98.9188 94.5743C98.809 94.1178 99.6272 94.1489 99.9344 94.214C99.8053 94.0247 100.22 93.8264 100.347 93.7247C95.6762 88.2674 90.5538 77.1215 90.2127 70.1759C90.2127 70.1249 90.2973 70.1121 90.3094 70.1632C90.6128 71.4651 90.9655 72.7592 91.3436 74.046C94.579 72.6305 98.0866 71.9276 101.668 71.9747C101.846 71.8959 102.015 71.8188 102.153 71.6945C102.279 71.6373 102.387 71.6259 102.512 71.5948C103.033 71.3072 103.695 71.2182 104.113 70.796C101.215 70.5515 98.2684 70.7897 95.4607 71.4982C94.4442 71.8219 93.4243 72.1375 92.3885 72.4054C92.4875 72.5506 92.5155 72.7578 92.6629 72.8605C92.8598 73.0177 92.6988 73.2846 92.4891 73.3429C92.1387 73.4403 92.0003 73.1133 91.9275 72.8702C91.765 72.3262 91.5741 71.7821 91.2801 71.2853C90.9315 70.6908 90.7223 69.9862 90.1014 69.5773ZM88.9529 78.9904C87.88 79.7474 86.8619 80.6208 85.95 81.5656C89.4918 85.3416 92.9096 89.2335 96.3709 93.0782C96.7409 93.4911 97.1332 93.8948 97.4764 94.3273C97.6229 94.403 97.7698 94.4779 97.9188 94.5499C93.9109 89.9423 90.9572 84.5922 88.9529 78.9904ZM63.4988 93.5509C63.5298 93.6136 63.5446 93.6823 63.5408 93.7491C63.6418 93.8363 63.6987 93.9721 63.6785 94.1036C63.7518 94.2119 63.7771 94.3454 63.74 94.464C64.2556 94.4745 64.7722 94.47 65.2889 94.4493C65.2885 94.339 65.2874 94.2286 65.2889 94.1183C65.2908 94.0067 65.3145 93.8443 65.3123 93.7081C64.7086 93.6501 64.104 93.5929 63.4988 93.5509ZM100.405 93.9669C100.287 94.0231 100.033 94.0434 100.035 94.1876C100.079 94.1812 100.041 94.2295 100.019 94.2316C100.114 94.2519 100.207 94.2805 100.297 94.3165C100.299 94.1994 100.345 94.0653 100.405 93.9669ZM39.284 79.9298C42.8109 83.7769 44.702 88.8323 44.619 93.9103C45.0397 94.0294 45.4621 94.1447 45.8856 94.255C46.0196 88.7985 43.9101 83.3692 39.9969 79.3204C39.7594 79.5239 39.5211 79.7263 39.284 79.9298ZM101.763 75.0939C100.218 75.0647 98.6731 75.1963 97.1795 75.4874C98.0371 80.9053 99.0191 86.3061 100.096 91.6886C100.106 91.7878 99.9435 91.7991 99.9148 91.7111C98.7302 86.3541 97.7779 80.9378 97.0906 75.505C96.3023 75.6616 95.5242 75.8621 94.7586 76.1066C95.0943 76.7278 95.3997 77.3555 95.6873 77.9962C95.8069 78.2195 96.1824 79.2031 95.5701 78.9318C95.3593 78.721 95.2338 78.4417 95.1297 78.1749C94.8737 77.5266 94.6512 76.8714 94.4695 76.2013C93.7267 76.4499 92.9894 76.7426 92.2811 77.0704C94.1105 82.9608 97.3215 88.3423 100.724 93.5509C101.203 93.3855 101.756 93.3917 102.231 93.5568C102.6 92.9223 102.579 92.6011 102.625 91.9064C103.125 86.3742 103.716 80.8279 104.866 75.3741C104.499 75.3143 104.129 75.2637 103.758 75.2228C103.672 75.5698 103.572 75.9334 103.544 76.2931C103.538 76.3478 103.503 76.4118 103.437 76.422C102.723 76.4615 103.101 75.519 103.234 75.171C102.764 75.1308 102.291 75.1047 101.815 75.0948C101.351 81.0184 101.128 86.953 101.062 92.8898C101.057 92.9913 100.899 92.991 100.892 92.8898C100.794 86.9549 101.109 80.9987 101.763 75.0939ZM52.5008 90.2413C52.2599 90.2402 51.9429 90.2133 51.8113 90.3986C51.808 90.8238 51.9166 91.1718 52.4266 91.2335C55.7299 91.9986 59.1074 92.4721 62.5086 92.6036C64.2657 92.6671 66.0466 92.6841 67.8006 92.545C69.2569 92.4939 69.3673 91.5162 68.1795 90.8556C67.991 90.9623 67.7282 90.9478 67.5291 90.965C67.4287 91.2579 66.0057 91.0109 65.6395 91.0441C61.2474 90.9502 56.8838 90.3272 52.5008 90.2413ZM19.1375 74.3058C18.7315 74.3986 18.3281 74.5038 17.9285 74.6222C19.7228 79.8679 21.3386 85.1723 23.0008 90.4542C23.4997 90.3726 24.0268 90.2912 24.4295 89.9865C24.6473 89.8215 24.9576 90.0947 24.7693 90.2677C23.7335 91.0958 21.994 90.6166 21.1805 91.7443C21.0055 92.0086 20.9415 92.3462 21.1297 92.5948C21.3801 92.2839 21.7957 92.1952 22.1883 92.1447C23.3129 91.9532 24.0663 91.0309 24.8357 90.3282C25.6442 89.5746 26.4525 88.82 27.2606 88.0656C26.0946 87.9658 24.1739 83.4359 23.4393 82.339C24.0174 84.7179 24.7072 87.0803 25.1463 89.4855C25.1649 89.6333 25.1514 89.7804 25.1658 89.9279C25.1673 89.9433 25.143 89.9435 25.1375 89.9308C24.0228 87.1619 23.5663 84.1926 22.7313 81.3429C22.5848 80.4098 21.8836 79.6135 21.5027 78.7325C20.7233 77.247 19.9912 75.7597 19.1375 74.3058ZM53.4852 91.9747C53.4927 91.9613 53.5021 91.949 53.5115 91.9366C53.4928 91.9326 53.4736 91.928 53.4549 91.924C53.4655 91.9403 53.4753 91.9578 53.4852 91.9747ZM26.1414 91.171C28.3249 90.7256 30.5778 90.6202 32.8035 90.5206C31.4281 90.0199 30.0363 89.543 28.6805 89.0031C27.8343 89.7259 26.9876 90.4489 26.1414 91.171ZM59.3738 86.3009C59.2439 86.3861 59.0858 86.3805 58.9393 86.339C58.3736 86.4503 57.8622 86.721 57.3943 87.0275C56.4726 87.5533 55.8237 88.5493 54.7205 88.754C53.7839 88.8728 52.5618 87.9728 52.3436 87.1779C52.3227 87.175 52.3015 87.1711 52.2811 87.1652C51.99 88.0476 51.9992 88.9718 52.0262 89.881C56.188 90.1285 60.3426 90.5376 64.5125 90.6993C65.2892 90.7352 66.0657 90.7674 66.8426 90.796C67.2082 90.813 67.5665 90.807 67.91 90.6857C67.8288 90.6297 67.7224 90.5823 67.7059 90.4845C66.5296 89.815 65.3533 89.1459 64.1775 88.4757C63.6891 88.5752 63.0364 88.4069 62.7205 88.8419C62.7292 88.8919 62.7099 88.9473 62.659 88.9708C62.5555 89.0764 62.3129 89.0392 62.3055 88.8448C62.3219 88.3904 63.0623 88.1542 63.4637 88.0685C63.1519 87.8908 62.8398 87.7129 62.5281 87.5353C62.1476 87.6149 61.7738 87.7216 61.408 87.8468C61.2521 87.8998 61.0544 88.0268 60.8856 87.9923C60.8751 88.0036 60.8657 88.015 60.8582 88.0265C60.8917 88.0399 60.9249 88.0541 60.9432 88.0587C61.0958 88.0986 61.0578 88.3007 60.907 88.3077C60.6721 88.3185 60.2932 88.2583 60.3719 87.9523C60.5829 87.5079 61.511 87.3295 61.992 87.2296C61.2066 86.7848 60.3284 86.2199 59.3738 86.3009ZM52.0018 90.0499C52.1063 90.0323 52.2145 90.0287 52.3221 90.0294C52.2154 90.0171 52.1094 90.0005 52.0154 89.9708C52.0117 89.997 52.007 90.0236 52.0018 90.0499ZM86.2137 66.9435C79.1339 74.1589 70.7234 80.3282 64.201 87.9855C64.1866 88.0029 64.1707 88.019 64.1541 88.0333C64.2583 88.0318 65.1281 88.13 64.6736 88.1476C64.8041 88.1782 64.8947 88.3333 64.7615 88.4064C64.9769 88.5287 65.1926 88.6512 65.408 88.7736C65.4742 88.3669 66.1491 87.9758 66.4315 87.6339C70.4979 83.8994 74.4473 80.0519 78.4744 76.2765C81.2143 73.6946 83.9756 71.1313 86.7537 68.5851C86.5815 68.0356 86.3936 67.4915 86.2137 66.9435ZM63.6893 88.2853C63.7318 88.2803 63.7746 88.2755 63.8172 88.2706C63.8102 88.2667 63.8037 88.2619 63.7967 88.2579C63.7608 88.2662 63.7246 88.2759 63.6893 88.2853ZM58.827 84.7706C56.0844 84.7693 54.3158 85.0034 52.5779 87.1378C52.6124 87.2312 52.8004 87.2318 52.741 87.3156C53.3983 88.1031 54.6355 88.6406 55.5272 87.8556C56.4846 87.1273 57.511 86.4044 58.7049 86.0509C58.6208 85.6241 58.6513 85.1728 58.827 84.7706ZM84.7117 62.3048C80.2302 64.9101 75.4342 67.0992 70.6307 69.1642C72.0249 70.348 71.3619 72.2136 70.5076 73.5031C69.331 75.4862 68.1346 77.4595 66.9481 79.4376C65.5669 81.5925 64.3919 83.8472 63.1307 86.0607C62.8984 86.3892 62.6678 86.958 62.1678 86.9279C62.4907 87.1812 62.8664 87.2224 63.2732 87.1447C63.4345 87.1274 63.4647 87.3716 63.3113 87.4034C63.2327 87.4196 63.1538 87.4342 63.075 87.4484C63.2634 87.5553 63.452 87.6626 63.6404 87.7697C63.6472 87.7438 63.6588 87.7188 63.6766 87.6964C70.365 80.0585 78.4846 73.5867 86.1785 66.838C85.6529 65.337 85.0901 63.8445 84.7117 62.3048ZM56.8514 74.7531C54.6058 75.7321 52.3513 76.7649 50.0887 77.672C50.0932 77.6692 50.0978 77.675 50.0955 77.6788C50.0629 77.7374 49.9998 77.7037 49.9764 77.6544C50.6376 80.2838 51.3006 82.9152 52.117 85.5079C52.7712 81.6281 55.4217 78.3844 56.8514 74.7531ZM23.7195 72.463C22.0554 72.463 20.4189 72.6381 18.824 72.9845C18.8824 73.1973 18.9632 73.4028 19.0594 73.6027C25.6271 72.0921 32.8252 73.9808 37.6746 78.3478C37.8245 78.2077 37.9755 78.0679 38.1258 77.9279C38.1398 77.8458 38.2241 77.7783 38.2703 77.7072C34.3129 74.3651 29.0813 72.4449 23.7195 72.463ZM57.6424 72.2179C55.0639 73.6672 52.3707 74.9504 49.7225 76.2823C49.6976 76.29 49.6715 76.2914 49.6463 76.2872C49.7508 76.7311 49.8578 77.1745 49.9676 77.6173C49.9738 77.5081 50.1743 77.4432 50.2537 77.3986C51.1138 76.9377 52.0058 76.5303 52.8934 76.1173C54.2815 75.4765 55.6643 74.8264 57.0594 74.2003C57.2925 73.5501 57.4714 72.8852 57.6424 72.2179ZM39.4715 71.5577C39.3442 71.6295 39.1442 71.6693 38.9773 71.7101C38.9396 71.7745 38.8686 71.8212 38.7645 71.8195C35.6469 71.764 32.5295 71.7082 29.4119 71.6505C33.0883 72.5198 36.5057 74.235 39.326 76.6056C40.375 75.5695 41.5085 74.6106 42.619 73.63C42.4789 73.3889 42.2089 73.1989 42.1443 72.924C42.1376 72.8933 42.1344 72.8497 42.1365 72.8019C41.2379 72.4087 40.3553 71.9806 39.4715 71.5577ZM49.9422 66.4552C49.5968 66.5522 49.22 66.5803 48.8553 66.5743C48.5168 66.6369 48.1721 66.6783 47.8279 66.6945C47.9052 67.0252 47.9066 67.3527 48.0076 67.671C48.2068 70.4424 48.9633 73.1658 49.5525 75.8898C50.4855 75.3764 51.5223 75.0488 52.4568 74.5314C51.5504 74.9534 50.6425 75.373 49.7234 75.7677C52.3224 74.4014 55.0677 73.2135 57.7195 71.9161C57.7881 71.6444 57.8563 71.3728 57.9275 71.1017C57.6523 71.0695 57.4085 70.9807 57.1727 70.84C54.6623 69.5145 52.2566 68.0567 49.9422 66.4552ZM42.1775 71.7755C36.6675 67.6175 29.1516 67.5826 22.3182 67.7736C18.7268 67.7991 15.1346 67.8451 11.5438 67.9113C10.9513 67.998 9.00811 67.7085 8.81817 68.3146C9.30571 68.3051 9.26018 68.8087 9.26446 69.1349C10.3158 69.0286 11.3755 68.9726 12.4334 68.9474C19.3969 68.7945 26.3754 68.6415 33.3377 68.8488C34.1994 68.9202 35.0214 69.0927 35.824 69.3585C36.2982 69.479 36.7628 69.6309 37.2127 69.8175C37.9676 70.1209 38.614 70.6006 39.365 70.9113C40.3988 71.3978 41.4479 71.8647 42.4647 72.381C42.6563 72.4784 42.6299 72.6707 42.5086 72.7765C42.6001 72.922 42.7264 73.045 42.8426 73.173C43.1085 72.9684 43.3928 72.7839 43.6492 72.5675C43.3264 72.3053 42.7263 71.5025 42.2479 71.7726C42.2236 71.7883 42.1984 71.7864 42.1775 71.7755ZM7.93536 71.6398C7.8805 71.6548 7.82218 71.6601 7.76543 71.6573C7.84802 71.7365 7.9494 71.7969 8.07403 71.8263C8.12148 71.8378 8.16961 71.8455 8.21856 71.8497C8.10833 71.819 8.00318 71.7399 7.93536 71.6398ZM8.78887 71.5704C8.74314 71.7062 8.6447 71.7982 8.53008 71.8409C8.63577 71.8273 8.74247 71.8039 8.84551 71.7755C8.82547 71.7077 8.80665 71.6393 8.78887 71.5704ZM33.6336 69.4923C27.4742 69.2522 21.2908 69.6039 15.1258 69.6261C14.9932 69.8677 15.0401 70.162 15.1961 70.3956C15.7993 71.2896 17.6374 70.9275 18.6453 71.0245C20.3418 71.0818 22.0221 71.0526 23.7195 70.9923C28.7348 71.2505 33.7487 71.2547 38.7713 71.3507C38.7857 71.3306 38.8035 71.3116 38.826 71.296C37.2345 70.4249 35.515 69.5892 33.6336 69.4923ZM87.2801 59.9249C88.1116 62.9583 89.2246 65.9257 90.117 68.9474C90.3352 69.0398 90.3709 69.3501 90.2166 69.505C90.8471 69.6564 91.1108 70.368 91.451 70.8351C94.6146 68.1703 97.6576 65.1927 99.0965 61.3878C95.5974 61.9941 91.8836 61.3157 88.5223 60.3575C88.1032 60.2273 87.6873 60.0852 87.2801 59.9249ZM68.2332 69.8575C68.2297 69.8651 68.226 69.8725 68.2225 69.88C68.2501 69.8656 68.2786 69.8522 68.3065 69.838C68.2822 69.8444 68.2572 69.8508 68.2332 69.8575ZM84.3465 59.8956C84.0252 59.8286 83.7069 59.7905 83.3797 59.8644C80.6204 61.6616 77.5898 63.0736 74.6609 64.6154C72.9146 65.5327 71.1575 66.4353 69.4441 67.4054C68.9164 68.0572 68.7103 68.9865 68.2918 69.7306C69.432 69.3053 70.589 68.8831 71.6336 68.2775C71.9161 68.2227 73.2718 67.276 73.3406 67.4884C75.9811 66.265 78.5805 64.9693 81.157 63.6349C81.6946 63.3575 82.2309 63.0774 82.7654 62.795C83.1903 62.6226 84.2283 61.848 84.618 61.9523C84.5087 61.5728 84.4582 61.1868 84.3758 60.8029C84.3124 60.5119 84.2541 60.1881 84.3465 59.8956ZM7.06231 69.005C7.11648 69.2197 7.15784 69.4375 7.1961 69.6554C7.20102 69.5853 7.20827 69.5152 7.21661 69.4454C7.2363 69.2833 7.24368 69.0563 7.32891 68.9054C7.23996 68.9376 7.15126 68.9707 7.06231 69.005ZM86.8787 59.7589C86.4676 59.5547 86.173 59.3973 85.6893 59.5167C85.4093 59.5698 85.1747 59.6922 85.1248 59.9611C85.1174 60.001 85.0901 60.0223 85.0574 60.0294C85.6247 61.7655 86.1877 63.509 86.5223 65.3019C86.7074 66.4464 87.1443 67.5295 87.4734 68.6407C87.5534 68.9258 87.6151 69.212 87.6609 69.4991C88.2495 69.1312 88.9621 68.965 89.6639 68.9093C88.7945 65.8715 87.6827 62.8437 86.8768 59.8156C86.8753 59.797 86.8764 59.7778 86.8787 59.7589ZM37.6014 65.505C37.6868 65.8456 37.7222 66.2106 37.9139 66.5226C38.572 66.334 38.9867 66.6381 39.3367 67.1222C39.6007 67.4083 40.1775 67.6427 40.4061 67.1935C40.5919 66.7302 40.9015 66.31 41.4109 66.1115C41.4594 66.0901 41.5092 66.0698 41.5584 66.0509C40.2222 65.9699 38.9058 65.7896 37.6014 65.505ZM72.6834 46.2755C73.0922 46.9257 72.2839 47.0551 71.7547 47.0587C70.7119 47.1675 69.6736 47.3036 68.6307 47.4083C68.6863 47.9871 68.0728 48.2592 67.5643 48.4015C66.7219 48.6946 65.8797 48.9883 65.0369 49.2814C64.4793 49.5139 63.8228 49.6696 63.2781 49.3234C62.8977 49.5087 62.4779 49.7806 62.032 49.6486C62.1269 50.8277 62.1266 52.0101 62.1063 53.1915C62.1044 53.3477 61.9622 53.4873 61.7898 53.4845C60.8666 53.4694 59.9428 53.4047 59.0301 53.2726C59.3562 53.9162 59.9944 54.3477 60.5213 54.8282C60.7718 55.0695 61.1396 55.2573 61.2645 55.5812C64.6957 56.3948 68.1181 57.539 71.0652 59.3849C72.3995 60.2394 71.9205 61.6748 71.3602 62.8185C70.7891 64.1681 70.2042 65.5124 69.6053 66.8517C74.0242 64.4047 78.5743 62.1621 83.076 59.8497C82.5926 59.7618 82.364 59.2925 82.3016 58.882C81.766 56.0158 82.0767 54.5866 83.8572 52.1984C83.7375 51.6164 83.618 51.0346 83.4998 50.4523C82.882 50.5029 82.2253 50.3713 81.6111 50.3234C80.7491 50.3829 79.8326 50.6313 78.994 50.3458C78.254 51.0206 73.9889 49.8061 72.9217 49.4904C71.4715 49.0379 69.9607 48.7002 68.6883 47.8712C68.4851 47.748 68.6752 47.4456 68.8797 47.5695C69.3339 47.8446 69.8099 48.0883 70.3045 48.2941C72.6879 49.126 75.2034 49.5307 77.6834 50.0363C78.0296 50.0631 78.4422 50.3082 78.7449 50.0743C79.0129 49.8584 79.2733 49.6337 79.5369 49.4132C77.7381 47.5816 75.3773 46.4392 72.6834 46.2755ZM87.0438 60.13C87.0367 60.0944 87.0302 60.0584 87.0242 60.0226C87.0121 60.0166 87.0006 60.01 86.99 60.0031C87.008 60.0452 87.026 60.0878 87.0438 60.13ZM85.3006 59.3263C85.3281 59.3127 85.3563 59.2997 85.3846 59.2882C85.3726 59.2712 85.3607 59.2541 85.3504 59.2365C85.3347 59.2668 85.3179 59.2968 85.3006 59.3263ZM83.9344 52.5695C83.3425 53.7042 82.633 54.8142 82.6473 56.1144C82.6238 56.8858 82.7292 57.6596 82.8455 58.422C82.8822 58.663 82.8892 59.0324 83.0838 59.2208C83.3558 59.404 83.7357 59.1535 84.0525 59.2482C84.195 59.2709 84.3746 59.3645 84.5145 59.297C84.8853 59.0369 84.9155 58.5451 85.0926 58.174C84.95 57.4798 84.8052 56.7857 84.6619 56.0919C84.4191 54.9179 84.1761 53.7435 83.9344 52.5695ZM42.6209 34.464C42.2002 37.7589 41.4062 39.6353 40.326 42.799C38.9605 46.4392 36.6686 49.3517 35.782 53.1466C35.8294 53.1306 35.8881 53.1872 35.8582 53.2345C35.6867 53.5058 35.5508 53.793 35.45 54.09C35.2443 54.6963 35.1845 55.3431 35.2645 55.9767C40.0851 53.1426 46.0329 52.4332 51.5867 53.422C52.9823 53.609 54.403 53.7058 55.8055 53.5265C55.5391 52.1167 55.7484 50.6604 55.8592 49.2423C55.9169 48.4393 56.0128 47.5718 56.6111 46.9415C53.5337 46.4266 50.4612 45.4992 47.8338 43.9034C43.874 41.459 43.4706 38.4293 42.6209 34.464ZM100.073 45.589C100.119 45.4603 99.9004 45.4054 99.8543 45.5333C98.8459 48.6508 97.9914 51.8216 97.2498 55.0021C97.1089 55.4403 97.4838 55.4166 97.451 55.1945C98.1535 51.9615 99.0852 48.7579 100.073 45.589ZM57.075 47.0958C56.6952 47.8466 56.7268 48.6997 56.6922 49.5099C56.6471 50.4931 56.5635 51.4773 56.615 52.462C56.5891 52.8602 56.8982 53.5474 56.4412 53.7833C56.3757 54.1054 55.1881 54.1241 54.866 54.172C56.5775 54.3126 58.1981 54.8792 59.8572 55.254C59.2789 54.7333 58.7232 54.0325 58.8563 53.2472C57.629 53.0914 57.3331 52.9666 57.3338 51.7589C57.2563 50.2761 57.3252 48.7084 57.9422 47.3224C57.6497 47.2435 57.3725 47.1715 57.075 47.0958ZM59.1268 46.9689C58.951 47.1905 58.7236 47.3614 58.3934 47.3751C58.3116 47.3786 58.2299 47.3727 58.1492 47.3615C58.0632 49.0415 57.8384 50.7544 58.1805 52.421C59.2703 52.6438 60.3754 52.8054 61.4891 52.88C61.5349 51.6444 61.4791 50.4069 61.3777 49.1749C61.0571 48.8125 60.8281 48.2078 61.4031 47.9386C60.7229 47.4736 59.9337 47.1832 59.1268 46.9689ZM79.8221 49.6466C79.6587 49.7831 79.4973 49.9334 79.3309 50.0773C79.7818 50.1697 80.25 50.1139 80.7068 50.0685C80.3983 49.9552 80.1066 49.8113 79.8367 49.632C79.8321 49.6367 79.8275 49.6421 79.8221 49.6466ZM73.2186 44.8546C72.8574 44.8494 72.4808 44.8491 72.119 44.8868C72.1625 45.3128 72.3282 45.7281 72.5672 46.0939C75.5273 45.6402 78.143 47.2298 80.1082 49.1134C81.0376 49.7674 82.2573 49.85 83.3836 49.881C83.3382 49.6584 83.2921 49.4354 83.2459 49.212C82.7108 49.2471 82.3593 48.7859 81.9373 48.548C79.3828 46.7539 76.605 44.7235 73.2186 44.8546ZM60.4754 44.0304C60.1008 44.9745 59.7702 45.947 59.2322 46.8224C60.715 46.6006 62.0015 47.655 63.0594 48.4738C63.0723 48.4685 63.0855 48.4631 63.0984 48.4581C63.2256 48.5925 63.4014 48.6645 63.5643 48.7443C63.5667 48.8573 63.7443 48.862 63.8279 48.9113C63.8223 48.92 63.8164 48.9291 63.8104 48.9376C64.1028 49.015 64.3775 48.9138 64.6658 48.8175C65.7586 48.424 66.9047 48.1276 67.9695 47.6818C68.3838 47.3675 67.6929 46.8772 68.0154 46.6134C67.3882 46.0155 66.9727 44.9764 65.9402 44.9572C65.9618 44.9678 65.9829 44.9789 66.0037 44.9904C65.3749 44.787 64.7258 45.0417 64.0975 45.0177C62.8078 44.9193 61.7285 44.225 60.4754 44.0304ZM61.7381 48.171C61.7198 48.4634 62.0137 48.6643 62.2361 48.8273C62.2505 48.836 62.265 48.8447 62.2801 48.8527C62.3508 48.8275 62.4227 48.7949 62.4949 48.7589C62.2446 48.56 61.9964 48.3594 61.7381 48.171ZM71.5389 44.6241C71.5132 44.7019 71.452 44.7728 71.3826 44.8156C71.487 45.0244 71.6421 45.2945 71.3279 45.4044C70.2892 45.7628 69.1555 45.6949 68.0828 45.923C68.2505 46.1374 68.898 46.5517 68.4373 46.7677C68.4547 46.8031 68.4718 46.8393 68.4881 46.8761C69.7214 46.7292 70.9637 46.6277 72.2 46.4962C71.7859 45.9475 71.566 45.2911 71.5389 44.6241ZM52.1326 23.4728C51.8134 23.6393 51.4365 23.7126 51.0545 23.7404C47.0652 23.4745 44.4965 23.9567 43.5584 27.423C42.2598 32.4071 43.5143 37.0845 45.9949 41.6378C48.3407 44.7661 52.7915 45.5187 56.6326 46.2482C56.9216 46.0297 57.9809 46.6128 58.3846 46.5851C58.4075 46.5611 58.4307 46.5315 58.4559 46.5109C58.36 46.5898 58.4537 46.5123 58.4832 46.4718C58.7144 46.154 58.8822 45.7929 59.0438 45.4415C59.0441 45.4406 59.045 45.4386 59.0457 45.4376C59.0459 45.4367 59.046 45.4356 59.0467 45.4347C59.4152 44.6213 59.7065 44.1659 60.075 43.3527C52.6502 41.8513 46.8578 36.8658 48.9051 29.882C48.9153 29.8543 48.9613 29.858 48.9617 29.8888C48.9659 30.6863 48.9245 31.4829 48.9783 32.2804C49.2263 37.3383 52.4866 39.7455 57.5633 41.7941C56.245 34.1956 51.1241 31.387 52.1326 23.4728ZM59.3934 24.3761C60.2686 31.7412 59.43 34.9385 58.9461 42.299C59.5499 42.4875 60.1677 42.6402 60.7947 42.7531C61.1432 42.8161 61.1482 43.2636 60.91 43.4181C60.8668 43.491 60.8229 43.1909 60.7898 43.2677L60.6072 43.6993C61.6673 43.9201 62.6702 44.3787 63.7322 44.548C63.3226 44.2378 62.9122 43.917 62.5828 43.5314C62.3747 43.259 62.2168 43.3631 61.9188 43.1613C61.9014 43.5225 61.8811 43.4991 61.8953 43.8585C61.9025 44.0438 61.61 44.0351 61.5897 43.8585C61.3676 42.5232 61.1567 41.5674 61.1746 40.2111C61.1854 35.4752 61.0569 33.0628 62.2371 28.4327C62.2462 28.4114 62.2761 28.4156 62.2791 28.4376C62.3265 28.7791 62.2997 29.1227 62.2869 29.4659C61.9764 34.0199 61.6251 36.1297 61.8875 40.6945C62.0006 41.3878 61.7012 42.5189 62.2791 43.0089C63.0561 43.811 64.0699 43.9958 65.077 44.5411C65.2121 44.6396 65.3832 44.561 65.5398 44.549C65.8188 44.5038 66.091 44.4766 66.3699 44.5392C67.0459 44.6928 67.5138 45.2214 67.909 45.7159C68.805 45.2205 69.9328 45.3536 70.8973 45.0304C70.8613 44.9478 70.8313 44.8623 70.8123 44.7765C63.4451 41.3011 63.5847 39.1741 64.1727 32.421C64.2205 30.2508 64.3072 29.4573 64.0867 27.296C63.8816 26.3382 62.7805 26.3386 62.0252 25.8038C61.3191 25.3095 60.5626 24.8734 59.7479 24.547C59.6318 24.492 59.5118 24.4359 59.3934 24.3761ZM75.7078 43.5724C75.4171 42.9803 74.4085 43.27 73.9119 43.4698C73.8044 43.528 73.7183 43.5924 73.6551 43.6788C73.8003 43.7252 73.9017 43.8643 73.9002 44.0001C74.5187 44.0913 75.1485 44.1363 75.7752 44.1251C75.7956 43.9486 75.7901 43.7976 75.7371 43.6495C75.7351 43.6448 75.7068 43.575 75.7078 43.5724ZM52.3924 24.8497C52.6622 32.0815 56.664 34.3089 58.1336 41.3019C58.7723 34.481 59.1294 31.856 59.2068 25.0089C57.9489 27.0008 54.3968 26.8411 52.7732 25.3107C52.6305 25.1709 52.5015 25.015 52.3924 24.8497Z" fill="black"/>
<path fill-rule="evenodd" clip-rule="evenodd" d="M62.965 14.7466C62.877 13.6767 63.0133 12.5553 62.5743 11.5383C61.8088 9.85107 59.6623 9.28849 57.9982 8.64612C57.3315 8.46103 55.0882 8.43516 54.3076 8.19019C52.541 7.63576 52.1188 6.97517 50.7151 8.03082C50.4781 8.21115 50.3298 8.40715 50.2217 8.67493L50.2261 8.67608C50.1952 8.78772 50.2284 8.89912 50.298 8.9842C49.6893 9.56877 49.4346 10.4452 49.7469 11.2233C50.766 13.2483 50.7181 14.3432 50.3897 16.5202C49.9609 18.5525 50.9408 19.2949 52.5636 20.4007C52.4975 20.5211 52.4838 20.681 52.57 20.7872C54.4465 23.265 57.9848 24.448 61.0164 23.1904C62.247 22.6758 62.7963 21.4444 63.1098 20.3334C63.4751 19.0893 63.5873 17.7784 63.29 16.5111C63.17 15.925 63.0138 15.3431 62.965 14.7466Z" fill="white"/>
<path fill-rule="evenodd" clip-rule="evenodd" d="M52.1406 2.89299C52.3684 2.86085 52.5404 2.99364 52.6222 3.1808L52.6265 3.19088C52.6528 3.25456 52.6821 3.3165 52.7135 3.3774C53.2835 3.11466 54.0969 3.18218 54.4576 3.71427C54.715 4.09428 54.558 4.54529 54.4609 4.94828L54.3972 5.2138C54.5204 5.28743 54.6132 5.41928 54.6089 5.55581L54.6084 5.56632L54.5824 5.9366C54.6646 5.8583 54.7398 5.77304 54.8069 5.68221C54.8532 5.60252 54.9032 5.52422 54.9569 5.44835C55.2728 5.00187 55.9821 5.38989 55.7213 5.86804C55.6713 5.96026 55.615 6.04761 55.5546 6.13182C55.4865 6.25606 55.4306 6.38378 55.3876 6.51497C55.5109 6.56543 55.6058 6.67749 55.6158 6.84662C55.6391 7.2416 55.4184 7.57115 55.0672 7.77821C54.9639 7.83911 54.8572 7.85094 54.7606 7.82832C54.7435 7.8499 54.7265 7.87148 54.7102 7.8934C54.8502 8.00024 54.9765 8.12204 55.085 8.25706C55.4117 8.21112 55.7402 8.18955 56.0687 8.18885C56.4702 8.00406 56.9509 8.00789 57.3824 8.07714C57.6602 8.12169 57.9269 8.20834 58.2002 8.27063C58.4884 8.33606 58.7809 8.33849 59.0724 8.38304C59.4398 8.43906 59.7621 8.59845 59.9646 8.85284C60.1872 8.8591 60.4213 8.94471 60.6154 9.06094C61.0672 9.33168 61.5165 9.60626 61.9672 9.87874C62.1402 9.98335 62.2049 10.1504 62.1731 10.3366L62.1709 10.3485L62.1558 10.4258L62.1914 10.4733C62.3294 10.6564 62.4794 10.8481 62.5687 11.0501C62.7339 11.2739 62.8832 11.5084 63.0154 11.7503C63.1935 12.0753 63.3406 12.4198 63.4402 12.7734C63.465 12.8628 63.4898 12.953 63.5061 13.0441C63.5295 13.1729 63.4935 13.2728 63.4739 13.3963C63.4495 13.5529 63.4406 13.7116 63.4146 13.8686C63.3972 13.9726 63.3032 14.0238 63.2046 14.0266C63.2417 14.2914 63.2684 14.5579 63.2939 14.8224C63.3298 15.2004 63.3543 15.5793 63.3754 15.9583C63.4843 16.1069 63.7069 16.2245 63.8676 16.2652C64.0902 16.3213 64.3235 16.2604 64.5339 16.189C64.6661 16.1441 64.7746 16.3004 64.7102 16.4048C64.5076 16.7326 64.0743 16.7312 63.7461 16.5861C63.6072 16.5248 63.4854 16.4361 63.395 16.3206C63.4006 16.4305 63.4065 16.5405 63.4124 16.6508L63.4179 16.7507C63.4847 17.9177 63.6287 19.1247 63.3954 20.2801C62.9913 22.2815 61.2286 23.8053 59.0754 23.9237C57.9455 23.9858 57.0045 23.6722 56.5366 23.4973C56.0687 23.3223 56.2506 22.9657 56.5754 23.0676C57.135 23.2433 58.1629 23.5049 59.0828 23.3919C61.2509 23.1256 63.0895 22.1074 62.9006 17.722C62.8738 17.1001 62.7913 16.4779 62.7735 15.856C62.7565 15.248 62.7628 14.6397 62.7343 14.0321L62.7248 13.8248C62.7136 13.5826 62.7017 13.3392 62.6824 13.0967C62.6591 13.0027 62.6398 12.9074 62.6113 12.8152C62.5339 12.5643 62.4328 12.3203 62.3072 12.0875C62.2795 12.1073 62.2484 12.1216 62.2146 12.1272C61.9587 12.1703 61.7187 12.1581 61.4791 12.0579C61.3672 12.0116 61.2687 11.95 61.1769 11.8738C61.1332 11.838 61.1039 11.8032 61.0809 11.767C60.965 11.7687 60.8491 11.736 60.7765 11.6577C60.6937 11.5685 60.6799 11.4763 60.7124 11.391L60.7158 11.3824L60.7076 11.3797C60.6098 11.6173 60.415 11.8265 60.2013 11.9678C59.8635 12.1919 59.4409 12.2566 59.0358 12.2625C58.5884 12.2688 58.1165 12.2041 57.675 12.138C57.5584 12.1206 57.4424 12.1007 57.3287 12.0739C57.3243 12.0781 57.3198 12.083 57.315 12.0871C56.9361 12.4278 56.4032 12.5155 55.9224 12.321C55.6447 12.2086 55.4117 12.0276 55.2058 11.8202C55.2028 11.9288 55.1969 12.0374 55.1869 12.1449L55.1827 12.1876C55.1622 12.3879 55.1228 12.6003 54.9617 12.7449C54.7013 12.9791 54.3235 12.8851 54.0232 12.7327C54.0235 12.74 54.0235 12.7477 54.0235 12.7553C54.1046 13.0142 54.1861 13.2735 54.2676 13.5327L54.2852 13.588C54.3444 13.7721 54.4094 13.9564 54.4272 14.149C54.4613 14.5172 54.2006 14.8809 53.765 14.7574C53.5366 14.6928 53.3535 14.5123 53.1779 14.3677L53.0672 14.2778C53.3535 15.1572 53.5521 16.0679 53.5706 16.9856C53.5717 17.0354 53.5261 17.0729 53.4758 17.0747C53.358 17.0792 53.2313 17.0573 53.1128 17.0131C53.1061 17.0127 53.0995 17.0124 53.0924 17.0113C52.8902 16.9839 52.7024 16.9153 52.5369 16.814C52.575 16.9278 52.5921 17.05 52.5821 17.1777C52.5795 17.2087 52.528 17.2195 52.5206 17.1853C52.425 16.7437 51.875 16.41 51.4009 16.4946C50.8921 16.5854 50.5172 16.9967 50.4254 17.4648C50.3269 17.9677 50.5154 18.5492 50.8646 18.9372C51.0254 19.1161 51.2369 19.2653 51.488 19.3029C51.6028 19.32 51.7221 19.3141 51.8335 19.2834C51.8809 19.2702 51.9254 19.2518 51.9706 19.2344C52.0365 19.2093 52.1135 19.2055 52.1758 19.179C52.3169 19.1195 52.4587 19.2417 52.3872 19.3777C52.325 19.4964 52.2691 19.5765 52.1658 19.6377C52.2495 19.7338 52.3254 19.8674 52.3535 19.9032C52.4972 20.0856 52.6432 20.2578 52.8069 20.4245C52.9735 20.5937 53.1554 20.7482 53.3476 20.8912L53.4284 20.9512C53.6136 21.0892 53.7748 21.217 53.9054 21.4149C54.0084 21.5712 53.875 21.7831 53.6821 21.7807C53.0784 21.7727 52.6395 21.2743 52.3269 20.839C52.2824 20.7767 52.2406 20.7109 52.2017 20.6434C52.1876 20.6647 52.1721 20.6845 52.1546 20.7026L52.1891 20.7896C52.2913 21.0457 51.8509 21.2131 51.7232 20.974C51.6302 20.8007 51.5224 20.6358 51.4024 20.4799C51.3317 20.4705 51.2624 20.4301 51.2239 20.3779C51.1265 20.2453 51.0172 20.1113 50.925 19.97C50.8739 19.9245 50.8213 19.8806 50.7676 19.8378C50.7521 19.8507 50.7361 19.8636 50.7209 19.8771C50.6535 20.0215 50.5702 20.1534 50.4669 20.2777L50.4447 20.3042C50.2468 20.5386 49.9889 20.7785 49.6698 20.8359C49.5724 20.8533 49.4787 20.7395 49.565 20.6667C49.7884 20.4781 50.0524 20.3497 50.2584 20.1392C50.3598 20.0354 50.453 19.9212 50.5331 19.8015L50.5513 19.7738C50.5646 19.7532 50.5784 19.7327 50.5924 19.7118C50.4995 19.6523 50.4065 19.5925 50.3135 19.5326C50.0576 19.738 49.7244 19.832 49.4413 20.0022L49.4132 20.0195C49.1572 20.1802 48.8876 19.8246 49.0928 19.6294C49.319 19.4149 49.5078 19.1593 49.7082 18.921C49.6139 18.7579 49.5694 18.5651 49.5526 18.3702C49.5461 18.315 49.5409 18.2598 49.5358 18.2046C49.3921 18.2067 49.2476 18.1604 49.1254 18.0808L49.0791 18.0498C48.9306 18.0943 48.7746 18.1159 48.6254 18.1121C48.2743 18.1023 48.1306 17.7254 48.3502 17.4871C48.5743 17.2435 48.9665 17.1902 49.2772 17.3085C49.2872 17.3037 49.2976 17.2984 49.3076 17.2932C49.2928 17.2292 49.2961 17.1711 49.3129 17.1201L49.3081 17.089C49.2397 16.9905 49.1948 16.878 49.1778 16.7592C49.1643 16.665 49.167 16.5717 49.1902 16.4788C49.1979 16.4478 49.2139 16.4158 49.2262 16.3835C49.2009 16.3236 49.1861 16.2617 49.1815 16.1994C49.1744 16.1915 49.1674 16.1834 49.1607 16.1746C49.0065 15.9712 49.0377 15.7261 49.1844 15.5615C49.1851 15.551 49.1861 15.5405 49.1876 15.5301C49.1791 15.512 49.1712 15.4936 49.164 15.4751C49.0206 15.3392 48.9154 15.1756 48.935 14.973C48.9465 14.8538 48.9986 14.7465 49.0776 14.6662C49.0636 14.6273 49.0622 14.5823 49.0792 14.5447C48.9532 14.2299 48.9692 13.8507 49.0598 13.4986C49.0398 13.445 49.0295 13.3869 49.0317 13.3253C49.0421 13.064 49.2828 12.8239 49.568 12.827C49.6023 12.8273 49.6345 12.8315 49.6654 12.8376L49.6658 12.8314C49.6767 12.753 49.6996 12.6805 49.7332 12.6154C49.7167 12.6098 49.7014 12.6018 49.6881 12.5911C49.5053 12.6827 49.3119 12.7527 49.1092 12.8004C48.9601 12.8355 48.8074 12.6763 48.9001 12.5448C48.9431 12.4838 48.9905 12.4291 49.0416 12.379C48.969 12.3794 48.8952 12.384 48.8206 12.393C48.6865 12.4094 48.5369 12.3234 48.4498 12.2072C48.3417 12.306 48.2332 12.4045 48.1246 12.503C47.8498 12.7532 47.4346 12.5691 47.3913 12.2392C47.3095 12.2187 47.2332 12.1839 47.1661 12.1341C46.7328 12.3109 46.2665 12.408 45.7898 12.4264C45.4476 12.4397 45.2476 12.0652 45.4076 11.8007C45.515 11.6233 45.6484 11.4639 45.8021 11.3254C45.5635 11.3939 45.3172 11.4433 45.0658 11.475C44.9298 11.4921 44.7376 11.3863 44.6832 11.269C44.475 10.818 44.4928 10.3478 44.7324 9.90902C44.7417 9.89162 44.7521 9.87491 44.7621 9.85821C44.7869 9.80009 44.8139 9.74267 44.8432 9.6863C44.5484 9.39746 44.5228 8.96802 44.6817 8.60854C44.618 8.51145 44.5935 8.39452 44.6369 8.28873C44.7602 7.98423 44.938 7.70304 45.1624 7.46153C45.1409 7.42256 45.1221 7.38114 45.1061 7.3366C44.9798 6.97642 45.1261 6.54177 45.4213 6.29086C45.6069 6.13287 45.8202 6.03821 46.048 5.97766C46.1439 5.81828 46.2672 5.67455 46.4109 5.55345C46.4165 5.54196 46.4221 5.53048 46.4284 5.519C46.6521 5.12297 47.0595 4.91069 47.4961 4.86162C47.5132 4.70676 47.6243 4.55886 47.7858 4.51084C47.8302 4.37686 47.8965 4.2488 47.9876 4.13256C48.1309 3.94952 48.3691 3.86321 48.5935 3.98327C48.7165 4.04904 48.8343 4.12456 48.9446 4.20808C48.9942 4.18624 49.0504 4.1721 49.1138 4.16759L49.1298 4.16667L49.495 4.14927C49.648 4.08558 49.8006 4.01877 49.9535 3.95369C50.0454 3.88235 50.148 3.82284 50.2598 3.77865C50.3865 3.72888 50.5161 3.7007 50.6461 3.6913C50.7517 3.65894 50.858 3.6304 50.9661 3.60813C51.2202 3.55593 51.4861 3.5267 51.7498 3.52913C51.7552 3.465 51.7579 3.4001 51.7574 3.33444L51.7569 3.30154C51.7509 3.091 51.9298 2.92292 52.1406 2.89299ZM51.8846 19.7379C51.8484 19.7452 51.8117 19.7512 51.775 19.7553C51.7861 19.7811 51.7972 19.8068 51.808 19.8326C51.8376 19.8482 51.8676 19.8632 51.8976 19.8771C51.8887 19.8298 51.8835 19.7821 51.8846 19.7379ZM49.9818 19.2066L49.9572 19.2492C49.9532 19.2562 49.9493 19.2631 49.9454 19.2699C49.9976 19.266 50.0502 19.2671 50.1021 19.2727L50.1019 19.2675C50.0952 19.2653 50.0886 19.2634 50.0822 19.2605C50.0464 19.2443 50.0132 19.2262 49.9818 19.2066ZM51.0102 17.263C51.3379 17.2809 51.6155 17.3281 51.9135 17.4628L51.9391 17.4745C52.2024 17.5974 52.638 17.8243 52.6013 18.1497C52.5909 18.2422 52.5195 18.3397 52.4069 18.3324C52.0984 18.3125 51.9221 18.0202 51.7132 17.8379C51.5024 17.6541 51.2435 17.4651 50.9884 17.3388C50.9523 17.321 50.9665 17.2647 51.0057 17.2629L51.0102 17.263ZM49.5243 12.9759C49.4458 12.9784 49.4721 13.0501 49.5124 12.9902C49.5158 12.9853 49.5198 12.9805 49.5243 12.9759ZM53.7626 8.19017C53.019 8.20855 52.2706 8.6211 51.7135 9.03811C51.2289 9.4009 50.8104 9.83242 50.4399 10.2975C50.3445 10.5292 50.2627 10.7656 50.1935 11.0038C50.148 11.1611 50.1195 11.3202 50.0813 11.4788L50.0695 11.5275C50.0395 11.5801 50.0172 11.6367 50.001 11.6952C50.0685 11.7588 50.1561 11.8044 50.2526 11.826C50.2836 11.833 50.3095 11.848 50.3299 11.868C50.4075 11.7463 50.4754 11.6178 50.5148 11.4816L50.5163 11.4753C50.6655 11.2456 50.8276 11.0231 51.0013 10.8082C51.4806 10.2149 52.0084 9.67412 52.6428 9.22415C53.1239 8.88311 53.6617 8.61585 54.2335 8.4422C54.0936 8.33609 53.9346 8.25215 53.7626 8.19017Z" fill="black"/>
<path fill-rule="evenodd" clip-rule="evenodd" d="M57.5888 19.2262C58.2237 19.1538 58.8391 19.3364 59.4598 19.4285C59.7875 19.4771 60.1156 19.5133 60.4472 19.5268C60.5139 19.5295 60.5807 19.5311 60.6474 19.5324C60.6536 19.4772 60.6865 19.4265 60.7578 19.3962C60.9038 19.3339 61.0207 19.3059 61.1811 19.3119C61.3279 19.3173 61.4752 19.3315 61.6197 19.3564C61.8822 19.4016 62.1459 19.5042 62.3379 19.6825C62.7822 20.095 62.7146 20.7575 62.3712 21.2068C61.6619 22.1352 60.3672 22.1783 59.2584 22.1661L59.1561 22.1649C58.1465 22.1513 56.7021 22.2928 56.2434 21.2135C56.0747 20.8166 56.0981 20.3566 56.3047 19.9759C56.551 19.5219 57.0695 19.2854 57.5888 19.2262ZM60.7425 20.7719L60.7334 20.7723C60.2679 20.7891 59.8025 20.801 59.3368 20.8087C59.3507 20.9211 59.365 21.0335 59.3812 21.1457C59.394 21.2339 59.4076 21.3221 59.4219 21.4101C59.4279 21.4474 59.45 21.5052 59.4438 21.5422L59.4415 21.5568V21.5568C59.4654 21.5669 59.4871 21.5833 59.5033 21.607C59.5089 21.6153 59.5129 21.6236 59.517 21.6318C59.8786 21.6345 60.2677 21.6279 60.6363 21.5661L60.6371 21.5586V21.5586C60.6438 21.5144 60.6634 21.4846 60.6894 21.4642C60.7153 21.3231 60.7129 21.1727 60.7229 21.0327C60.7292 20.9458 60.7359 20.8589 60.7425 20.7719ZM58.9811 20.8147C58.6456 20.8201 58.3099 20.8242 57.9745 20.8203L57.8222 20.8181V20.8181C57.8544 20.9802 57.8894 21.1418 57.9184 21.305C57.9488 21.475 57.7895 21.5832 57.6516 21.5788C57.6671 21.5812 57.6825 21.5836 57.698 21.5857C58.1288 21.6429 58.5761 21.6277 59.0133 21.6273C58.9898 21.4983 58.9994 21.3527 58.9958 21.2451L58.9952 21.2284C58.9885 21.0904 58.9838 20.9526 58.9811 20.8147ZM56.7021 20.7849C56.7138 20.8692 56.7364 20.9517 56.7703 21.0285C56.9135 21.353 57.2419 21.5044 57.5893 21.5682C57.529 21.5487 57.4811 21.5017 57.469 21.4212C57.4389 21.2211 57.4281 21.0176 57.4273 20.8145C57.1852 20.8123 56.9414 20.8075 56.7021 20.7849ZM62.0051 20.7157C61.8327 20.7539 61.6324 20.7364 61.4633 20.7436C61.3048 20.7503 61.1463 20.7562 60.9879 20.7623C60.9953 20.8639 61.0026 20.9655 61.0105 21.0671C61.0207 21.1983 61.0217 21.3371 61.0484 21.4678C61.3673 21.3655 61.653 21.2016 61.8674 20.9393C61.9208 20.874 61.9686 20.7974 62.0051 20.7157ZM57.516 19.7586C57.229 19.8224 56.9575 19.9573 56.8115 20.204C56.7249 20.3504 56.6868 20.5239 56.6941 20.6949C56.9366 20.6683 57.1833 20.6583 57.4288 20.65C57.4296 20.6084 57.4307 20.5669 57.432 20.5255L57.4358 20.4194C57.4425 20.217 57.4459 19.9628 57.516 19.7586ZM59.0012 19.7833L58.8748 19.7699C58.524 19.7324 58.1733 19.6929 57.8225 19.7155C57.7717 19.7188 57.7201 19.724 57.6685 19.7311C57.7305 19.9414 57.7253 20.1884 57.7512 20.3965C57.7612 20.477 57.7738 20.5568 57.7878 20.6363L57.8487 20.6337V20.6337C58.2252 20.6145 58.6021 20.6027 58.9788 20.5887C58.9788 20.5222 58.9792 20.4557 58.9803 20.3891L58.9817 20.3226C58.986 20.1527 58.9743 19.9612 59.0012 19.7833ZM60.763 19.7563C60.3955 19.812 60.0157 19.8239 59.6548 19.8243C59.5106 19.8245 59.3665 19.8161 59.2225 19.8041C59.2319 19.8762 59.2368 19.9491 59.2438 20.0201C59.258 20.1637 59.2743 20.3071 59.292 20.4503L59.3077 20.5756V20.5756C59.7708 20.5559 60.2339 20.5346 60.6969 20.5125L60.7622 20.5092V20.5092L60.7806 20.2683C60.793 20.1077 60.8067 19.9472 60.8261 19.7873L60.8116 19.7824V19.7824C60.7945 19.7758 60.7783 19.7667 60.763 19.7563ZM60.9226 19.8161C60.9428 20.0431 60.954 20.2712 60.9689 20.4986L61.2741 20.4833C61.325 20.4807 61.3759 20.478 61.4267 20.4753C61.6245 20.4646 61.8787 20.4083 62.0742 20.4608C62.0892 20.2938 62.0384 20.131 61.8779 20.0188C61.5963 19.8218 61.2376 19.8919 60.9226 19.8161ZM59.8797 17.7861C60.3342 17.5415 61.4746 17.2915 61.5469 18.0601C61.5801 18.4137 61.3002 18.7068 60.9735 18.8375L60.9612 18.8424C60.6547 18.9608 60.1115 19.0945 59.8463 18.8377C59.6255 18.6241 59.9183 18.241 60.1926 18.416C60.3336 18.5059 60.6303 18.4397 60.7876 18.3969L60.7974 18.3942C60.9672 18.3473 61.1935 18.1973 61.1233 18.0009C61.0612 17.8272 60.7969 17.7955 60.6314 17.7898C60.3843 17.7815 60.1438 17.8354 59.899 17.8529C59.8602 17.8557 59.8483 17.803 59.8797 17.7861ZM61.7625 16.5502C62.3794 16.5231 62.7631 17.1559 62.6213 17.6745C62.5968 17.764 62.4902 17.8518 62.3874 17.8417L62.3615 17.8395C62.3484 17.8383 62.3351 17.8368 62.323 17.8336C62.2254 17.8082 62.1378 17.7128 62.1449 17.6139L62.1468 17.5851C62.1612 17.3401 62.133 17.0579 61.8231 16.9985C61.5604 16.9482 61.4136 17.1859 61.4105 17.4046C61.4099 17.4435 61.3635 17.4706 61.3269 17.4497C61.137 17.3411 61.1041 17.125 61.1766 16.9389C61.2686 16.7032 61.4988 16.5618 61.7625 16.5502ZM57.1846 16.6859C57.6335 16.5452 58.1179 16.7701 58.3352 17.143C58.4115 17.1637 58.4876 17.2189 58.4771 17.3035C58.4618 17.4252 58.4387 17.5019 58.3489 17.5941C58.2085 17.7384 57.9455 17.6647 57.8872 17.487L57.8847 17.479C57.8184 17.2493 57.5494 17.0978 57.3043 17.1782C57.018 17.2721 57.0263 17.5562 56.8255 17.7217C56.8019 17.7412 56.7736 17.7443 56.7453 17.7314C56.532 17.6346 56.5703 17.3431 56.6464 17.1762C56.7461 16.9573 56.9399 16.7626 57.1846 16.6859ZM56.5732 15.4051C56.937 15.0563 57.8856 14.7188 58.1344 15.3628C58.1819 15.4855 58.0809 15.6509 57.945 15.6764C57.7224 15.718 57.5249 15.6272 57.3038 15.6435C57.1248 15.6567 56.9381 15.7129 56.795 15.8171C56.3986 16.1057 56.3114 16.5938 56.0353 16.961C56.0218 16.9789 55.9957 16.9714 55.9932 16.9503C55.9303 16.4156 56.1748 15.787 56.5732 15.4051ZM61.3175 15.0617C61.5589 14.9816 61.8323 14.9885 62.0749 15.0595C62.3194 15.1311 62.5438 15.2671 62.7167 15.4448C62.7951 15.5255 62.8677 15.6145 62.9259 15.7093C62.9569 15.7595 62.9894 15.8632 63.0245 15.925C63.2147 16.0282 63.296 16.2632 63.1257 16.4305L63.118 16.4378L63.0953 16.459C63.0037 16.5442 62.8657 16.5811 62.7408 16.5471C62.4613 16.4711 62.4273 16.2642 62.3305 16.0446C62.2666 15.8995 62.1571 15.7712 62.0243 15.6769C61.7105 15.4542 61.1959 15.3832 60.8181 15.4882C60.798 15.4938 60.7744 15.4697 60.7887 15.4522C60.8603 15.3651 60.9016 15.2936 60.9974 15.2233C61.0947 15.152 61.2009 15.1004 61.3175 15.0617Z" fill="black"/>
</svg>
