<svg width="339" height="430" viewBox="0 0 339 430" fill="none" xmlns="http://www.w3.org/2000/svg">
<path fill-rule="evenodd" clip-rule="evenodd" d="M255.774 234.373C253.173 224.892 250.781 220.873 246.16 217.577C241.838 214.495 235.53 211.906 226.324 210.015C216.736 208.44 216.464 203.757 214.06 196.23C213.359 193.967 209.883 193.365 208.384 194.996C208.172 194.782 207.952 194.585 207.723 194.408C207.928 193.329 206.256 190.235 206.311 189.203C206.895 178.429 203.144 173.018 193.784 171.007C191.749 170.569 177.923 170.311 175.938 170.827C167.261 173.082 158.72 180.239 160.027 188.862C157.303 192.207 154.638 194.249 150.436 195.327C141.084 196.442 131.734 197.435 122.38 198.284C104.071 200.983 86.9037 210.09 75.1706 223.373C74.0884 224.6 73.7758 226.264 74.7309 227.571C73.9827 230.583 69.7711 237.888 73.085 239.953C67.6356 252.201 55.0975 275.875 55.074 282.638C54.9751 311.051 58.2411 348.035 88.0757 363.758C89.2702 364.862 89.4411 366.083 89.9583 367.725C91.27 372.898 96.0336 376.594 101.248 376.293C126.932 376.829 151.81 373.884 177.495 373.742C188.822 373.679 202.444 375.268 212.284 376.326C222.124 377.385 232.057 376.448 241.5 373.742C242.296 374.92 243.906 375.606 245.539 375.268C255.328 373.44 263.244 367.771 270.139 361.575C272.246 357.973 280.474 347.71 277.203 344.137C280.168 332.359 280.014 319.703 274.746 308.487C275.492 306.431 274.131 304.171 274.746 302.048C275.19 300.511 276.329 299.876 276.902 298.355C277.709 296.214 276.832 293.342 275.923 291.157C275.551 290.068 276.608 288.896 276.902 287.785C278.296 282.544 275.105 283.006 272.805 279.503C272.839 279.492 273.437 276.991 273.435 277.004C273.787 275.218 272.904 272.931 272.135 271.44C271.615 270.433 270.5 269.802 269.393 269.918C270.508 266.361 271.918 263.401 273.435 259.974C276.116 253.933 279.51 248.149 283.361 242.681C284.938 240.442 282.82 237.848 280.268 237.696C272.009 237.203 263.84 236.085 255.774 234.373Z" fill="white"/>
<path fill-rule="evenodd" clip-rule="evenodd" d="M231.669 280.054C228.365 278.837 224.808 278.164 221.233 277.903C223.158 277.586 225.088 277.28 227.034 277.123C228.392 277.014 229.651 277.025 230.672 277.993C231.352 278.638 231.672 279.468 232.119 280.231C231.973 280.169 231.821 280.11 231.669 280.054ZM267.127 268.672C261.716 268.93 256.3 270.139 251.406 272.329C249.404 273.227 247.589 274.523 247.058 276.655C246.789 277.743 246.855 278.868 246.998 279.968C247.106 280.8 247.133 281.863 247.903 282.427C248.034 282.523 248.174 282.595 248.32 282.649C246.515 283.415 244.796 284.335 243.268 285.283C241.872 286.149 240.436 287.485 239.792 288.991C239.738 288.82 239.684 288.66 239.631 288.508C238.532 285.457 236.84 282.958 234.175 281.277C234.647 281.078 234.972 280.607 234.82 279.956C234.187 277.238 231.516 274.876 228.5 275.045C225.196 275.227 221.648 276.357 218.661 277.785C217.572 277.763 216.485 277.777 215.411 277.821C215.226 277.827 215.235 278.063 215.411 278.082C216.282 278.186 217.154 278.301 218.025 278.436C220.096 278.747 222.161 279.143 224.181 279.633C226.605 280.223 229.111 280.814 231.376 281.844C235.769 283.844 238.488 289.072 237.93 293.622C237.837 294.368 237.53 296.623 236.428 296.39C235.497 296.194 235.127 294.368 234.802 293.692C233.931 291.897 232.361 290.724 230.478 289.93C228.267 288.996 225.9 288.365 223.608 287.631C222.31 287.213 221.012 286.795 219.711 286.379C218.38 285.95 217.115 285.358 215.698 285.658C214.841 285.841 214.743 286.8 215.223 287.35C215.954 288.189 217.04 288.435 218.094 288.78C219.484 289.235 220.872 289.689 222.26 290.144C224.405 290.845 226.652 291.437 228.744 292.295L228.679 292.435C228.508 292.39 228.308 292.55 228.341 292.747C228.655 294.561 229.09 296.66 228.607 298.477C228.225 299.919 226.879 301.515 225.13 301.091C225.405 300.856 225.506 300.449 225.321 300.073C224.629 298.682 215.557 293.19 214.749 295.229C214.722 295.302 214.805 295.355 214.871 295.344C215.56 295.209 216.715 296.315 217.267 296.665C218.064 297.17 218.872 297.664 219.661 298.183C220.523 298.75 221.364 299.344 222.185 299.958C222.83 300.441 223.316 300.943 224.056 301.187C223.668 301.361 223.361 301.683 223.23 302.096C222.895 303.17 222.251 304.081 221.132 304.556C219.959 305.049 218.637 304.738 217.402 304.859C215.718 305.018 214.25 305.77 213.024 306.845C210.448 309.105 209.156 313.088 205.554 314.157C203.403 314.794 201.016 314.392 198.837 314.104C196.405 313.781 194.036 313.526 191.586 313.862C189.24 314.185 187.023 314.948 184.88 315.879C182.872 316.751 180.652 317.739 178.87 319.04C178.503 317.977 178.133 316.925 177.852 315.84C177.19 313.274 176.832 310.659 176.745 308.022C176.665 305.512 176.814 302.991 177.044 300.491C177.157 299.243 177.336 298 177.45 296.752C177.479 296.438 177.539 296.101 177.584 295.765C180.765 294 184.107 292.649 187.476 291.257C187.485 291.255 187.494 291.249 187.503 291.246C187.608 291.201 187.709 291.159 187.814 291.117C187.811 291.111 187.808 291.106 187.802 291.1C188.187 290.879 188.455 290.584 188.616 290.253C193.472 287.226 197.53 283.095 200.556 278.276C201.824 276.256 203.045 274.161 204.704 272.391C206.471 270.503 208.568 269.381 211.165 268.798C214.2 268.114 217.327 267.704 220.436 267.471C222.134 267.345 224.032 267.149 225.883 267.157C227.172 267.165 228.434 267.269 229.592 267.569C231.308 268.013 232.31 269.239 233.388 270.478C234.417 271.668 235.441 272.86 236.402 274.1C237.312 275.275 238.171 276.489 238.917 277.763C239.365 278.525 239.78 279.311 240.129 280.122C240.251 280.408 240.412 280.733 240.487 281.03C240.562 281.33 240.424 281.648 240.782 281.648C239.305 281.667 239.32 283.886 240.788 283.804C246.536 283.49 238.303 272.944 237.1 271.474C235.396 269.393 233.638 266.677 230.911 265.71C230.872 265.696 230.83 265.682 230.791 265.67C231.585 264.964 232.212 264.117 232.812 263.255C233.429 262.369 234.166 261.354 234.369 260.302C234.498 259.632 233.611 259.25 233.191 259.836C232.579 260.692 232.284 261.774 231.827 262.714C231.361 263.668 230.794 264.568 230.347 265.53C229.27 265.219 228.106 265.076 226.921 265.028C228.416 263.127 230.97 259.457 231.278 258.986C232.692 256.804 234.038 254.555 235.324 252.302C236.715 249.862 237.906 247.32 239.237 244.852C239.992 243.453 240.753 242.041 241.591 240.684C241.881 240.218 242.191 239.753 242.543 239.329C242.612 239.245 242.698 239.175 242.779 239.096C242.871 239.049 242.967 238.995 243.021 238.967C243.504 238.707 243.674 238.101 244.014 237.716C244.557 237.097 245.196 237.024 246.014 237.015C247.756 236.998 249.505 237.063 251.245 237.107C253.802 237.175 256.357 237.27 258.911 237.396C259.684 237.436 260.454 237.475 261.227 237.52C264.942 237.728 268.654 237.999 272.358 238.334C275.634 238.628 278.911 239.108 282.191 239.338C277.75 249.253 272.826 258.989 267.252 268.386C267.195 268.481 267.153 268.576 267.127 268.672ZM242.489 294.216C241.773 294.525 241.078 294.909 240.43 295.347C240.538 294.665 240.565 293.947 240.535 293.226C241.069 293.765 241.752 294.073 242.489 294.216ZM273.062 277.16C273.011 277.165 272.964 277.19 272.94 277.238C271.949 279.159 272.363 281.305 273.981 282.811C274.829 283.597 276.676 284.483 276.616 285.773C276.565 286.817 275.357 287.692 274.841 288.553C274.36 289.355 274.181 290.236 274.566 291.106C275.058 292.219 276.434 292.662 276.906 293.757C277.502 295.145 276.533 296.82 275.852 298.028C275.22 299.148 274.402 300.267 273.859 301.45C270.221 303.221 266.965 305.936 264.166 308.693C261.101 311.708 258.472 315.256 253.605 315.167C253.119 315.158 252.749 315.4 252.528 315.733C251.173 315.792 249.815 315.817 248.461 315.823C246.079 315.834 243.698 315.812 241.32 315.742C241.152 315.2 241.275 314.466 241.266 314.008C241.236 312.536 241.221 311.066 241.155 309.593C241.138 309.184 241.12 308.771 241.102 308.362C241.958 309.818 243.629 310.48 245.533 310.379C248.595 310.211 251.675 309.739 254.706 309.316C256.303 309.094 257.897 308.841 259.487 308.572C260.794 308.353 262.638 308.41 263.551 307.425C263.766 307.195 263.778 306.774 263.441 306.62C262.537 306.202 261.967 306.435 260.973 306.615C259.762 306.836 258.547 307.046 257.329 307.243C254.993 307.624 252.65 307.978 250.302 308.289C248.965 308.466 247.625 308.64 246.285 308.777C245.115 308.895 243.796 309.055 242.853 308.227C240.952 306.555 242.018 303.753 243.22 302.065C243.244 302.031 243.244 302 243.235 301.972C244.369 301.722 245.5 301.431 246.628 301.226C248.798 300.833 250.982 300.503 253.17 300.208C257.664 299.605 262.188 299.206 266.705 298.806C267.825 298.704 267.836 297.05 266.705 297.148C260.215 297.706 253.692 298.236 247.288 299.411C245.682 299.703 244.089 300.034 242.504 300.407C241.755 300.581 240.952 300.853 240.168 300.862C240.12 300.862 240.072 300.862 240.024 300.859C238.488 300.814 238.264 299.577 239.108 298.548C239.213 298.421 239.32 298.295 239.431 298.174C240.923 296.502 242.781 295.386 244.697 294.23C246.843 293.956 248.983 293.344 251.084 292.895C256.27 291.785 261.457 290.674 266.646 289.566C267.663 289.347 267.231 287.877 266.213 288.093C262.274 288.932 258.335 289.771 254.396 290.609L248.631 291.838C247.479 292.082 246.04 292.573 244.685 292.75C244.017 292.836 243.37 292.848 242.785 292.719C240.896 292.298 240.8 290.079 241.615 288.761C242.528 287.28 244.253 286.354 245.784 285.515C248.437 284.06 251.26 283.013 254.017 281.807C254.507 281.706 254.996 281.605 255.485 281.504C258.332 280.915 261.585 280.626 264.265 279.547C265.067 279.227 264.628 278.037 263.835 278.054C261.755 278.097 259.58 278.792 257.547 279.204C255.348 279.653 253.146 280.099 250.946 280.545C250.726 280.59 249.419 280.983 249.222 280.896C249.096 280.84 249.051 280.43 249.01 280.161C248.875 279.274 248.777 278.343 248.923 277.454C249.245 275.46 251.015 274.523 252.806 273.757C256.792 272.054 261.164 270.989 265.515 270.562C266.518 270.464 267.52 270.403 268.529 270.371C269.713 270.338 270.69 270.141 271.289 271.238C272.232 272.966 272.752 275.188 273.062 277.16ZM267.525 339.807C266.657 336.983 266.893 333.967 266.298 331.087C265.991 329.601 265.571 328.127 265.114 326.676C264.744 325.504 264.128 324.258 264.058 323.035C264.054 322.953 264.156 322.906 264.227 322.943C265.452 323.603 266.394 325.029 267.092 326.149C267.929 327.488 268.568 328.89 269.084 330.365C270.111 333.303 270.954 336.846 269.629 339.807C269.235 340.688 267.85 340.865 267.525 339.807ZM240.678 302.401C241.412 302.334 242.146 302.202 242.88 302.048C242.06 302.8 241.302 303.706 240.881 304.71C240.815 303.939 240.731 303.17 240.621 302.404C240.639 302.404 240.66 302.404 240.678 302.401ZM233.623 361.185C232.328 360.336 231.385 359.149 230.287 358.101C229.207 357.071 230.895 355.484 231.975 356.515C232.912 357.408 233.725 358.525 234.827 359.247C235.358 359.595 235.604 360.224 235.256 360.783C234.949 361.276 234.152 361.532 233.623 361.185ZM226.404 328.55C228.767 327.59 231.091 326.544 233.564 325.852C235.042 325.438 235.668 327.605 234.199 328.016C231.921 328.653 229.785 329.603 227.609 330.488C226.211 331.055 224.997 329.122 226.404 328.55ZM201.447 327.878C200.869 326.538 203.18 325.96 203.749 327.282C204.405 328.803 205.156 330.285 205.812 331.805C206.389 333.146 204.079 333.723 203.51 332.402C202.854 330.881 202.102 329.399 201.447 327.878ZM176.814 354.643C176.429 355.125 175.787 355.387 175.181 355.046C174.673 354.759 174.363 353.999 174.753 353.51C175.891 352.085 177.044 350.677 178.377 349.406C179.458 348.375 181.146 349.963 180.065 350.992C178.874 352.127 177.831 353.37 176.814 354.643ZM173.292 204.468C174.388 205.171 175.348 206.026 176.284 206.905C177.372 207.928 175.684 209.514 174.596 208.492C173.807 207.751 173.011 206.999 172.087 206.406C171.553 206.063 171.314 205.425 171.659 204.87C171.968 204.373 172.759 204.126 173.292 204.468ZM209.129 240.578C208.51 241.744 207.952 242.887 207.917 244.212C207.879 245.656 205.492 245.657 205.53 244.212C205.575 242.478 206.256 240.974 207.068 239.445C207.755 238.151 209.813 239.289 209.129 240.578ZM222.278 211.577C223.561 210.773 224.755 212.717 223.483 213.514C222.452 214.16 221.42 214.807 220.389 215.453C219.106 216.257 217.912 214.313 219.184 213.516C220.215 212.869 221.247 212.223 222.278 211.577ZM165.246 262.283C165.027 263.709 162.727 263.099 162.944 261.686C163.28 259.504 163.689 257.35 164.319 255.224C164.732 253.832 167.034 254.427 166.621 255.82C165.991 257.946 165.582 260.1 165.246 262.283ZM156.876 287.987C155.339 287.957 155.339 285.713 156.876 285.743C158.267 285.771 159.634 286.115 160.975 286.43C162.467 286.78 161.831 288.944 160.34 288.594C159.206 288.327 158.052 288.011 156.876 287.987ZM153.786 339.767C153.258 340.008 152.717 340.226 152.183 340.455C151.115 340.914 150.046 341.374 148.979 341.835C146.754 342.795 144.531 343.758 142.31 344.724C137.864 346.659 133.383 348.525 128.926 350.439C124.381 352.39 119.847 354.368 115.32 356.355C113.187 357.292 111.038 358.193 108.893 359.105C107.059 359.884 104.791 361.247 102.778 361.375C102.675 361.381 102.64 361.258 102.699 361.195C103.46 360.382 104.673 359.909 105.673 359.381C106.694 358.84 107.734 358.332 108.77 357.817C110.928 356.742 113.09 355.676 115.269 354.638C119.629 352.565 123.997 350.506 128.367 348.449C132.823 346.352 137.273 344.241 141.768 342.218C143.884 341.266 146.003 340.316 148.122 339.37C149.271 338.857 150.419 338.345 151.568 337.834C152.065 337.613 152.556 337.375 153.063 337.177C153.737 336.915 154.25 336.969 154.945 336.807C156.079 336.544 156.57 337.899 155.699 338.49C154.983 338.976 154.605 339.391 153.786 339.767ZM137.849 362.776C137.604 362.217 138.117 361.536 138.683 361.396C139.36 361.228 139.904 361.615 140.151 362.18C140.805 363.676 141.738 365.049 142.938 366.209C144.01 367.245 142.323 368.832 141.249 367.796C139.746 366.342 138.666 364.643 137.849 362.776ZM126.124 326.758C125.035 325.735 126.724 324.148 127.812 325.171L130.906 328.079C131.994 329.102 130.305 330.688 129.218 329.666L126.124 326.758ZM94.3812 322.016C92.1569 322.63 89.5624 323.193 88.0459 324.977C87.9719 325.064 87.8474 324.952 87.8919 324.865C89.8334 321.082 95.4012 319.755 99.2562 318.43C101.983 317.492 104.78 316.714 107.602 316.02C107.32 312.995 108.097 309.753 108.368 306.742C108.656 303.528 108.891 300.306 109.012 297.082C109.135 293.793 109.165 290.482 109.05 287.193C108.935 283.915 108.482 280.677 108.284 277.411C108.265 277.095 108.733 277.08 108.834 277.341C110.005 280.372 110.506 283.73 110.887 286.926C111.28 290.219 111.41 293.502 111.36 296.814C111.308 300.219 111.098 303.616 110.808 307.011C110.671 308.62 110.512 310.226 110.362 311.834C110.248 313.061 110.195 314.278 109.928 315.466C111.63 315.074 113.335 314.702 115.035 314.341C120.456 313.191 125.9 312.124 131.299 310.881C133.948 310.271 136.56 309.54 139.198 308.891C141.682 308.28 144.304 307.539 146.855 307.266C147.765 307.168 147.881 308.339 147.278 308.736C145.205 310.104 142.452 311.056 140.058 311.822C137.655 312.59 135.158 313.143 132.695 313.712C127.559 314.9 122.374 315.87 117.197 316.882C112.027 317.892 106.848 318.894 101.736 320.14C99.2747 320.741 96.8214 321.343 94.3812 322.016ZM82.1919 261.984C80.8627 262.717 79.6628 260.777 80.9872 260.046C82.7201 259.09 84.567 258.372 86.4288 257.671C87.8576 257.134 88.4723 259.305 87.0635 259.835C85.3903 260.465 83.749 261.125 82.1919 261.984ZM77.379 345.351C76.0463 346.078 74.8455 344.138 76.1743 343.414C78.0406 342.397 80.0845 341.719 82.0185 340.829C83.3945 340.196 84.6031 342.132 83.2232 342.767C81.2895 343.656 79.2453 344.335 77.379 345.351ZM75.2143 298.028C76.5029 299.179 78.2226 299.72 79.8442 300.325C81.2581 300.851 80.638 303.021 79.2095 302.489C77.1892 301.735 75.1314 301.048 73.5262 299.615C72.4095 298.618 74.1006 297.034 75.2143 298.028ZM89.4699 233.759C90.8865 234.282 90.2661 236.451 88.8352 235.924C87.2482 235.338 85.6093 234.893 84.0223 234.308C82.6061 233.786 83.2262 231.617 84.6571 232.144C86.244 232.729 87.8829 233.174 89.4699 233.759ZM114.618 208.232C116.123 207.994 116.764 210.156 115.253 210.396C113.378 210.694 111.531 211.042 109.753 211.689C108.316 212.211 107.7 210.04 109.118 209.525C110.897 208.878 112.743 208.53 114.618 208.232ZM122.928 270.385C121.547 269.747 122.758 267.813 124.132 268.448C125.58 269.117 127.08 269.634 128.66 269.95C130.165 270.251 129.524 272.414 128.026 272.114C126.248 271.758 124.556 271.138 122.928 270.385ZM130.776 235.375C132.262 234.993 132.89 237.158 131.41 237.539C128.807 238.21 126.126 238.558 123.503 239.155C122.009 239.495 121.376 237.33 122.869 236.991C125.491 236.394 128.172 236.046 130.776 235.375ZM164.069 224.389C165.58 224.652 164.936 226.814 163.434 226.553C161.836 226.275 160.216 226.27 158.595 226.269C157.056 226.269 157.059 224.025 158.595 224.025C160.436 224.026 162.254 224.073 164.069 224.389ZM272.65 236.112C268.75 235.761 264.844 235.481 260.931 235.271C260.749 235.262 260.57 235.251 260.388 235.242C260.367 235.203 260.341 235.166 260.313 235.127C259.036 233.366 258.096 231.604 257.282 229.613C256.503 227.716 255.748 225.762 254.548 224.051C253.18 222.101 251.333 220.576 249.308 219.254C248.08 220.03 246.941 220.939 245.898 221.902C244.801 222.916 243.112 221.329 244.21 220.315C245.137 219.459 246.126 218.669 247.171 217.954C245.964 217.265 244.732 216.617 243.531 215.972C239.027 213.557 234.417 211.324 229.711 209.283C227.524 208.331 225.31 207.487 223.08 206.632C221.88 206.172 220.696 205.58 219.496 205.047C219.583 204.25 219.329 203.358 218.679 202.834C218.198 202.449 217.825 202.306 217.252 202.035C217.124 201.992 217.046 201.967 217.011 201.953C217.037 201.959 217.115 201.981 217.243 202.02C217.548 202.152 217.572 202.113 217.315 201.905C217.3 201.451 216.348 200.492 216.13 200.023C215.372 198.416 215.137 196.716 214.018 195.252C212.475 193.235 209.884 192.472 207.47 193.157C207.22 190.73 207.154 188.198 206.181 186.032C206.154 185.973 206.068 185.948 206.029 186.012C205.014 187.637 204.928 189.446 204.85 191.319C204.776 193.078 204.847 194.876 205.092 196.624C204.937 196.736 204.779 196.843 204.614 196.946C203.845 197.423 203.015 197.79 202.144 198.063C200.484 198.579 198.745 198.803 197.005 198.882C192.514 199.083 187.885 198.657 183.469 197.933C179.001 197.201 172.153 196.102 168.178 194.001C165.555 192.616 163.135 190.924 160.681 189.286C161.571 186.593 161.798 183.698 160.903 181.423C160.795 181.151 160.342 181.101 160.255 181.423C159.694 183.595 159.53 185.777 158.784 187.923C158.772 187.953 158.76 187.987 158.748 188.018C158.515 187.87 158.282 187.723 158.05 187.578C157.513 187.244 156.781 187.494 156.459 187.97C151.305 195.603 143.144 196.04 134.573 197.404C125.194 198.896 115.767 200.506 106.749 203.426C98.1249 206.22 89.8826 210.287 83.3533 216.362C81.8752 217.738 80.493 219.203 79.1883 220.734C80.4506 220.883 81.7025 221.116 82.9382 221.481C84.4013 221.913 83.7726 224.078 82.3035 223.645C80.7153 223.176 79.1095 222.944 77.4873 222.828C73.0508 228.533 69.5916 235.001 66.6003 241.368C60.8626 253.576 57.1279 266.576 55.4094 279.812C56.353 279.28 57.3136 278.774 58.298 278.303C59.666 277.649 60.8725 279.586 59.503 280.241C57.9823 280.968 56.5052 281.769 55.074 282.638C54.4488 288.432 54.2065 294.263 54.3533 300.084C54.7024 313.963 56.6958 328.249 61.2049 341.491C63.4162 347.99 66.3466 354.436 70.7124 359.928C72.6879 362.416 74.932 364.66 77.576 366.531C78.8562 367.44 80.211 368.251 81.6404 368.935C83.4816 369.821 85.8809 370.113 87.4684 371.367C87.9907 371.779 88.3935 372.323 88.6979 372.938C88.5219 374.104 88.501 375.274 88.8412 376.441C88.9486 376.806 89.241 377.103 89.6021 377.246C89.6081 377.347 89.6081 377.445 89.6081 377.54C89.6081 377.585 89.6797 377.597 89.6887 377.552C89.7036 377.465 89.7185 377.378 89.7334 377.288C89.8498 377.325 89.9722 377.342 90.0975 377.342C94.6304 377.358 99.169 377.254 103.708 377.109C103.357 376.098 102.977 375.097 102.612 374.086C102.116 372.713 104.423 372.129 104.914 373.49C105.341 374.671 105.787 375.842 106.184 377.028C111.048 376.858 115.91 376.654 120.763 376.503C131.085 376.18 141.404 376.074 151.729 375.869C167.763 375.55 183.914 374.895 199.973 375.535C200.528 374.427 201.15 373.345 201.739 372.252C202.435 370.962 204.494 372.099 203.801 373.385C203.391 374.144 202.967 374.894 202.563 375.652C205.816 375.81 209.065 376.02 212.307 376.307C217.84 376.794 223.319 377.661 228.846 378.2C234.465 378.749 239.962 378.652 245.536 377.779C246.539 377.622 247.13 377.052 247.374 376.346C247.383 376.343 247.389 376.337 247.395 376.329C247.681 376.015 247.95 375.754 248.228 375.527C248.559 375.325 248.917 375.153 249.338 375.002C250.123 374.722 250.94 374.55 251.77 374.435C252.683 374.307 253.608 374.295 254.521 374.189C255.291 374.096 256.043 373.959 256.795 373.791C258.147 373.488 259.43 373.092 260.708 372.567C261.821 372.11 262.826 371.454 263.775 370.738C265.739 369.389 267.44 367.667 268.926 365.877C269.791 364.831 270.606 363.746 271.346 362.616C272.635 360.657 273.733 358.624 274.844 356.573C275.246 355.966 275.614 355.344 275.95 354.708C273.781 354.108 271.59 353.618 269.29 353.583C267.753 353.56 267.753 351.316 269.29 351.339C271.928 351.379 274.423 351.958 276.902 352.648C277.023 352.346 277.139 352.043 277.246 351.735C277.541 351.093 277.786 350.433 277.989 349.766C278.108 349.463 278.228 349.16 278.347 348.857C278.616 347.808 278.884 346.756 279.156 345.704C279.696 344.021 280.122 342.313 280.436 340.582C280.698 339.444 280.901 338.296 281.039 337.135C281.456 334.322 281.797 331.514 281.82 328.67C281.785 326.917 281.665 325.166 281.462 323.424C281.376 322.241 281.23 321.063 281.033 319.893C280.776 318.154 280.522 316.432 280.096 314.715C279.776 313.554 279.457 312.393 279.138 311.231C278.341 308.811 277.401 306.438 276.317 304.118C276.258 303.972 275.956 303.652 275.775 303.649C275.637 303.647 275.446 303.764 275.509 303.922C275.515 303.936 275.521 303.952 275.527 303.966C275.464 303.835 275.405 303.7 275.342 303.568C275.288 303.445 275.079 303.198 274.918 303.201C274.909 303.201 274.9 303.201 274.888 303.204C274.93 303.176 274.969 303.139 275.008 303.097C276.079 301.905 276.774 300.337 277.541 298.957C278.177 297.818 278.777 296.617 278.95 295.33C279.102 294.2 278.896 293.086 278.141 292.172C277.282 291.131 275.664 290.643 276.562 289.139C277.583 287.428 279.084 285.945 277.589 284.001C276.828 283.011 275.622 282.467 274.727 281.605C273.698 280.61 273.208 279.277 273.235 277.917C273.298 277.95 273.381 277.934 273.411 277.849C274.277 275.392 273.65 272.694 272.764 270.301C272.28 269.003 271.256 268.646 270.066 268.582C275.222 259.115 280.048 249.497 284.348 239.657C284.491 239.335 284.632 239.012 284.772 238.689C284.981 238.207 284.539 237.565 284.029 237.458C280.31 236.692 276.437 236.448 272.65 236.112Z" fill="black"/>
<path fill-rule="evenodd" clip-rule="evenodd" d="M229.631 118.862C228.922 110.238 230.021 101.2 226.484 93.003C220.316 79.4032 203.021 74.8687 189.613 69.691C184.241 68.1992 166.167 67.9906 159.877 66.0161C145.643 61.5473 142.242 56.2228 130.931 64.7316C129.022 66.1851 127.827 67.7648 126.956 69.9233L126.992 69.9325C126.743 70.8323 127.01 71.7302 127.57 72.416C122.666 77.1278 120.614 84.1918 123.13 90.464C131.342 106.786 130.956 115.611 128.31 133.158C124.855 149.539 132.75 155.522 145.825 164.435C145.293 165.406 145.183 166.695 145.877 167.551C160.997 187.522 189.505 197.057 213.931 186.921C223.846 182.773 228.273 172.848 230.799 163.893C233.741 153.865 234.645 143.299 232.25 133.084C231.284 128.36 230.025 123.67 229.631 118.862Z" fill="white"/>
<path fill-rule="evenodd" clip-rule="evenodd" d="M142.417 23.3196C144.252 23.0606 145.638 24.1309 146.298 25.6394L146.332 25.7207C146.544 26.234 146.78 26.7332 147.033 27.2241C151.626 25.1064 158.179 25.6505 161.086 29.9393C163.16 33.0023 161.895 36.6375 161.113 39.8857L160.599 42.0259C161.592 42.6193 162.34 43.6821 162.305 44.7826L162.3 44.8673L162.092 47.8518C162.754 47.2207 163.36 46.5334 163.9 45.8013C164.273 45.159 164.676 44.5279 165.109 43.9164C167.654 40.3177 173.369 43.4452 171.268 47.2992C170.865 48.0425 170.411 48.7466 169.925 49.4254C169.376 50.4267 168.925 51.4561 168.579 52.5136C169.573 52.9203 170.337 53.8235 170.417 55.1867C170.605 58.3704 168.827 61.0267 165.998 62.6956C165.165 63.1865 164.306 63.2818 163.527 63.0995C163.39 63.2734 163.252 63.4473 163.121 63.624C164.249 64.4852 165.267 65.4669 166.141 66.5552C168.773 66.185 171.42 66.0111 174.067 66.0055C177.302 64.516 181.175 64.5469 184.652 65.1051C186.89 65.4641 189.038 66.1625 191.241 66.6646C193.562 67.192 195.92 67.2116 198.268 67.5706C201.229 68.0222 203.825 69.3069 205.457 71.3573C207.251 71.4078 209.137 72.0978 210.7 73.0347C214.341 75.2169 217.961 77.43 221.593 79.6263C222.986 80.4695 223.508 81.8156 223.251 83.317L223.234 83.413L223.112 84.0357L223.399 84.419C224.51 85.8942 225.72 87.4395 226.439 89.0678C227.77 90.8714 228.972 92.7619 230.038 94.7114C231.473 97.3312 232.658 100.108 233.461 102.958C233.661 103.679 233.86 104.405 233.992 105.14C234.18 106.178 233.89 106.983 233.732 107.979C233.535 109.241 233.464 110.52 233.255 111.785C233.114 112.624 232.356 113.036 231.563 113.059C231.861 115.193 232.076 117.342 232.282 119.474C232.571 122.52 232.768 125.574 232.938 128.629C233.816 129.827 235.609 130.775 236.904 131.103C238.698 131.555 240.578 131.064 242.273 130.489C243.338 130.127 244.212 131.386 243.693 132.228C242.061 134.87 238.569 134.859 235.926 133.689C234.806 133.195 233.825 132.48 233.097 131.549C233.141 132.435 233.189 133.322 233.237 134.211L233.281 135.016C233.819 144.422 234.98 154.151 233.1 163.464C229.844 179.595 215.641 191.878 198.292 192.832C189.188 193.332 181.607 190.805 177.837 189.395C174.067 187.985 175.532 185.11 178.149 185.932C182.658 187.347 190.94 189.456 198.352 188.546C215.821 186.399 230.635 178.192 229.113 142.844C228.897 137.832 228.232 132.817 228.089 127.804C227.952 122.904 228.003 118.001 227.773 113.103L227.696 111.433C227.606 109.48 227.511 107.519 227.355 105.564C227.167 104.806 227.012 104.038 226.782 103.295C226.158 101.272 225.344 99.3059 224.332 97.4294C224.108 97.5893 223.858 97.7043 223.586 97.7492C221.524 98.097 219.59 97.9988 217.659 97.191C216.758 96.8179 215.964 96.3214 215.224 95.7072C214.872 95.4182 214.637 95.1377 214.452 94.846C213.517 94.8601 212.583 94.5964 211.999 93.9653C211.331 93.2459 211.22 92.503 211.482 91.8151L211.509 91.7465L211.443 91.7241C210.656 93.6399 209.086 95.3257 207.364 96.4645C204.643 98.2709 201.238 98.7926 197.973 98.8403C194.368 98.8908 190.566 98.3691 187.009 97.8361C186.069 97.6959 185.135 97.536 184.219 97.32C184.183 97.3537 184.147 97.3929 184.109 97.4266C181.056 100.173 176.762 100.879 172.888 99.3115C170.65 98.4055 168.773 96.9469 167.114 95.2752C167.09 96.1503 167.042 97.0255 166.962 97.8922L166.928 98.2364C166.763 99.8506 166.445 101.563 165.147 102.728C163.049 104.616 160.006 103.858 157.585 102.63C157.588 102.689 157.588 102.75 157.588 102.812C158.242 104.899 158.898 106.989 159.555 109.078L159.696 109.524C160.174 111.007 160.697 112.493 160.841 114.046C161.116 117.014 159.015 119.945 155.506 118.949C153.665 118.429 152.19 116.974 150.775 115.809L149.883 115.084C152.19 122.172 153.79 129.512 153.939 136.909C153.948 137.31 153.581 137.613 153.175 137.627C152.226 137.664 151.205 137.487 150.25 137.131C150.197 137.128 150.143 137.125 150.086 137.117C148.457 136.895 146.944 136.343 145.61 135.526C145.917 136.444 146.055 137.428 145.974 138.458C145.953 138.707 145.538 138.794 145.479 138.519C144.709 134.96 140.277 132.27 136.458 132.951C132.357 133.683 129.337 136.999 128.597 140.772C127.804 144.825 129.323 149.512 132.137 152.639C133.432 154.081 135.136 155.284 137.159 155.587C138.084 155.725 139.045 155.677 139.943 155.43C140.325 155.324 140.683 155.175 141.047 155.035C141.578 154.833 142.199 154.802 142.7 154.589C143.837 154.109 144.98 155.094 144.404 156.19C143.903 157.147 143.452 157.792 142.62 158.286C143.294 159.06 143.906 160.137 144.133 160.426C145.291 161.896 146.466 163.284 147.785 164.628C149.128 165.991 150.594 167.236 152.142 168.389L152.793 168.873C154.285 169.985 155.584 171.015 156.636 172.611C157.466 173.87 156.392 175.578 154.837 175.559C149.973 175.494 146.437 171.477 143.918 167.968C143.56 167.466 143.223 166.936 142.909 166.392C142.796 166.563 142.671 166.723 142.53 166.869L142.808 167.57C143.632 169.635 140.083 170.984 139.054 169.057C138.305 167.66 137.436 166.33 136.47 165.074C135.9 164.998 135.342 164.673 135.031 164.252C134.246 163.183 133.366 162.103 132.623 160.964C132.211 160.597 131.787 160.244 131.355 159.899C131.229 160.002 131.101 160.106 130.979 160.216C130.436 161.38 129.764 162.443 128.932 163.444L128.753 163.658C127.158 165.547 125.081 167.481 122.51 167.943C121.725 168.083 120.97 167.166 121.665 166.58C123.465 165.06 125.592 164.025 127.252 162.328C128.069 161.492 128.82 160.571 129.465 159.606L129.612 159.382C129.719 159.217 129.83 159.052 129.943 158.883C129.194 158.404 128.445 157.921 127.696 157.439C125.634 159.094 122.949 159.852 120.668 161.224L120.442 161.363C118.38 162.659 116.207 159.792 117.86 158.218C119.683 156.49 121.204 154.43 122.819 152.509C122.059 151.194 121.7 149.64 121.566 148.069C121.512 147.625 121.471 147.18 121.429 146.735C120.272 146.752 119.108 146.379 118.123 145.736L117.75 145.487C116.553 145.846 115.297 146.02 114.094 145.989C111.265 145.91 110.108 142.873 111.877 140.951C113.683 138.988 116.843 138.558 119.346 139.512C119.427 139.473 119.511 139.431 119.591 139.389C119.472 138.873 119.498 138.404 119.634 137.993L119.595 137.743C119.044 136.948 118.682 136.042 118.545 135.084C118.436 134.325 118.458 133.573 118.645 132.824C118.707 132.575 118.837 132.316 118.935 132.056C118.732 131.573 118.612 131.074 118.575 130.572C118.518 130.508 118.461 130.443 118.408 130.372C117.165 128.733 117.416 126.757 118.599 125.43C118.604 125.346 118.612 125.262 118.625 125.178C118.555 125.031 118.492 124.883 118.434 124.734C117.279 123.639 116.431 122.321 116.589 120.687C116.682 119.726 117.102 118.861 117.738 118.215C117.625 117.901 117.614 117.538 117.751 117.235C116.736 114.697 116.864 111.641 117.595 108.804C117.434 108.372 117.35 107.903 117.368 107.407C117.452 105.3 119.391 103.365 121.689 103.39C121.966 103.392 122.225 103.426 122.474 103.476L122.477 103.426C122.565 102.793 122.75 102.209 123.02 101.685C122.887 101.64 122.764 101.575 122.657 101.489C121.184 102.227 119.626 102.791 117.993 103.176C116.791 103.459 115.561 102.175 116.308 101.116C116.654 100.624 117.036 100.182 117.448 99.7791C116.863 99.7822 116.268 99.8195 115.667 99.8921C114.587 100.024 113.381 99.3312 112.68 98.3943C111.809 99.1909 110.934 99.9847 110.06 100.779C107.846 102.795 104.5 101.311 104.151 98.6524C103.492 98.4869 102.877 98.2064 102.337 97.8053C98.8453 99.2302 95.0883 100.013 91.2477 100.161C88.4903 100.268 86.8789 97.2499 88.168 95.1181C89.0334 93.6876 90.1077 92.4029 91.3462 91.2865C89.4244 91.8391 87.4399 92.2374 85.4137 92.4927C84.3185 92.6301 82.7697 91.7774 82.331 90.8321C80.6539 87.1969 80.7972 83.4074 82.7279 79.8704C82.8025 79.7301 82.8861 79.5955 82.9667 79.4608C83.1666 78.9924 83.3844 78.5296 83.6202 78.0752C81.2448 75.7471 81.0389 72.2858 82.3191 69.3882C81.8058 68.6057 81.6089 67.6632 81.958 66.8105C82.9517 64.3561 84.3841 62.0897 86.1925 60.1431C86.0195 59.8289 85.8673 59.4951 85.7389 59.1361C84.7213 56.233 85.9001 52.7296 88.2785 50.7072C89.7735 49.4338 91.4924 48.6708 93.3276 48.1828C94.1005 46.8981 95.0943 45.7396 96.2521 44.7635C96.2969 44.6709 96.3416 44.5784 96.3924 44.4858C98.1948 41.2938 101.477 39.5828 104.996 39.1873C105.133 37.939 106.028 36.7469 107.329 36.3599C107.687 35.2799 108.222 34.2477 108.956 33.3109C110.111 31.8355 112.029 31.1398 113.838 32.1075C114.828 32.6377 115.777 33.2464 116.667 33.9195C117.066 33.7435 117.519 33.6296 118.03 33.5932L118.159 33.5858L121.101 33.4455C122.334 32.9322 123.563 32.3936 124.796 31.8691C125.536 31.2941 126.362 30.8145 127.263 30.4582C128.284 30.0571 129.328 29.8299 130.376 29.7542C131.226 29.4933 132.083 29.2633 132.954 29.0838C135.001 28.6631 137.144 28.4274 139.269 28.4471C139.312 27.9302 139.334 27.4071 139.33 26.8778L139.325 26.6126C139.278 24.9156 140.719 23.5608 142.417 23.3196ZM140.355 159.094C140.062 159.152 139.767 159.2 139.472 159.234C139.561 159.441 139.651 159.649 139.737 159.857C139.976 159.983 140.218 160.103 140.459 160.216C140.388 159.834 140.346 159.45 140.355 159.094ZM125.023 154.811L124.825 155.155C124.793 155.211 124.761 155.266 124.73 155.321C125.151 155.29 125.574 155.298 125.992 155.343L125.991 155.302C125.937 155.284 125.884 155.269 125.832 155.245C125.544 155.115 125.276 154.969 125.023 154.811ZM133.309 139.145C135.95 139.289 138.186 139.67 140.587 140.755L140.794 140.85C142.915 141.84 146.425 143.669 146.129 146.292C146.046 147.038 145.47 147.823 144.563 147.764C142.077 147.605 140.656 145.248 138.973 143.779C137.275 142.298 135.189 140.774 133.133 139.756C132.843 139.613 132.957 139.159 133.273 139.145L133.309 139.145ZM121.337 104.59C120.704 104.61 120.916 105.188 121.241 104.705C121.268 104.666 121.301 104.627 121.337 104.59ZM155.486 66.0161C149.495 66.1642 143.465 69.4895 138.976 72.8507C135.071 75.7748 131.7 79.253 128.714 83.0018C127.946 84.8688 127.286 86.7748 126.729 88.6948C126.362 89.9626 126.132 91.2445 125.825 92.5235L125.73 92.9157C125.488 93.3398 125.309 93.7961 125.178 94.2676C125.722 94.7804 126.428 95.1476 127.205 95.3217C127.455 95.3778 127.663 95.4993 127.828 95.6603C128.453 94.6791 129 93.6435 129.318 92.5457L129.33 92.4949C130.532 90.6439 131.838 88.8504 133.238 87.1184C137.099 82.3359 141.352 77.977 146.464 74.3502C150.34 71.6013 154.673 69.4471 159.28 68.0475C158.153 67.1922 156.872 66.5157 155.486 66.0161Z" fill="black"/>
<path fill-rule="evenodd" clip-rule="evenodd" d="M209.5 170.025C207.302 170.623 204.942 170.677 202.701 170.059C200.669 169.498 198.582 168.264 197.086 166.632C195.757 165.182 194.897 163.419 194.931 161.538C194.934 161.323 195.016 161.144 195.142 161.004C195.277 160.855 195.466 160.752 195.669 160.707C195.877 160.661 196.097 160.677 196.285 160.757C196.455 160.83 196.6 160.953 196.691 161.133C196.921 161.417 197.15 161.696 197.38 161.968C199.228 164.114 201.018 165.717 203.797 166.292C205.306 166.604 206.812 166.465 208.194 165.989C209.673 165.48 211.01 164.584 212.058 163.437C212.532 162.919 213.091 162.707 213.637 162.704C214.257 162.7 214.869 162.97 215.331 163.403C215.784 163.828 216.088 164.405 216.115 165.01C216.139 165.54 215.955 166.094 215.465 166.588C213.852 168.216 211.762 169.409 209.5 170.025ZM209.432 143.156C211.686 144.443 215.119 147.445 212.695 150.637C209.842 153.452 205.733 150.225 203.709 148.765C201.831 147.634 199.722 150.543 201.464 151.864C216.093 162.045 222.03 143.493 210.572 141.642C209.31 141.438 208.842 142.758 209.432 143.156ZM188.352 137.491C187.628 137.055 186.776 136.906 185.832 137.31C185.094 137.625 183.8 138.676 182.899 140.059C182.283 141.004 181.846 142.114 181.937 143.269C181.958 143.537 181.853 143.735 181.686 143.882C181.555 143.997 181.365 144.082 181.142 144.109C180.953 144.131 180.741 144.111 180.569 144.06C180.241 143.964 180.067 143.764 180.002 143.601C179.372 142.027 179.643 140.27 180.35 138.686C181.304 136.547 183.036 134.755 184.171 134.178C186.113 133.189 188.404 133.143 190.348 134.151C192.004 135.008 193.039 136.392 194.069 137.803C194.287 138.103 194.505 138.401 194.729 138.693C195.179 139.279 195.224 139.86 195.05 140.359C194.857 140.911 194.364 141.377 193.749 141.621C193.18 141.846 192.52 141.878 191.936 141.646C191.442 141.451 190.989 141.069 190.703 140.422C190.22 139.332 189.416 138.13 188.352 137.491V137.491ZM225.137 139.915C224.641 140.158 224.253 140.232 223.702 140.077C223.398 139.991 223.097 139.826 222.862 139.605C222.629 139.385 222.46 139.113 222.395 138.81C222.234 138.063 221.799 137.364 221.18 136.909C220.65 136.519 219.982 136.313 219.241 136.429C218.441 136.555 217.679 137.037 217.154 137.605C216.979 137.795 216.841 138.012 216.703 138.226C216.444 138.627 216.193 139 215.836 139.295C215.701 139.407 215.497 139.485 215.3 139.485C215.22 139.485 215.138 139.473 215.061 139.45C214.265 138.699 214.112 138.129 214.137 137.564C214.164 136.971 214.413 136.371 214.814 135.811C215.757 134.498 217.546 133.421 218.753 133.178C220.406 132.844 222.048 133.244 223.365 134.112C224.719 135.006 225.723 136.392 226.036 137.955C226.111 138.331 226.079 138.737 225.927 139.09C225.778 139.434 225.518 139.729 225.137 139.915ZM191.999 123.489C191.007 124.398 189.832 124.538 188.644 124.664C187.984 124.734 187.457 124.79 186.938 124.9C185.513 125.203 184.104 125.658 182.819 126.314C181.475 127 180.011 127.827 178.957 128.887C178.707 129.139 178.471 129.403 178.234 129.668C178.019 129.91 177.811 130.143 177.592 130.367C177.341 130.625 177.102 130.895 176.865 131.165C176.718 131.392 176.689 131.448 176.659 131.506C176.615 131.594 176.563 131.691 176.504 131.796C176.423 131.94 176.328 132.098 176.229 132.24C176.063 132.501 175.975 132.573 175.898 132.605C175.771 132.659 175.65 132.685 175.533 132.671C175.424 132.657 175.32 132.608 175.218 132.527C174.709 132.122 174.559 131.458 174.574 130.753C174.598 129.684 175.017 128.5 175.404 127.772C176.304 126.081 177.551 124.322 179.051 123.06C180.763 121.619 182.636 120.528 184.787 119.777C186.123 119.31 187.671 118.881 189.127 118.935C190.175 118.974 191.176 119.267 192.003 119.998C192.51 120.447 192.754 121.086 192.754 121.724C192.754 122.375 192.501 123.03 191.999 123.489ZM227.155 131.81C227.092 131.907 227.004 131.974 226.907 132.014C226.805 132.057 226.692 132.069 226.582 132.051C226.474 132.034 226.37 131.988 226.289 131.917C226.21 131.849 226.15 131.759 226.123 131.649C225.465 128.93 224.186 126.906 221.455 125.601C220.112 124.96 218.568 124.552 217.106 124.227C216.681 124.132 216.232 124.071 215.78 124.009C214.363 123.814 212.936 123.592 212.013 122.515C211.456 121.867 211.223 121.037 211.355 120.279C211.479 119.565 211.923 118.91 212.73 118.518C214.739 117.541 217.236 118.5 219.265 119.316C219.415 119.376 219.563 119.436 219.707 119.493C221.691 120.28 223.501 121.319 224.988 122.805C226.169 123.984 227.262 125.727 227.703 127.52C228.069 129.011 227.983 130.534 227.155 131.81Z" fill="black"/>
</svg>
